<svg viewBox="0 0 87 90" fill="none" xmlns="http://www.w3.org/2000/svg">
<mask id="mask0_2_3708" style="mask-type:alpha" maskUnits="userSpaceOnUse" x="0" y="0" width="87" height="90">
<rect width="86.5259" height="89.5122" fill="url(#paint0_linear_2_3708)"/>
</mask>
<g mask="url(#mask0_2_3708)">
<path d="M44.8383 -0.000732422C47.1479 0.438177 49.3627 1.19963 51.3802 2.56316C55.6984 5.47994 58.5798 9.71852 60.9173 14.3302C66.9937 13.9786 73.418 14.6376 78.3623 18.3209C81.3019 17.18 84.4666 18.4411 85.8491 21.0998C87.2582 23.8028 86.4132 27.1054 83.8215 28.8433C83.9594 34.706 81.5207 39.9451 78.3952 44.7402C81.5233 49.5606 83.9581 54.7655 83.8215 60.6434C86.3993 62.4041 87.2316 65.694 85.7884 68.4236C84.416 71.0153 81.2804 72.2979 78.3775 71.1722C73.4724 74.8415 66.9671 75.5676 60.9097 75.1717C58.2826 80.4386 54.407 85.8345 48.8909 88.2808C42.3756 91.1685 36.1398 88.6956 31.4673 83.8069C29.0287 81.2544 27.2098 78.3364 25.6148 75.1666C19.5675 75.565 13.061 74.839 8.14696 71.1684C5.23523 72.2941 2.10216 71.0318 0.719654 68.435C-0.732415 65.7016 0.115047 62.3927 2.70423 60.6421C2.53601 54.8339 5.01009 49.4923 8.13305 44.744C5.01388 39.9881 2.53601 34.6592 2.70044 28.8433C0.104928 27.1143 -0.72862 23.8079 0.680443 21.1023C2.06294 18.4461 5.22385 17.1914 8.15202 18.3209C13.1394 14.6389 19.5181 13.9811 25.6085 14.3302C29.0186 7.54547 33.9313 1.29702 41.6913 -0.000732422H44.8383ZM57.6817 14.6148C55.4746 10.3472 52.3339 6.2161 48.1851 4.15942C45.0166 2.60743 41.5104 2.6049 38.3444 4.15816C34.1666 6.22748 31.0575 10.3459 28.8427 14.6098C33.8288 15.3902 38.5519 16.5627 43.266 18.4006C47.9511 16.5817 52.6248 15.4041 57.6817 14.6148ZM10.024 42.0903C13.2722 38.0402 16.5786 34.6997 20.3997 31.6121C21.17 26.6994 22.4084 22.0535 24.2968 17.2786C21.3876 17.1104 18.6821 17.3659 15.9613 17.9617C14.102 18.46 12.3931 19.0836 10.6678 20.1676C12.1047 22.1648 12.3678 24.5542 11.2117 26.7032C10.172 28.6397 8.10396 29.8881 5.65138 29.8514C6.06119 34.3518 7.4652 38.5575 10.024 42.0903ZM80.8023 29.8476C78.1106 29.8388 76.207 28.45 75.2482 26.5843C74.1529 24.453 74.4476 22.1231 75.8528 20.1714C74.1402 19.0849 72.4276 18.455 70.5695 17.9617C67.8462 17.3596 65.1432 17.1142 62.2163 17.2748C64.1022 22.0409 65.343 26.6943 66.1209 31.6083C70.018 34.7566 73.3864 38.1932 76.5258 42.1308C79.0454 38.4045 80.5898 34.1785 80.8023 29.8476ZM39.0502 20.1132C35.1165 18.7206 31.3459 17.9756 27.4438 17.4823C25.9766 21.1757 24.7205 24.7135 24.0236 28.7877C28.8605 25.351 33.6758 22.5784 39.0502 20.1132ZM62.511 28.813C61.7824 24.735 60.5467 21.0884 59.0516 17.4696C55.0748 18.0085 51.3738 18.7434 47.4882 20.1018C52.7994 22.5835 57.6767 25.3295 62.511 28.813ZM8.95142 23.8623C8.95142 22.2179 7.61951 20.886 5.97518 20.886C4.33085 20.886 2.99768 22.2179 2.99768 23.8623C2.99768 25.5066 4.33085 26.8398 5.97518 26.8398C7.61951 26.8398 8.95142 25.5066 8.95142 23.8623ZM83.523 23.8623C83.523 22.2179 82.1898 20.8848 80.5455 20.8848C78.9012 20.8848 77.568 22.2179 77.568 23.8623C77.568 25.5066 78.9012 26.8398 80.5455 26.8398C82.1898 26.8398 83.523 25.5066 83.523 23.8623ZM63.342 56.2606C64.4007 48.3805 64.4121 40.7369 63.3054 33.1667C57.1505 28.3273 50.4834 24.4897 43.266 21.5868C36.012 24.5061 29.2677 28.3804 23.2014 33.1919C22.1225 40.9633 22.1124 48.6954 23.2217 56.315C29.379 61.1645 36.0398 64.9882 43.2749 67.8974C50.496 64.9642 57.2694 61.124 63.342 56.2606ZM19.8002 53.3641C19.2677 47.3635 19.2664 41.9284 19.8141 36.0708C16.7632 38.6954 14.1968 41.5793 11.7759 44.744C14.2082 47.8897 16.7582 50.8217 19.8002 53.3641ZM74.7499 44.7238C72.2695 41.5654 69.8447 38.7675 66.7306 36.0986C67.234 41.9271 67.2328 47.5609 66.7306 53.3995C69.8574 50.6876 72.3567 47.8682 74.7499 44.7238ZM16.0246 71.5428C18.7946 72.1309 21.4407 72.3725 24.3031 72.2106C22.4185 67.437 21.1713 62.7911 20.4035 57.8695C16.4761 54.7251 13.1166 51.2366 9.98861 47.3661C7.43864 51.124 5.95621 55.2993 5.69691 59.6517C8.27218 59.5986 10.2871 60.9723 11.2737 62.8999C12.364 65.0287 12.0731 67.3573 10.6767 69.3128C12.3919 70.3968 14.0931 71.0229 16.0246 71.5428ZM75.8503 69.2786C74.3299 67.2296 74.182 64.7846 75.3735 62.6621C76.422 60.7977 78.4825 59.5885 80.8617 59.6467C80.4911 55.1792 79.0631 51.0418 76.5156 47.3547C73.3712 51.3428 69.9231 54.782 66.0982 57.9151C65.3494 62.8974 64.0744 67.4737 62.229 72.2144C66.7521 72.4471 72.2113 71.7591 75.8503 69.2786ZM39.0452 69.3874C33.7466 66.8931 28.8478 64.185 24.0173 60.656C24.7016 64.5974 25.9449 68.2592 27.4564 72.0019C31.356 71.5175 35.1076 70.7421 39.0452 69.3874ZM59.0845 71.9893C60.6175 68.1466 61.833 64.5556 62.5148 60.6611C57.7184 64.1218 52.9461 66.8539 47.4856 69.3571C51.2625 70.737 55.1356 71.5175 59.0845 71.9893ZM8.95142 65.6232C8.95142 63.9789 7.61951 62.6457 5.97518 62.6457C4.33085 62.6457 2.99768 63.9789 2.99768 65.6232C2.99768 67.2675 4.33085 68.5994 5.97518 68.5994C7.61951 68.5994 8.95142 67.2675 8.95142 65.6232ZM83.5243 65.6232C83.5243 63.9789 82.1898 62.6457 80.5468 62.6457C78.9024 62.6457 77.5693 63.9789 77.5693 65.6232C77.5693 67.2675 78.9024 68.6007 80.5468 68.6007C82.1898 68.6007 83.5243 67.2675 83.5243 65.6232ZM48.1067 85.3615C49.9471 84.4596 51.3966 83.2845 52.7981 81.8843C54.7409 79.8137 56.3068 77.5496 57.6843 74.8757C52.7032 74.094 47.9777 72.9151 43.2635 71.0887C38.5797 72.8898 33.9047 74.1092 28.8478 74.8542C30.1696 77.5066 31.8101 79.8492 33.8074 81.9767C37.7373 85.9117 42.669 87.914 48.1067 85.3615Z" fill="url(#paint1_linear_2_3708)"/>
<path d="M39.7941 49.2354L31.8406 49.2127L29.7093 54.2747C29.3957 55.0184 28.5798 55.3169 27.9031 55.1044C27.2138 54.8869 26.5864 54.047 26.9342 53.2122L34.4273 35.2143C34.6689 34.6338 35.3026 34.2948 35.8149 34.3049C36.3676 34.3163 36.9507 34.6616 37.1986 35.2574L44.6449 53.1401C44.9915 53.9711 44.4982 54.8034 43.762 55.0842C43.1372 55.322 42.2214 55.0652 41.9014 54.2974L39.7941 49.2354ZM38.5242 46.2288L35.7997 39.7325L33.0752 46.2263L38.5242 46.2288Z" fill="url(#paint2_linear_2_3708)"/>
<path d="M56.7128 55.1842L47.6715 55.1829C46.8291 55.1829 46.2726 54.4025 46.2549 53.7448C46.2347 52.9934 46.7798 52.2421 47.6298 52.2282L50.7174 52.1776L50.7211 37.3331L47.8056 37.2711C46.9417 37.2509 46.3194 36.7222 46.2562 35.8911C46.203 35.1816 46.7634 34.3113 47.6703 34.3088L56.5471 34.2961C57.4199 34.2949 58.0561 34.8577 58.1459 35.5876C58.2484 36.43 57.664 37.2534 56.7343 37.2661L53.7062 37.3065V52.1852L56.5585 52.2067C57.4338 52.213 58.0827 52.7392 58.1548 53.5727C58.2205 54.314 57.6476 55.1842 56.7128 55.1842Z" fill="url(#paint3_linear_2_3708)"/>
</g>
<defs>
<linearGradient id="paint0_linear_2_3708" x1="86.5259" y1="18.6306" x2="86.5259" y2="113.466" gradientUnits="userSpaceOnUse">
<stop offset="1" stop-color="#455FF6"/>
<stop stop-color="#455FF6"/>
</linearGradient>
<linearGradient id="paint1_linear_2_3708" x1="86.5261" y1="18.6301" x2="86.5261" y2="113.467" gradientUnits="userSpaceOnUse">
<stop offset="1" stop-color="#455FF6"/>
<stop stop-color="#455FF6"/>
</linearGradient>
<linearGradient id="paint2_linear_2_3708" x1="44.7581" y1="38.6478" x2="44.7581" y2="60.7554" gradientUnits="userSpaceOnUse">
<stop offset="1" stop-color="#455FF6"/>
<stop stop-color="#455FF6"/>
</linearGradient>
<linearGradient id="paint3_linear_2_3708" x1="58.1599" y1="38.6437" x2="58.1599" y2="60.774" gradientUnits="userSpaceOnUse">
<stop offset="1" stop-color="#455FF6"/>
<stop stop-color="#455FF6"/>
</linearGradient>
</defs>
</svg>
