<svg viewBox="0 0 88 88" fill="none" xmlns="http://www.w3.org/2000/svg">
<mask id="mask0_2_3716" style="mask-type:alpha" maskUnits="userSpaceOnUse" x="0" y="0" width="88" height="88">
<rect width="87.199" height="87.0348" fill="url(#paint0_linear_2_3716)"/>
</mask>
<g mask="url(#mask0_2_3716)">
<path d="M87.199 25.8424V82.4452C86.6417 84.8123 84.9736 86.4811 82.6006 87.0347H73.9148C71.5252 86.3153 69.4612 84.491 69.4608 81.7408L69.4492 26.8899C69.4485 23.7741 71.8333 21.3255 74.9407 21.3173L81.584 21.3003C84.4515 21.2928 86.5189 23.2017 87.199 25.8424ZM81.8589 84.4633C83.4383 84.4592 84.643 83.1105 84.643 81.5703L84.6455 26.8899C84.6455 25.1913 83.4108 23.8668 81.732 23.8661L74.9555 23.8629C73.2533 23.8622 72.0052 25.1673 72.0055 26.8913L72.008 81.5673C72.008 83.2373 73.3348 84.4851 74.925 84.481L81.8589 84.4633Z" fill="url(#paint1_linear_2_3716)"/>
<path d="M13.2842 87.0347H4.59838C2.22789 86.4799 0.554077 84.8118 0 82.4452V75.816C0.356744 75.4284 0.792966 75.1152 1.28823 75.088C1.6863 75.066 2.51878 75.4676 2.52287 75.9847L2.56624 81.6122C2.57827 83.1723 3.84788 84.4819 5.43949 84.4816L12.2748 84.4812C13.8594 84.481 15.1908 83.2322 15.1908 81.5716L15.1933 38.444C15.1933 36.7472 13.9266 35.4583 12.2639 35.459L5.4488 35.4617C3.79747 35.4624 2.55738 36.7738 2.5567 38.4367L2.54444 69.1482C2.54421 69.7468 1.66723 70.0954 1.28164 70.0818C0.816582 70.0654 0.343346 69.7364 0 69.3569V37.401C0.697819 34.7721 2.77197 32.8868 5.62002 32.8948L12.2614 32.913C15.3418 32.9214 17.7452 35.3348 17.7457 38.4462L17.7504 81.3997C17.7509 84.2809 15.9111 86.2903 13.2842 87.0347Z" fill="url(#paint2_linear_2_3716)"/>
<path d="M59.4384 87.0348H50.7526C48.3657 86.3004 46.3168 84.494 46.3152 81.7497L46.2925 43.5438C46.2907 40.4005 48.5937 37.8768 51.7858 37.8761L58.5905 37.8745C61.6279 37.8738 64.0636 40.3233 64.0454 43.3378L64.027 46.4223C64.0229 47.0994 63.3026 47.465 62.7595 47.4664C62.2422 47.4678 61.5221 47.0817 61.516 46.425L61.4865 43.3324C61.4715 41.7494 60.2291 40.4223 58.5909 40.423L51.7681 40.4249C50.1435 40.4253 48.856 41.7065 48.8562 43.3714L48.8578 81.5773C48.858 83.2237 50.1776 84.4817 51.7638 84.4812L58.5871 84.4796C60.3147 84.4792 61.4946 83.1022 61.4949 81.4109L61.4971 53.7381C61.4971 53.0113 62.2615 52.6656 62.7595 52.667C63.2833 52.6684 64.0422 52.9976 64.0427 53.7393L64.0545 81.4068C64.0557 84.33 62.132 86.3973 59.4384 87.0348Z" fill="url(#paint3_linear_2_3716)"/>
<path d="M36.4466 87.0348H27.7607C25.0644 86.4005 23.1453 84.3232 23.146 81.4129L23.1508 58.4902C23.1515 55.3951 25.5365 52.9413 28.6291 52.9408L35.4079 52.9397C38.5048 52.9393 40.896 55.387 40.8969 58.4909L40.9024 81.4131C40.903 84.2773 39.0635 86.2788 36.4466 87.0348ZM35.5314 84.468C37.1289 84.4653 38.3388 83.1169 38.3393 81.5871L38.3452 58.4873C38.3456 56.8044 37.0867 55.4873 35.4095 55.4875L28.6286 55.4882C26.9476 55.4885 25.7057 56.8089 25.7054 58.4884L25.7025 81.4156C25.7022 83.1037 26.8826 84.4828 28.6125 84.4799L35.5314 84.468Z" fill="url(#paint4_linear_2_3716)"/>
<path d="M11.4959 23.0312C8.97822 24.301 6.21034 23.6847 4.63599 21.5136C3.12363 19.4278 3.36456 16.4379 5.43758 14.6024C7.26944 12.9808 10.1581 12.8109 12.2169 14.5181C14.1661 16.1345 14.6671 18.9619 13.3232 21.2515L29.4218 37.8114C31.3216 36.8041 33.3728 36.9081 35.1649 38.1713L50.3853 25.9707C49.4851 23.796 50.0664 21.3871 51.7668 19.9358C53.6023 18.3694 56.1597 18.2298 58.2627 19.6511L73.5659 7.38802C72.5195 4.92669 73.3606 2.20899 75.5238 0.824703C77.7735 -0.614989 80.6542 -0.113368 82.3296 1.88608C84.005 3.88507 83.9058 6.82508 82.1727 8.69805C80.3733 10.6428 77.4499 10.9938 75.1847 9.35794L59.8829 21.6303C60.9509 23.9647 60.2392 26.4249 58.4786 27.8673C56.603 29.4039 54.0015 29.4537 51.9641 27.9767L36.779 40.1519C37.7889 42.5036 37.0599 45.0807 35.1011 46.5115C33.1189 47.9592 30.3999 47.8322 28.5719 46.2129C26.7076 44.5616 26.2418 41.8507 27.5843 39.5874L11.4959 23.0312ZM80.9719 5.19919C80.9719 3.7411 79.7877 2.55915 78.3269 2.55915C76.8658 2.55915 75.6816 3.7411 75.6816 5.19919C75.6816 6.65704 76.8658 7.839 78.3269 7.839C79.7877 7.839 80.9719 6.65704 80.9719 5.19919ZM11.5213 18.5002C11.5213 17.041 10.3359 15.8581 8.87377 15.8581C7.41182 15.8581 6.22646 17.041 6.22646 18.5002C6.22646 19.9594 7.41182 21.1423 8.87377 21.1423C10.3359 21.1423 11.5213 19.9594 11.5213 18.5002ZM57.8144 23.8625C57.8144 22.4044 56.63 21.2225 55.1689 21.2225C53.7079 21.2225 52.5237 22.4044 52.5237 23.8625C52.5237 25.3208 53.7079 26.5028 55.1689 26.5028C56.63 26.5028 57.8144 25.3208 57.8144 23.8625ZM34.6676 42.3314C34.6676 40.8754 33.485 39.695 32.026 39.695C30.5672 39.695 29.3844 40.8754 29.3844 42.3314C29.3844 43.7875 30.5672 44.9678 32.026 44.9678C33.485 44.9678 34.6676 43.7875 34.6676 42.3314Z" fill="url(#paint5_linear_2_3716)"/>
</g>
<defs>
<linearGradient id="paint0_linear_2_3716" x1="87.1988" y1="0.000161626" x2="87.1988" y2="43.5175" gradientUnits="userSpaceOnUse">
<stop offset="1" stop-color="#455FF6"/>
<stop stop-color="#455FF6"/>
</linearGradient>
<linearGradient id="paint1_linear_2_3716" x1="87.1989" y1="21.3004" x2="87.1989" y2="54.1676" gradientUnits="userSpaceOnUse">
<stop offset="1" stop-color="#455FF6"/>
<stop stop-color="#455FF6"/>
</linearGradient>
<linearGradient id="paint2_linear_2_3716" x1="17.7504" y1="32.8949" x2="17.7504" y2="59.9648" gradientUnits="userSpaceOnUse">
<stop offset="1" stop-color="#455FF6"/>
<stop stop-color="#455FF6"/>
</linearGradient>
<linearGradient id="paint3_linear_2_3716" x1="64.0545" y1="37.8746" x2="64.0545" y2="62.4547" gradientUnits="userSpaceOnUse">
<stop offset="1" stop-color="#455FF6"/>
<stop stop-color="#455FF6"/>
</linearGradient>
<linearGradient id="paint4_linear_2_3716" x1="40.9023" y1="52.9398" x2="40.9023" y2="69.9873" gradientUnits="userSpaceOnUse">
<stop offset="1" stop-color="#455FF6"/>
<stop stop-color="#455FF6"/>
</linearGradient>
<linearGradient id="paint5_linear_2_3716" x1="83.531" y1="-0.000155898" x2="83.531" y2="23.7589" gradientUnits="userSpaceOnUse">
<stop offset="1" stop-color="#455FF6"/>
<stop stop-color="#455FF6"/>
</linearGradient>
</defs>
</svg>
