<svg viewBox="0 0 109 92" fill="none" xmlns="http://www.w3.org/2000/svg">
<mask id="mask0_256_4028" style="mask-type:alpha" maskUnits="userSpaceOnUse" x="0" y="0" width="109" height="92">
<path d="M0 0H108.188V91.5532H0V0Z" fill="black"/>
</mask>
<g mask="url(#mask0_256_4028)">
<path d="M0 38.1868V36.7077C0.708203 35.1057 1.13347 34.4038 2.70296 33.5992C12.0767 28.7948 23.2383 25.4361 32.8975 20.896C39.3665 17.8551 40.9324 15.0251 41.6386 7.87138C41.8781 5.44536 41.1025 2.4752 43.4613 0.818819C45.0103 -0.268957 45.8449 -0.0641877 47.5487 0.252955C50.1233 0.731916 52.9482 1.57247 55.5385 2.19527C70.8086 5.86639 86.015 9.82344 101.283 13.507C104.597 14.8268 104.062 19.061 103.979 22.0309C103.646 33.9735 100.82 39.1072 90.0976 44.2852C79.9178 49.2011 69.2308 53.2975 59.0458 58.2427L57.6064 58.2382C38.9539 52.5052 20.1441 47.0977 1.68161 40.8375C0.760394 40.0991 0.396554 39.2598 0 38.1868ZM95.4885 20.6755L49.8731 9.44761C49.131 17.9858 45.5133 23.9091 37.8711 27.7717L16.4839 36.8123L57.4296 49.5567L58.1621 49.557C63.6996 47.1012 69.1532 44.4652 74.664 41.9535C79.3057 39.8379 90.5958 35.8973 93.3664 32.1278C95.6594 29.0083 95.5327 24.3793 95.4885 20.6755Z" fill="white"/>
<path d="M0 53.4018C0.763391 51.0686 2.36134 49.7379 4.91197 50.0763L57.996 66.2838L102.375 46.2084C107.354 44.3018 110.612 50.9785 105.877 53.7264L60.5808 74.3604C58.3663 75.1982 57.9952 74.985 55.7885 74.4276C38.2912 70.0076 20.7978 62.8664 3.26682 58.2708C1.59421 57.7424 0.631539 56.6853 0 55.0924V53.4018Z" fill="white"/>
<path d="M0 71.5753V69.8847C0.825571 67.6777 2.68498 66.277 5.12274 66.7699L57.9935 82.9807L102.951 62.6331C107.889 61.4637 110.294 68.0178 105.847 70.3894C91.0733 76.6216 76.628 84.2862 61.8479 90.4198C59.7033 91.3098 59.0503 91.8867 56.6263 91.3408L2.68823 74.6983C1.1969 74.025 0.517168 73.0961 0 71.5753Z" fill="white"/>
</g>
</svg>
