<svg id="Group_8596" data-name="Group 8596" xmlns="http://www.w3.org/2000/svg" xmlns:xlink="http://www.w3.org/1999/xlink" viewBox="0 0 304.726 134.232">
  <defs>
    <clipPath id="clip-path">
      <rect id="Rectangle_2417" data-name="Rectangle 2417" width="304.726" height="134.233" fill="none"/>
    </clipPath>
    <clipPath id="clip-path-3">
      <rect id="Rectangle_2408" data-name="Rectangle 2408" width="137.24" height="99.207" fill="none"/>
    </clipPath>
    <clipPath id="clip-path-4">
      <circle id="Ellipse_33" data-name="Ellipse 33" cx="25.151" cy="25.151" r="25.151" fill="none"/>
    </clipPath>
    <linearGradient id="linear-gradient" x1="-1.889" y1="2.049" x2="-1.883" y2="2.049" gradientUnits="objectBoundingBox">
      <stop offset="0" stop-color="#0093a2"/>
      <stop offset="1" stop-color="#49fbdf"/>
    </linearGradient>
  </defs>
  <g id="Group_7136" data-name="Group 7136" transform="translate(0)" clip-path="url(#clip-path)">
    <path id="Path_2540" data-name="Path 2540" d="M79.2,55.859,149.383,164.9l-.9.58L78.616,56.932H0V55.859Z" transform="translate(155.343 -31.244)" fill="#cfd5ef"/>
    <g id="Group_7131" data-name="Group 7131">
      <g id="Group_7130" data-name="Group 7130" clip-path="url(#clip-path)">
        <g id="Group_7129" data-name="Group 7129" transform="translate(0 21.67)" opacity="0.5">
          <g id="Group_7128" data-name="Group 7128">
            <g id="Group_7127" data-name="Group 7127" clip-path="url(#clip-path-3)">
              <path id="Rectangle_2407" data-name="Rectangle 2407" d="M15.841,0h104.87a15.841,15.841,0,0,1,15.841,15.841V82.678A15.842,15.842,0,0,1,120.71,98.52H15.841A15.841,15.841,0,0,1,0,82.679V15.841A15.841,15.841,0,0,1,15.841,0Z" transform="translate(0.344 0.344)" fill="#7892ff"/>
              <path id="Path_2541" data-name="Path 2541" d="M387.4,49.863a6.637,6.637,0,0,0-6.637,6.637v84.559A6.638,6.638,0,0,0,387.4,147.7H509.994a6.637,6.637,0,0,0,6.637-6.637V56.5a6.637,6.637,0,0,0-6.637-6.637Zm0-.687H509.994a7.332,7.332,0,0,1,7.324,7.324v84.559a7.332,7.332,0,0,1-7.324,7.324H387.4a7.332,7.332,0,0,1-7.324-7.324V56.5a7.332,7.332,0,0,1,7.324-7.324" transform="translate(-380.079 -49.176)" fill="#fff"/>
            </g>
          </g>
        </g>
      </g>
    </g>
    <rect id="Rectangle_2410" data-name="Rectangle 2410" width="84.974" height="6.002" transform="translate(23.716 47.683)" fill="#fff"/>
    <rect id="Rectangle_2411" data-name="Rectangle 2411" width="84.974" height="6.002" transform="translate(23.716 63.335)" fill="#fff"/>
    <rect id="Rectangle_2412" data-name="Rectangle 2412" width="84.974" height="6.002" transform="translate(23.716 78.987)" fill="#fff"/>
    <rect id="Rectangle_2413" data-name="Rectangle 2413" width="38.046" height="6.002" transform="translate(70.644 94.639)" fill="#fff"/>
    <rect id="Rectangle_2414" data-name="Rectangle 2414" width="22.144" height="6.002" transform="translate(39.618 94.639)" fill="#fff"/>
    <g id="Group_7133" data-name="Group 7133" transform="translate(111.401)">
      <g id="Group_7132" data-name="Group 7132" transform="translate(0)" clip-path="url(#clip-path-4)">
        <rect id="Rectangle_2415" data-name="Rectangle 2415" width="70.401" height="70.401" transform="matrix(0.801, -0.598, 0.598, 0.801, -24.113, 18)" fill="url(#linear-gradient)"/>
      </g>
    </g>
    <g id="Group_7135" data-name="Group 7135">
      <g id="Group_7134" data-name="Group 7134" clip-path="url(#clip-path)">
        <path id="Path_2542" data-name="Path 2542" d="M363.3,54.77a1.789,1.789,0,0,1-1.265-.524l-5.168-5.168a1.789,1.789,0,1,1,2.53-2.529l3.9,3.9,12.279-12.279a1.789,1.789,0,1,1,2.529,2.529L364.569,54.246a1.789,1.789,0,0,1-1.265.524" transform="translate(-230.939 -21.059)" fill="#fff"/>
      </g>
    </g>
  </g>
</svg>
