<svg viewBox="0 0 73 90" fill="none" xmlns="http://www.w3.org/2000/svg">
<mask id="mask0_2_3704" style="mask-type:alpha" maskUnits="userSpaceOnUse" x="0" y="0" width="73" height="90">
<rect width="73" height="89.5122" fill="url(#paint0_linear_2_3704)"/>
</mask>
<g mask="url(#mask0_2_3704)">
<path d="M37.7447 89.3138C36.9711 89.5915 35.96 89.5666 35.2611 89.3138L30.9927 87.7666C12.129 80.9246 -0.0114813 64.3933 8.14782e-06 46.0849L0.0191572 13.5391C0.0210721 11.4691 1.88427 10.19 4.07876 10.4925C15.5433 12.0742 26.3721 9.85869 33.6794 1.36034C34.4013 0.5197 35.3798 0.0179948 36.4579 0.00267554C37.6566 -0.0164735 38.6236 0.540764 39.3915 1.42736C43.7671 6.48463 49.9541 9.70933 57.0259 10.6323C61.0836 11.1627 64.9919 11.023 69.0496 10.4887C71.1847 10.2072 73 11.5342 73 13.5334L72.9923 46.4583C72.9866 64.7686 60.5091 81.1621 41.6626 87.9121L37.7447 89.3138ZM37.76 82.8798C54.7778 77.3725 66.3304 62.9743 66.3419 46.6478L66.361 16.804C54.8735 17.616 44.625 15.1726 36.5019 7.52634C28.4306 15.1228 18.2969 17.6255 6.64856 16.804L6.65239 46.4583C6.65622 62.8862 18.1916 77.4031 35.3147 82.8893C36.3526 83.2206 36.5785 83.2627 37.76 82.8798Z" fill="url(#paint1_linear_2_3704)"/>
<path d="M24.6832 49.8514C23.4941 48.5646 23.8273 46.6439 24.936 45.6616C26.1462 44.5911 27.996 44.6658 29.1201 45.876L34.229 51.3737L43.3899 31.5717C44.1157 29.9996 45.9521 29.45 47.3729 30.1336C48.8646 30.8517 49.4946 32.5808 48.7574 34.1779L37.8137 57.8652C37.3829 58.7959 36.5671 59.4048 35.8165 59.5772C34.7212 59.8261 33.6469 59.5599 32.9097 58.7614L24.6832 49.8514Z" fill="url(#paint2_linear_2_3704)"/>
</g>
<defs>
<linearGradient id="paint0_linear_2_3704" x1="36.5" y1="0" x2="36.5" y2="89.5123" gradientUnits="userSpaceOnUse">
<stop offset="1" stop-color="#455FF6"/>
<stop stop-color="#455FF6"/>
</linearGradient>
<linearGradient id="paint1_linear_2_3704" x1="36.5" y1="0.00219727" x2="36.5" y2="89.5129" gradientUnits="userSpaceOnUse">
<stop offset="1" stop-color="#455FF6"/>
<stop stop-color="#455FF6"/>
</linearGradient>
<linearGradient id="paint2_linear_2_3704" x1="36.5002" y1="29.8447" x2="36.5002" y2="59.6672" gradientUnits="userSpaceOnUse">
<stop offset="1" stop-color="#455FF6"/>
<stop stop-color="#455FF6"/>
</linearGradient>
</defs>
</svg>
