<svg viewBox="0 0 97 97" fill="none" xmlns="http://www.w3.org/2000/svg">
<mask id="mask0_1_2010" style="mask-type:alpha" maskUnits="userSpaceOnUse" x="0" y="0" width="97" height="97">
<path d="M0 0H96.307V96.313H0V0Z" fill="black"/>
</mask>
<g mask="url(#mask0_1_2010)">
<path d="M28.879 89.8947H38.506V63.5227C38.506 62.7257 40.02 61.1707 40.901 61.1047C45.256 61.3527 50.802 60.4587 55.034 61.0337C56.072 61.1747 57.759 62.4657 57.759 63.5227V89.8947H67.385V76.3577C67.385 75.5607 68.9 74.0067 69.781 73.9397C74.135 74.1887 79.682 73.2937 83.913 73.8687C84.951 74.0097 86.638 75.3007 86.638 76.3577V89.8947H96.265V96.3127H0V89.8947H9.626V37.8517C9.626 37.0547 11.141 35.5007 12.022 35.4347C16.376 35.6827 21.923 34.7877 26.154 35.3627C27.192 35.5037 28.879 36.7947 28.879 37.8517V89.8947ZM16.044 89.8947H22.462V41.7627H16.044V89.8947ZM44.924 89.8947H51.342V67.4327H44.924V89.8947ZM80.221 80.2687H73.803V89.8947H80.221V80.2687Z" fill="#455FF6"/>
<path d="M58.9218 12.9438C61.2088 12.7668 63.2888 12.7228 64.0868 15.2798C64.6678 20.1518 63.6178 25.8658 64.1718 30.6368C64.2988 31.7308 64.8648 32.0548 65.8718 32.1468C70.4908 32.5658 76.2248 31.5448 80.7038 32.1548C85.2228 32.7698 83.0488 40.6048 81.9778 43.4208C75.7578 59.7698 53.5948 62.9618 43.0358 48.9658C32.5118 35.0168 41.4998 14.2928 58.9218 12.9438ZM57.7588 19.7028C46.2038 22.1668 41.0018 35.5518 48.2498 45.1558C56.4718 56.0498 74.1548 51.8918 76.6108 38.5548H64.6778C61.8378 38.5548 57.7588 34.4698 57.7588 31.6358V19.7028Z" fill="#455FF6"/>
<path d="M73.1489 0.0967285C75.7569 -0.341271 80.1099 0.791729 82.5619 1.81873C89.0839 4.55173 94.2229 10.5867 95.7319 17.5287C96.3649 20.4427 97.3489 25.3567 93.1639 25.7277C89.3129 26.0687 81.7699 26.0607 77.9179 25.7157C74.1029 25.3747 70.9389 22.2217 70.5969 18.3957C70.2529 14.5417 70.2449 7.00173 70.5859 3.14873C70.7159 1.68373 71.6359 0.350729 73.1489 0.0967285ZM89.4459 19.3017C88.4029 13.1327 83.1809 7.91073 77.0119 6.86773V18.1987C77.0119 18.4347 77.8799 19.3017 78.1149 19.3017H89.4459Z" fill="#455FF6"/>
<path d="M0 0.0480957H44.924V6.46609H0V0.0480957Z" fill="#455FF6"/>
<path d="M0 12.8831H28.879V19.3011H0V12.8831Z" fill="#455FF6"/>
</g>
</svg>
