<svg xmlns="http://www.w3.org/2000/svg" xmlns:xlink="http://www.w3.org/1999/xlink" viewBox="0 0 201.311 74.859">
  <defs>
    <clipPath id="clip-path">
      <rect id="Rectangle_2523" data-name="Rectangle 2523" width="33.282" height="33.244" fill="#455ff6"/>
    </clipPath>
  </defs>
  <g id="Group_8636" data-name="Group 8636" transform="translate(0 -6.763)">
    <rect id="Rectangle_2606" data-name="Rectangle 2606" width="201.311" height="68.734" rx="34.367" transform="translate(0 12.888)" fill="#fff" opacity="0.716"/>
    <text id="_10x" data-name="10x" transform="translate(57.931 57.488)" fill="#455ff6" font-size="29" font-family="AreaNormal-Black, Area Normal" font-weight="800"><tspan x="-24.302" y="0">10x</tspan></text>
    <text id="Better_ROI" data-name="Better
ROI" transform="translate(97.665 44.023)" font-size="14" font-family="AreaNormal-Medium, Area Normal" font-weight="500"><tspan x="0" y="0">Better</tspan><tspan x="0" y="17">ROI</tspan></text>
    <g id="Group_7446" data-name="Group 7446" transform="translate(150.254 6.763)">
      <g id="Group_7305" data-name="Group 7305" clip-path="url(#clip-path)">
        <path id="Path_2615" data-name="Path 2615" d="M17.655,0a1.434,1.434,0,0,1,1.368,1l.748,2.359a1.45,1.45,0,0,0,.936.933,12.918,12.918,0,0,1,1.782.739,1.452,1.452,0,0,0,1.325,0l2.2-1.141a1.436,1.436,0,0,1,1.675.259l1.434,1.433a1.431,1.431,0,0,1,.259,1.673L28.239,9.463a1.448,1.448,0,0,0,0,1.322,12.907,12.907,0,0,1,.734,1.771,1.449,1.449,0,0,0,.935.936l2.372.75a1.434,1.434,0,0,1,1,1.366v2.026a1.434,1.434,0,0,1-1,1.366l-2.382.753a1.45,1.45,0,0,0-.934.933,12.874,12.874,0,0,1-.731,1.756,1.448,1.448,0,0,0,0,1.324l1.152,2.219a1.432,1.432,0,0,1-.259,1.673l-1.434,1.433a1.436,1.436,0,0,1-1.675.259L23.789,28.2a1.455,1.455,0,0,0-1.324,0,12.894,12.894,0,0,1-1.749.725,1.45,1.45,0,0,0-.935.933l-.757,2.389a1.434,1.434,0,0,1-1.368,1H15.627a1.434,1.434,0,0,1-1.368-1L13.5,29.855a1.45,1.45,0,0,0-.935-.933,12.883,12.883,0,0,1-1.749-.725,1.454,1.454,0,0,0-1.324,0L7.266,29.351a1.436,1.436,0,0,1-1.675-.259L4.157,27.659A1.432,1.432,0,0,1,3.9,25.986L5.05,23.768a1.448,1.448,0,0,0,0-1.324,12.91,12.91,0,0,1-.731-1.756,1.449,1.449,0,0,0-.934-.933L1,19a1.434,1.434,0,0,1-1-1.366V15.609a1.434,1.434,0,0,1,1-1.366l2.372-.75a1.449,1.449,0,0,0,.935-.936,12.865,12.865,0,0,1,.734-1.771,1.448,1.448,0,0,0,0-1.322L3.9,7.258a1.432,1.432,0,0,1,.259-1.673L5.591,4.152a1.436,1.436,0,0,1,1.675-.259l2.2,1.141a1.453,1.453,0,0,0,1.326,0,12.9,12.9,0,0,1,1.782-.739,1.449,1.449,0,0,0,.936-.933L14.259,1a1.434,1.434,0,0,1,1.368-1ZM16.641,8.452a8.17,8.17,0,1,0,8.18,8.17,8.175,8.175,0,0,0-8.18-8.17" fill="#455ff6"/>
      </g>
    </g>
  </g>
</svg>
