<svg xmlns="http://www.w3.org/2000/svg" xmlns:xlink="http://www.w3.org/1999/xlink" viewBox="0 0 174.793 167.362">
  <defs>
    <linearGradient id="linear-gradient" x1="0.5" x2="0.5" y2="1" gradientUnits="objectBoundingBox">
      <stop offset="0" stop-color="#4fe3f2"/>
      <stop offset="1" stop-color="#49fbdf"/>
    </linearGradient>
    <clipPath id="clip-path">
      <rect id="Rectangle_2522" data-name="Rectangle 2522" width="174.793" height="167.362" fill="url(#linear-gradient)"/>
    </clipPath>
  </defs>
  <g id="Group_8527" data-name="Group 8527" transform="translate(-1205 -625.486)">
    <rect id="Rectangle_2990" data-name="Rectangle 2990" width="78" height="68" transform="translate(1256 682.486)" fill="#fff"/>
    <g id="Group_8525" data-name="Group 8525" transform="translate(1205 625.486)">
      <g id="Group_7302" data-name="Group 7302" clip-path="url(#clip-path)">
        <path id="Path_2614" data-name="Path 2614" d="M169.064,72.753c-5.227-4.708-9.9-6.109-14.044-11.125.324-9.153,10.268-21.481,2.132-30.287-2.884-3.121-7.266-4.321-11.466-4.414-7.046-1.142-8.817,1.12-16.392-.74-5.005-7.112-3.612-16.827-11.218-23.431C110.393-3.914,101.227,3,94.952,7.983a25.849,25.849,0,0,1-7.634,4.541c-2.91-.924-5.345-2.783-7.786-4.662C75.307,4.606,69.1-.377,63.424.036a13.156,13.156,0,0,0-10.749,7.5c-3.989,7.793-3.129,12.089-7.156,18.388-.74.936-2.7.45-3.713.758-1.956.594-3.559.269-5.447.065-5.667-.612-14.684,0-18.794,4.556C9.3,40.469,19.347,52.2,19.619,61.627a15.417,15.417,0,0,1-4.28,4.046C9.151,70.1-.552,75.356.025,84.318c.707,10.989,14.238,14.568,19.669,21.436a30.91,30.91,0,0,1-2.421,9.746c-2.543,6.672-5.016,15.025.493,20.747,3.087,3.207,7.545,4.058,11.9,4.352a32.861,32.861,0,0,0,6.686.05,14.037,14.037,0,0,1,5.832.049c1.069.279,2.815-.162,3.615.928,3.974,5.421,3.513,16.821,10.89,23.02,1.93,1.622,4.75,2.974,7.389,2.64a27.764,27.764,0,0,0,15.291-7.477,23.621,23.621,0,0,1,8.183-4.959c7.4,2.739,14.833,12.783,23.4,12.508a13.013,13.013,0,0,0,11.109-7.506c4.126-8.151,3.12-11.992,7.162-18.384.737-.932,2.693-.456,3.712-.758a12.352,12.352,0,0,1,5.444-.061,37.211,37.211,0,0,0,7.366-.078c4.173-.315,8.33-1.188,11.284-4.3,8.417-8.868-1.407-20.9-2.008-30.5,4.669-5.611,12-7.838,16.776-14.072,5.221-6.808,3.178-13.616-2.733-18.942M115.339,80.46,82.995,104.723a6.067,6.067,0,0,1-8.11-.577L59.021,88.3a6.094,6.094,0,0,1-.22-8.649,6,6,0,0,1,8.505-.227l12.529,12.45L107.942,70.8a6.082,6.082,0,1,1,7.4,9.656" transform="translate(0 -0.001)" fill="url(#linear-gradient)"/>
      </g>
    </g>
  </g>
</svg>
