<svg viewBox="0 0 106 114" fill="none" xmlns="http://www.w3.org/2000/svg">
<mask id="mask0_256_4007" style="mask-type:alpha" maskUnits="userSpaceOnUse" x="0" y="0" width="106" height="114">
<path d="M0 0H105.112V113.473H0V0Z" fill="black"/>
</mask>
<g mask="url(#mask0_256_4007)">
<path d="M87.7361 23.1688H99.2032C101.714 23.1688 105.008 26.7612 105.105 29.2905L105.112 94.7621C104.898 98.4092 101.462 101.323 97.8673 101.323H75.0444C75.0087 101.727 75.2827 102.029 75.4549 102.36C76.3631 104.102 80.0346 109.389 80.114 110.844C80.1735 111.936 79.2478 113.219 78.1773 113.473H26.9344C25.7487 113.19 24.9063 111.853 25.0351 110.671C25.2002 109.159 28.7275 104.143 29.6568 102.36C29.829 102.029 30.103 101.727 30.0673 101.323H7.24464C3.68077 101.323 0.185913 98.3887 0 94.7621L0.0107086 29.2947C0.0348028 26.7705 3.44756 23.1688 5.90845 23.1688H17.3755V17.0456C17.3755 16.9403 18.1968 15.5958 18.3723 15.3703C22.1968 10.456 28.6677 5.92148 32.7343 1.00922L34.6847 0.0650845L83.6175 0.0115417C84.9582 -0.194003 87.7361 2.40015 87.7361 3.46357V23.1688ZM20.9382 18.9383V82.5079C20.9382 82.5463 21.2815 82.9006 21.3868 82.9497L82.9619 83.0773L83.9724 82.7518L84.0619 4.02041C84.0012 3.92017 83.4572 3.57482 83.3944 3.57482H36.3017V14.8191C36.3017 15.9245 35.1895 17.5227 34.2835 18.1447C34.052 18.3039 32.7765 18.9383 32.6278 18.9383H20.9382ZM32.7391 6.2466L23.3875 15.3757H32.1825C32.2331 15.3757 32.7391 14.6802 32.7391 14.5963V6.2466ZM17.3755 26.7315H6.35375C5.60326 26.7315 3.57071 28.5862 3.57071 29.292V88.8536H101.541V29.292C101.541 28.5862 99.5084 26.7315 98.7579 26.7315H87.7361V83.1757C87.7361 84.5524 84.7131 86.9907 83.1811 86.6364L21.4942 86.6278C20.0872 86.6858 17.3755 84.5164 17.3755 83.1757V26.7315ZM101.541 92.416H3.57071C3.24618 96.2271 4.42234 97.5219 8.12453 97.7706L97.2079 97.7688C100.773 97.5002 101.847 95.9894 101.541 92.416ZM75.7125 110.006L70.667 101.358L34.8415 101.31L34.1832 101.542L29.3992 110.006H75.7125Z" fill="white"/>
<path d="M58.7909 23.3886C62.8774 24.9996 66.3053 28.7732 67.5879 32.9632C68.4211 35.6856 69.2906 39.3086 65.3677 39.6546C57.2093 40.3741 48.0133 39.0906 39.7439 39.6546C36.1345 39.3366 36.5991 36.3016 37.302 33.6322C38.4767 29.1736 42.0207 25.0779 46.3207 23.3886C39.7112 16.9629 44.389 5.98687 53.7531 6.94172C61.7244 7.75467 64.6098 18.0762 58.7909 23.3886ZM58.3387 16.2415C58.3387 13.0462 55.7484 10.4559 52.5531 10.4559C49.3578 10.4559 46.7675 13.0462 46.7675 16.2415C46.7675 19.4368 49.3578 22.0271 52.5531 22.0271C55.7484 22.0271 58.3387 19.4368 58.3387 16.2415ZM64.5794 36.083C62.5168 22.2056 42.5936 22.2074 40.5322 36.083H64.5794Z" fill="white"/>
<path d="M49.1515 54.1655L76.0518 54.1138C77.9775 54.294 78.3821 56.5131 76.821 57.5649H48.7759C47.3956 56.6856 47.5033 54.6519 49.1515 54.1655Z" fill="white"/>
<path d="M48.9279 71.9773L76.8207 72.0478C78.1314 72.9387 78.1947 74.5253 76.7678 75.3246L49.773 75.4939C47.5914 75.4231 47.1039 73.0365 48.9279 71.9773Z" fill="white"/>
<path d="M48.9299 46.8184L67.5723 46.7839C69.8738 47.386 69.1584 50.2862 66.9176 50.3332C61.4821 49.8864 55.0918 50.9326 49.7729 50.3332C47.2906 50.0533 47.3385 47.1834 48.9299 46.8184Z" fill="white"/>
<path d="M49.3804 64.414C54.8555 64.851 61.8184 63.6379 67.1201 64.381C69.4876 64.7129 69.6491 67.6661 67.3678 67.9285C61.7381 68.5757 54.8802 67.4463 49.1187 67.9094C47.2256 67.6123 47.5106 64.5755 49.3804 64.414Z" fill="white"/>
<path d="M37.3607 66.6254C36.2051 66.8196 35.0096 68.7299 34.6021 68.8004C34.3138 68.8501 33.5746 67.6374 32.0757 68.2635C29.3575 69.3986 33.212 73.4328 34.8338 73.2665C35.736 73.174 39.3585 69.4537 39.4156 68.4631C39.4709 67.5053 38.3159 66.4648 37.3607 66.6254Z" fill="white"/>
<path d="M36.9042 49.0428C36.3819 49.2011 34.8479 51.2185 34.6316 51.2176C33.211 49.3281 30.4122 50.6735 31.3498 52.9491C31.4961 53.304 33.3311 55.1387 33.686 55.2853C34.3577 55.5626 34.855 55.5355 35.4946 55.2026C35.8613 55.012 38.9567 51.8842 39.1447 51.5052C39.9169 49.9492 38.5168 48.5541 36.9042 49.0428Z" fill="white"/>
<path d="M37.3607 66.6254C38.3159 66.4648 39.4709 67.5053 39.4156 68.4631C39.3585 69.4537 35.736 73.174 34.8338 73.2665C33.212 73.4328 29.3575 69.3986 32.0757 68.2635C33.5746 67.6374 34.3138 68.8501 34.6021 68.8004C35.0096 68.7299 36.2051 66.8196 37.3607 66.6254Z" fill="white"/>
<path d="M36.9042 49.0428C38.5168 48.5541 39.9169 49.9492 39.1447 51.5052C38.9567 51.8842 35.8613 55.012 35.4946 55.2026C34.855 55.5355 34.3577 55.5626 33.686 55.2853C33.3311 55.1387 31.4961 53.304 31.3498 52.9491C30.4122 50.6735 33.211 49.3281 34.6316 51.2176C34.8479 51.2185 36.3819 49.2011 36.9042 49.0428Z" fill="white"/>
</g>
</svg>
