<svg xmlns="http://www.w3.org/2000/svg" xmlns:xlink="http://www.w3.org/1999/xlink" viewBox="0 0 156.086 93.075">
  <defs>
    <linearGradient id="linear-gradient" x1="0.5" x2="0.5" y2="1" gradientUnits="objectBoundingBox">
      <stop offset="0" stop-color="#455ff6"/>
      <stop offset="1" stop-color="#fff"/>
    </linearGradient>
  </defs>
  <g id="Group_8597" data-name="Group 8597" transform="translate(-3937.108 -1185.536)">
    <g id="Group_8576" data-name="Group 8576" transform="translate(3937.108 1185.536)" opacity="0.5">
      <g id="Group_7251" data-name="Group 7251" transform="translate(0 0)">
        <g id="Group_7308" data-name="Group 7308">
          <rect id="Rectangle_2490" data-name="Rectangle 2490" width="155.102" height="92.091" rx="4" transform="translate(0.492 0.492)" fill="url(#linear-gradient)"/>
          <path id="Path_2590" data-name="Path 2590" d="M936.94,498.209H795.868a7.516,7.516,0,0,0-7.507,7.507v78.061a7.516,7.516,0,0,0,7.507,7.507H936.94a7.516,7.516,0,0,0,7.507-7.507V505.716a7.516,7.516,0,0,0-7.507-7.507m6.524,85.568a6.524,6.524,0,0,1-6.524,6.524H795.868a6.524,6.524,0,0,1-6.524-6.524V505.716a6.524,6.524,0,0,1,6.524-6.523H936.94a6.524,6.524,0,0,1,6.524,6.523Z" transform="translate(-788.361 -498.209)" fill="url(#linear-gradient)"/>
        </g>
      </g>
    </g>
    <rect id="Rectangle_3020" data-name="Rectangle 3020" width="9.246" height="9.246" transform="translate(3951.945 1204.765)" fill="#75fade"/>
    <path id="Path_3221" data-name="Path 3221" d="M912.449,518.77a3.244,3.244,0,0,1,3.093,2.261l1.691,5.333a3.278,3.278,0,0,0,2.116,2.11,29.2,29.2,0,0,1,4.029,1.671,3.283,3.283,0,0,0,3,.005l4.976-2.579a3.247,3.247,0,0,1,3.788.585l3.241,3.239a3.235,3.235,0,0,1,.586,3.782l-2.589,4.985a3.275,3.275,0,0,0,0,2.989,29.153,29.153,0,0,1,1.66,4,3.277,3.277,0,0,0,2.114,2.117l5.362,1.7a3.24,3.24,0,0,1,2.263,3.089v4.58a3.24,3.24,0,0,1-2.263,3.089l-5.385,1.7a3.277,3.277,0,0,0-2.111,2.11,29.212,29.212,0,0,1-1.653,3.97,3.271,3.271,0,0,0,0,2.992l2.6,5.016a3.235,3.235,0,0,1-.586,3.783l-3.241,3.239a3.248,3.248,0,0,1-3.788.585l-5.035-2.61a3.29,3.29,0,0,0-2.992,0,29.094,29.094,0,0,1-3.954,1.638,3.279,3.279,0,0,0-2.114,2.109l-1.712,5.4a3.244,3.244,0,0,1-3.093,2.261h-4.585a3.243,3.243,0,0,1-3.092-2.261l-1.712-5.4a3.28,3.28,0,0,0-2.115-2.109,29.089,29.089,0,0,1-3.954-1.638,3.288,3.288,0,0,0-2.993,0l-5.035,2.61a3.248,3.248,0,0,1-3.788-.585l-3.241-3.239a3.237,3.237,0,0,1-.586-3.783l2.606-5.016a3.273,3.273,0,0,0-.005-2.992,29.167,29.167,0,0,1-1.653-3.97,3.277,3.277,0,0,0-2.112-2.11l-5.385-1.7a3.241,3.241,0,0,1-2.263-3.089v-4.58a3.241,3.241,0,0,1,2.263-3.089l5.363-1.7a3.278,3.278,0,0,0,2.113-2.116,29.05,29.05,0,0,1,1.66-4,3.275,3.275,0,0,0,0-2.989l-2.59-4.986a3.237,3.237,0,0,1,.586-3.783l3.241-3.239a3.247,3.247,0,0,1,3.788-.585l4.978,2.579a3.282,3.282,0,0,0,3,0,29.164,29.164,0,0,1,4.028-1.672,3.278,3.278,0,0,0,2.115-2.11l1.692-5.334a3.243,3.243,0,0,1,3.092-2.261Zm-2.292,19.107a18.47,18.47,0,1,0,18.492,18.471,18.481,18.481,0,0,0-18.492-18.471" transform="translate(3100.143 675.455)" fill="#fff"/>
  </g>
</svg>
