<svg width="136" height="110" viewBox="0 0 136 110" fill="none" xmlns="http://www.w3.org/2000/svg">
<mask id="mask0_256_4020" style="mask-type:alpha" maskUnits="userSpaceOnUse" x="0" y="0" width="136" height="110">
<path d="M0 0H135.369V109.342H0V0Z" fill="black"/>
</mask>
<g mask="url(#mask0_256_4020)">
<path d="M135.369 74.4909V80.3131C132.702 103.958 106.646 117.253 86.1676 104.241C84.4013 103.119 82.9843 101.651 81.2342 100.706C58.1805 100.422 35.0334 101.203 12.0316 100.307C0.702196 96.9754 -2.95843 86.8071 2.47241 76.4305C14.5962 53.2685 29.7772 30.9618 42.1026 7.82147C47.2343 -1.40682 60.4845 -2.74924 67.3476 5.29467L91.9697 47.3813C96.3158 46.1028 100.749 45.1147 105.329 45.3827C120.691 46.281 134.115 59.0653 135.369 74.4909ZM14.2947 96.4564H77.6765L75.1182 92.2107L14.8522 92.1937C12.5054 91.8211 10.3806 90.6756 9.25167 88.5317C7.0618 84.3736 9.26087 81.8083 11.2054 78.2827C23.5781 55.8494 37.2632 34.1035 49.6674 11.6811C51.7339 8.61695 55.7997 7.56232 59.0735 9.3343C61.3995 10.5933 63.6081 15.2986 65.0195 17.6794C71.4031 28.4488 77.2738 39.5509 83.8109 50.2284C84.0428 50.6074 84.2418 51.02 84.2966 51.4665C84.495 51.6111 88.6021 49.4796 87.7985 48.6399L64.5539 8.61766C59.6212 2.27184 50.2504 2.90186 45.9658 9.56729L5.11376 80.3944C1.8735 87.3417 6.73548 95.6571 14.2947 96.4564ZM73.1776 87.9876C69.5742 76.5312 71.8094 65.3786 79.3929 56.2267C79.8851 55.6327 81.2063 54.8447 81.0843 54.0414L58.0497 14.0633C57.0481 12.4307 54.5036 12.204 53.3733 13.7989L12.8667 83.9115C11.8276 85.3706 13.5331 87.9876 15.0884 87.9876H73.1776ZM131.132 77.3501C131.132 62.0478 118.728 49.6429 103.425 49.6429C88.1231 49.6429 75.7182 62.0478 75.7182 77.3501C75.7182 92.6523 88.1231 105.057 103.425 105.057C118.728 105.057 131.132 92.6523 131.132 77.3501Z" fill="white"/>
<path d="M55.1371 30.0946C59.305 29.8941 62.8235 33.1079 62.855 37.3098C62.8886 41.8087 62.2837 46.5607 62.0655 51.0723C61.9089 54.3129 62.1861 58.3943 61.6791 61.5362C60.529 68.6634 50.0743 68.674 49.364 60.3282C48.9164 55.0692 48.9977 49.237 48.8414 43.9133C48.6855 38.5829 47.1426 30.4796 55.1371 30.0946ZM55.3923 34.3202C51.3605 34.6638 52.9882 41.1663 53.0759 43.9133C53.2534 49.4725 53.4669 55.0207 53.6111 60.5799C54.0131 63.2213 57.2601 63.1756 57.5398 60.5728C57.3262 52.9998 58.8023 44.7774 58.5979 37.3345C58.5495 35.5657 57.1926 34.1667 55.3923 34.3202Z" fill="white"/>
<path d="M62.6113 75.601C62.6113 79.4749 59.4707 82.6151 55.5969 82.6151C51.7231 82.6151 48.5825 79.4749 48.5825 75.601C48.5825 71.7272 51.7231 68.5867 55.5969 68.5867C59.4707 68.5867 62.6113 71.7272 62.6113 75.601ZM58.3867 75.5834C58.3867 74.0433 57.1384 72.7953 55.5987 72.7953C54.0586 72.7953 52.8102 74.0433 52.8102 75.5834C52.8102 77.1234 54.0586 78.3714 55.5987 78.3714C57.1384 78.3714 58.3867 77.1234 58.3867 75.5834Z" fill="white"/>
<path d="M116.9 69.1443C126.118 70.2106 132.83 77.9412 120.492 81.9759C112.077 84.7275 88.8712 85.4389 81.7787 79.7835C74.9814 74.364 85.1714 69.4462 90.0683 69.1524C91.4793 64.7027 91.7922 56.243 98.4166 56.7811C100.422 56.9437 102.475 58.9126 103.484 58.8978C104.872 58.8773 106.4 56.4565 109.496 56.8256C115.466 57.5377 115.11 64.8253 116.9 69.1443ZM97.7212 61.035C97.3839 61.0947 96.9562 61.3917 96.7235 61.6484C96.0387 62.4046 93.8913 70.7957 93.4889 72.4471C93.4253 72.7084 93.1315 72.7349 93.5462 73.0443C100.066 74.0876 106.81 74.2739 113.293 72.9177C113.511 72.6405 113.345 72.3824 113.293 72.1024C112.887 69.9203 111.401 64.3431 110.574 62.3685C109.331 59.4037 107.103 62.1956 105.272 62.7864C103.783 63.2665 102.704 63.2301 101.237 62.7079C100.065 62.2911 98.8766 60.8299 97.7212 61.035ZM89.6763 75.9882C89.1251 75.4077 88.9522 74.4524 88.7881 73.6951C88.1454 73.8567 83.4036 75.4346 84.0298 76.3386C91.1898 79.8875 100.342 80.1965 108.256 79.7963C112.971 79.558 119.04 78.7066 122.926 75.9461C121.553 74.7395 119.728 74.2884 118.039 73.6926C117.759 75.6039 116.957 76.6161 115.056 77.0701C110.34 78.1958 102.783 78.3474 97.9245 77.9285C96.0741 77.769 90.8691 77.244 89.6763 75.9882Z" fill="white"/>
<path d="M104.616 87.6659C104.692 87.6214 105.025 86.8864 105.479 86.5462C106.813 85.5468 112.955 84.8895 114.861 84.8153C120.001 84.6159 120.951 87.9746 119.569 92.4335C117.328 99.6671 105.561 99.8548 104.254 91.9424L102.59 91.9944C101.346 99.4549 90.4247 99.7823 87.6051 93.276C86.4473 90.6035 85.8483 85.4365 89.7349 84.8291C91.2219 84.5968 99.6275 85.4902 100.793 86.1747C101.387 86.524 101.963 87.5199 102.474 87.6687C102.85 87.778 104.339 87.8271 104.616 87.6659ZM98.5852 89.8409L90.9101 89.0479C90.6021 94.4211 98.6167 95.7165 98.5852 89.8409ZM115.785 89.0458L108.377 89.842C107.882 95.6635 116.556 94.4222 115.785 89.0458Z" fill="white"/>
</g>
</svg>
