<svg viewBox="0 0 93 93" fill="none" xmlns="http://www.w3.org/2000/svg">
<mask id="mask0_256_4034" style="mask-type:alpha" maskUnits="userSpaceOnUse" x="0" y="0" width="93" height="93">
<path d="M0 0H92.387V92.3409H0V0Z" fill="black"/>
</mask>
<g mask="url(#mask0_256_4034)">
<path d="M12.2118 12.7533H19.5338C18.9673 4.08658 30.477 4.10085 30.1554 12.7566L40.9376 12.7543C40.2518 4.11323 52.1211 4.09432 51.4494 12.7543H62.3404C61.6819 4.12922 73.5054 4.08039 72.853 12.7533H80.175V5.14981C80.175 4.02331 81.6378 2.01137 82.5262 1.30542C86.3998 -1.77216 91.9193 0.950206 92.3553 5.7361L92.3868 86.0758C92.3354 91.1411 86.6522 94.2402 82.5264 91.0379C81.6387 90.349 80.175 88.3047 80.175 87.1937V79.2147H63.0903V81.9369C63.0903 82.1974 62.4992 83.4893 62.3079 83.7829C60.21 87.0025 55.1689 86.8024 53.3609 83.4055C53.2607 83.2169 52.7645 82.0162 52.7645 81.9369V79.2147L41.6866 79.2137C42.2149 87.1306 30.8724 87.1523 31.3617 79.2147H12.2118V87.006C12.2118 88.2561 10.8566 90.2854 9.86492 91.0424C5.73788 94.1927 0.0268213 91.1736 0 86.0758L0.0316354 5.7361C0.42725 0.894329 5.9399 -1.69531 9.86492 1.30112C10.8279 2.0363 12.2118 4.13524 12.2118 5.33756V12.7533ZM24.176 9.22992C23.442 9.38002 22.7299 10.0882 22.5807 10.8251C22.3692 11.8696 22.3977 16.2115 22.5335 17.3573C22.8186 19.7621 26.5359 19.7611 27.0041 17.6891C27.2087 16.7831 27.1731 12.1961 27.0479 11.1531C26.8698 9.67213 25.6003 8.93901 24.176 9.22992ZM66.9817 9.22992C66.2477 9.38002 65.5354 10.0882 65.3863 10.8251C65.1747 11.8696 65.2032 16.2115 65.339 17.3573C65.6241 19.7621 69.3414 19.7611 69.8096 17.6891C70.0144 16.7831 69.9788 12.1961 69.8534 11.1531C69.6755 9.67213 68.4059 8.93901 66.9817 9.22992ZM19.5338 15.5696H12.2118V33.9685H30.2352C29.5207 25.2706 41.4213 25.2519 40.7478 33.9693L51.5298 33.9718C51.1407 25.2775 62.7303 25.2326 62.1516 33.9685H80.175V15.5696H72.853C73.5374 24.2755 61.6662 24.2925 62.3404 15.5685L51.5584 15.5663C51.7611 19.308 49.2779 22.74 45.244 22.0569C42.0045 21.5083 40.7858 18.5503 40.8284 15.5663L30.0464 15.5685C30.7144 24.2739 18.8518 24.3204 19.5338 15.5696ZM56.8303 30.2785C55.6424 30.3124 54.7401 31.203 54.633 32.3637C54.5178 33.6121 54.459 37.5962 54.6849 38.7129C55.1294 40.9107 58.531 40.8975 59.0592 38.8551C59.2573 38.0897 59.2869 32.6398 59.1082 31.8489C58.9096 30.9702 57.6893 30.2539 56.8303 30.2785ZM30.2352 36.7846H12.2118V55.1835H19.5338C18.8153 46.4366 30.7264 46.4062 30.0464 55.1843L40.8284 55.1868C40.7304 51.6594 42.6153 48.4238 46.4828 48.6043C50.039 48.7703 51.6512 51.9427 51.5584 55.1868L62.3404 55.1843C61.6301 46.4198 73.5806 46.4423 72.853 55.1835H80.175V36.7846H62.1516C62.8115 45.4272 50.952 45.4714 51.639 36.7837L40.8568 36.7813C41.2672 45.4585 29.6006 45.4614 30.2352 36.7846ZM24.3686 51.4694C23.7053 51.5784 22.7271 52.4013 22.5772 53.0639C22.3726 53.9688 22.4082 58.5576 22.5334 59.5997C22.8463 62.2033 26.5457 62.1742 27.0005 59.9279C27.2121 58.8833 27.1836 54.5415 27.0478 53.3957C26.9034 52.1767 25.5544 51.2746 24.3686 51.4694ZM67.1725 51.4682C66.552 51.5889 65.5268 52.426 65.3827 53.0639C65.1774 53.9734 65.2139 58.5527 65.3389 59.5999C65.6416 62.1355 69.3431 62.2143 69.8062 59.9279C70.0176 58.8833 69.9891 54.5415 69.8533 53.3957C69.7123 52.2063 68.3454 51.2402 67.1725 51.4682ZM19.5338 57.9995H12.2118V76.2107H31.3617V73.4885C31.3617 73.2279 31.9528 71.9362 32.1442 71.6425C34.1559 68.5544 38.7231 68.5156 40.8307 71.5292C40.9883 71.7546 41.6876 73.1514 41.6876 73.3008V76.2107L52.7653 76.2116C52.2602 68.2553 63.6491 68.2334 63.0903 76.2107H80.175V57.9995H72.853C73.5054 66.5318 61.686 66.5332 62.3404 57.9987H51.4494C52.1092 66.5262 40.2551 66.5513 40.9375 57.9987L30.1554 57.9963C30.5131 66.5248 18.9663 66.5715 19.5338 57.9995ZM35.8125 72.3086C35.1366 72.4648 34.3439 73.4234 34.2223 74.0961C34.0272 75.1747 34.0363 79.1134 34.195 80.2301C34.5578 82.7835 38.3521 83.0084 38.8278 80.3914C39.0225 79.3211 39.0125 75.3662 38.8552 74.2557C38.6349 72.7019 37.3111 71.9621 35.8125 72.3086Z" fill="white"/>
</g>
</svg>
