<svg width="715" height="1240" viewBox="0 0 715 1240" fill="none" xmlns="http://www.w3.org/2000/svg">
<path d="M631.874 315.417C566.544 291.749 494.385 325.558 470.728 390.887L415.461 543.522L415.278 543.083L368.501 674.388L392.045 486.076L277.024 203.86C256.173 152.729 204.504 121.095 149.415 126.022C94.4046 130.885 49.0068 171.044 37.4572 225.046L-21.4472 486.076L-5.21255 686.892L-35.8534 567.907L-35.8929 568.084L-166.373 94.1804C-183.873 26.9337 -252.498 -13.3836 -319.809 4.06681C-387.066 21.5518 -427.408 90.2465 -409.923 157.503L-145.73 1145.7C-131.285 1201.26 -81.1523 1239.86 -23.9825 1239.86C-23.0633 1239.86 -22.1292 1239.85 -21.2001 1239.84C37.1063 1238.55 86.8926 1197.39 99.0896 1140.35L167.364 821.004L167.394 820.866L198.138 677.082L198.297 677.472L228.764 536.094L218.08 726.013L305.865 941.418C325.525 989.613 372.312 1020.32 424.885 1019.72C476.935 1018.69 522.965 985.718 540.702 936.762L707.344 476.562C731.001 411.233 697.218 339.074 631.874 315.417Z" fill="url(#paint0_linear_1_2707)"/>
<defs>
<linearGradient id="paint0_linear_1_2707" x1="150.446" y1="0" x2="150.446" y2="1239.86" gradientUnits="userSpaceOnUse">
<stop stop-color="#455FF6"/>
<stop offset="1" stop-color="white"/>
</linearGradient>
</defs>
</svg>
