<svg viewBox="0 0 90 90" fill="none" xmlns="http://www.w3.org/2000/svg">
<mask id="mask0_2_3712" style="mask-type:alpha" maskUnits="userSpaceOnUse" x="0" y="0" width="90" height="90">
<rect width="89.5134" height="89.5122" fill="url(#paint0_linear_2_3712)"/>
</mask>
<g mask="url(#mask0_2_3712)">
<path d="M89.5134 29.7371V88.6158C89.3037 88.8604 88.8747 89.5051 88.4349 89.5051L62.7791 89.5111C61.9501 89.5111 61.4211 88.8761 61.4211 88.0965L61.4236 73.437C61.4236 72.6406 62.0803 72.1477 62.6803 72.1321C63.4431 72.114 63.9901 72.6273 64.0395 73.4334L64.0528 86.8879L86.8914 86.8855V31.4674L64.0431 31.4698L64.0443 67.9774C64.0696 68.9016 63.5105 69.486 62.6827 69.4691C62.0513 69.4559 61.4223 68.9655 61.4223 68.1196L61.4211 30.2817C61.4211 29.4612 61.9405 28.8442 62.7803 28.8442L88.4337 28.8491C88.8759 28.8491 89.3025 29.4901 89.5134 29.7371Z" fill="url(#paint1_linear_2_3712)"/>
<path d="M89.5146 23.9511V25.3295C89.3037 25.5741 88.8747 26.2188 88.4349 26.2188L62.7803 26.2248C61.9537 26.2248 61.4115 25.5886 61.4284 24.8138C61.5079 21.2303 64.3733 18.3553 68.011 18.3589L83.0452 18.3697C86.4118 18.3721 88.8374 20.8471 89.5146 23.9511ZM86.6251 23.598C86.0202 21.8376 84.5249 21.0158 82.862 20.976L68.0158 20.9821C66.3072 20.9821 64.8504 22.0195 64.2998 23.6016L86.6251 23.598Z" fill="url(#paint2_linear_2_3712)"/>
<path d="M76.5769 -0.000976562C80.6292 0.771397 83.5427 4.20189 83.3186 8.28667C83.0897 12.4498 79.6604 15.6718 75.5925 15.726C71.4137 15.7827 67.9531 12.5727 67.6338 8.48549C67.3048 4.26816 70.2413 0.855743 74.3044 -0.000976562H76.5769ZM80.7063 7.86494C80.7063 4.97185 78.3614 2.62702 75.4684 2.62702C72.5753 2.62702 70.2304 4.97185 70.2304 7.86494C70.2304 10.758 72.5753 13.1029 75.4684 13.1029C78.3614 13.1029 80.7063 10.758 80.7063 7.86494Z" fill="url(#paint3_linear_2_3712)"/>
<path d="M30.7178 73.5228C30.7178 72.6685 31.2817 72.1901 31.8998 72.1383C32.6168 72.078 33.2072 72.5239 33.3373 73.3228L33.3434 86.8881L56.1808 86.8869L56.1723 51.1444L33.341 51.1468L33.3397 68.1354C33.2988 68.9391 32.7493 69.4525 32.0733 69.4729C31.3793 69.4934 30.7178 68.9922 30.7178 68.168V49.8383C30.7178 49.1177 31.2648 48.5225 32.0107 48.5225L57.5062 48.5237C58.2473 48.5237 58.8003 49.1032 58.8003 49.8563V88.0834C58.8003 88.869 58.2991 89.5076 57.4942 89.5076L32.0227 89.5089C31.2154 89.5089 30.7178 88.8497 30.7178 88.1063V73.5228Z" fill="url(#paint4_linear_2_3712)"/>
<path d="M28.0947 89.51H0.00244141V72.1238H28.0947V89.51ZM25.4727 74.747H2.62562V86.8868H25.4727V74.747Z" fill="url(#paint5_linear_2_3712)"/>
<path d="M28.079 68.1993C28.0814 68.9271 27.4657 69.5007 26.8042 69.5007H1.31224C0.5977 69.5007 -0.00598004 68.897 4.47102e-05 68.162C0.0313734 64.7327 2.75336 61.6673 6.29712 61.6649L21.6795 61.6516C25.2558 61.648 28.0718 64.629 28.079 68.1993ZM21.4229 64.2543L6.47786 64.2639C4.82226 64.2651 3.37029 65.3484 2.91361 66.8763L25.1871 66.8787C24.7148 65.2954 23.2255 64.2531 21.4229 64.2543Z" fill="url(#paint6_linear_2_3712)"/>
<path d="M58.7932 44.4604C58.8173 45.3521 58.1944 45.8992 57.4341 45.8992L32.0819 45.9004C31.3204 45.9004 30.7239 45.3376 30.7263 44.5617C30.7348 41.095 33.4989 38.0561 37.0692 38.0561L52.448 38.0549C55.9471 38.0549 58.6992 40.9685 58.7932 44.4604ZM52.3733 40.6673L37.2487 40.6576C35.5787 40.6564 34.1159 41.6939 33.6086 43.2772L55.9218 43.2688C55.3603 41.7385 54.0457 40.6685 52.3733 40.6673Z" fill="url(#paint7_linear_2_3712)"/>
<path d="M21.9061 51.1348C21.9061 55.4762 18.3876 58.9947 14.0474 58.9947C9.70716 58.9947 6.1875 55.4762 6.1875 51.1348C6.1875 46.7946 9.70716 43.2761 14.0474 43.2761C18.3876 43.2761 21.9061 46.7946 21.9061 51.1348ZM19.2829 51.1348C19.2829 48.2417 16.9381 45.8969 14.045 45.8969C11.1531 45.8969 8.80827 48.2417 8.80827 51.1348C8.80827 54.0279 11.1531 56.3727 14.045 56.3727C16.9381 56.3727 19.2829 54.0279 19.2829 51.1348Z" fill="url(#paint8_linear_2_3712)"/>
<path d="M52.6165 27.5332C52.6165 31.8735 49.0993 35.3931 44.7591 35.3931C40.4164 35.3931 36.8992 31.8735 36.8992 27.5332C36.8992 23.193 40.4164 19.6746 44.7591 19.6746C49.0993 19.6746 52.6165 23.193 52.6165 27.5332ZM49.9958 27.5332C49.9958 24.6402 47.6509 22.2953 44.7579 22.2953C41.8636 22.2953 39.5199 24.6402 39.5199 27.5332C39.5199 30.4263 41.8636 32.7712 44.7579 32.7712C47.6509 32.7712 49.9958 30.4263 49.9958 27.5332Z" fill="url(#paint9_linear_2_3712)"/>
</g>
<defs>
<linearGradient id="paint0_linear_2_3712" x1="44.7566" y1="23.1093" x2="44.7566" y2="89.5123" gradientUnits="userSpaceOnUse">
<stop offset="1" stop-color="#455FF6"/>
<stop stop-color="#455FF6"/>
</linearGradient>
<linearGradient id="paint1_linear_2_3712" x1="75.4672" y1="44.5066" x2="75.4672" y2="89.5112" gradientUnits="userSpaceOnUse">
<stop offset="1" stop-color="#455FF6"/>
<stop stop-color="#455FF6"/>
</linearGradient>
<linearGradient id="paint2_linear_2_3712" x1="75.4712" y1="20.3896" x2="75.4712" y2="26.2248" gradientUnits="userSpaceOnUse">
<stop offset="1" stop-color="#455FF6"/>
<stop stop-color="#455FF6"/>
</linearGradient>
<linearGradient id="paint3_linear_2_3712" x1="75.4697" y1="4.05945" x2="75.4697" y2="15.7268" gradientUnits="userSpaceOnUse">
<stop offset="1" stop-color="#455FF6"/>
<stop stop-color="#455FF6"/>
</linearGradient>
<linearGradient id="paint4_linear_2_3712" x1="44.759" y1="59.1039" x2="44.759" y2="89.5089" gradientUnits="userSpaceOnUse">
<stop offset="1" stop-color="#455FF6"/>
<stop stop-color="#455FF6"/>
</linearGradient>
<linearGradient id="paint5_linear_2_3712" x1="14.0485" y1="76.6124" x2="14.0485" y2="89.5101" gradientUnits="userSpaceOnUse">
<stop offset="1" stop-color="#455FF6"/>
<stop stop-color="#455FF6"/>
</linearGradient>
<linearGradient id="paint6_linear_2_3712" x1="14.0395" y1="63.678" x2="14.0395" y2="69.5007" gradientUnits="userSpaceOnUse">
<stop offset="1" stop-color="#455FF6"/>
<stop stop-color="#455FF6"/>
</linearGradient>
<linearGradient id="paint7_linear_2_3712" x1="44.7601" y1="40.0804" x2="44.7601" y2="45.9004" gradientUnits="userSpaceOnUse">
<stop offset="1" stop-color="#455FF6"/>
<stop stop-color="#455FF6"/>
</linearGradient>
<linearGradient id="paint8_linear_2_3712" x1="14.0468" y1="47.3342" x2="14.0468" y2="58.9947" gradientUnits="userSpaceOnUse">
<stop offset="1" stop-color="#455FF6"/>
<stop stop-color="#455FF6"/>
</linearGradient>
<linearGradient id="paint9_linear_2_3712" x1="44.7578" y1="23.7326" x2="44.7578" y2="35.3932" gradientUnits="userSpaceOnUse">
<stop offset="1" stop-color="#455FF6"/>
<stop stop-color="#455FF6"/>
</linearGradient>
</defs>
</svg>
