<svg viewBox="0 0 118 139" fill="none" xmlns="http://www.w3.org/2000/svg">
<mask id="mask0_2_3790" style="mask-type:alpha" maskUnits="userSpaceOnUse" x="0" y="0" width="118" height="139">
<rect width="117.602" height="138.442" fill="#D9D9D9"/>
</mask>
<g mask="url(#mask0_2_3790)">
<mask id="mask1_2_3790" style="mask-type:alpha" maskUnits="userSpaceOnUse" x="0" y="0" width="118" height="139">
<rect width="117.602" height="138.442" fill="#D9D9D9"/>
</mask>
<g mask="url(#mask1_2_3790)">
<path d="M58.8008 0C26.3258 0 0 26.3258 0 58.8003C0 71.7865 4.21302 83.7873 11.3421 93.5164C11.3421 93.5164 18.016 110.22 5.27137 129.592C15.6856 130.568 30.1457 121.182 39.2432 114.265C45.3623 116.423 51.9434 117.601 58.8008 117.601C91.2748 117.601 117.602 91.2753 117.602 58.8003C117.602 26.3258 91.2748 0 58.8008 0Z" fill="url(#paint0_linear_2_3790)"/>
</g>
<mask id="mask2_2_3790" style="mask-type:alpha" maskUnits="userSpaceOnUse" x="0" y="0" width="118" height="130">
<path d="M58.8008 0C26.3252 0 0 26.3258 0 58.8008C0 71.787 4.21302 83.7873 11.3416 93.5164C11.3416 93.5164 18.016 110.221 5.27137 129.593C15.6851 130.569 30.1457 121.183 39.2427 114.265C45.3618 116.423 51.9434 117.601 58.8008 117.601C91.2748 117.601 117.602 91.2758 117.602 58.8008C117.602 26.3258 91.2748 0 58.8008 0Z" fill="black"/>
</mask>
<g mask="url(#mask2_2_3790)">
<path d="M58.8014 31.168C36.267 31.168 18.0007 35.6522 18.0007 67.8427C18.0007 80.5017 28.2626 90.7645 40.922 90.7645H76.6802C89.3386 90.7645 99.601 80.5017 99.601 67.8427C99.601 35.6522 81.3347 31.168 58.8014 31.168Z" fill="white"/>
<path d="M58.8014 31.168C36.267 31.168 18.0007 35.6522 18.0007 67.8427C18.0007 80.5017 28.2626 90.7645 40.922 90.7645H76.6802C89.3386 90.7645 99.601 80.5017 99.601 67.8427C99.601 35.6522 81.3347 31.168 58.8014 31.168Z" fill="white"/>
<path d="M81.3648 75.269H36.2369C22.7021 75.269 21.1967 67.9034 18.6941 57.9556C18.2459 60.9236 18.0007 64.1976 18.0007 67.8432C18.0007 80.5016 28.2621 90.7645 40.922 90.7645H76.6802C89.3391 90.7645 99.601 80.5016 99.601 67.8432C99.601 64.1976 99.3542 60.9236 98.9076 57.9556C96.405 67.9034 94.9006 75.269 81.3648 75.269Z" fill="#EEEFF1"/>
<path d="M78.2391 71.4582H40.116C29.5197 71.4582 25.5142 67.3197 25.5142 61.0853C25.5142 54.8483 31.6553 48.876 43.2869 48.876H75.0702C86.7013 48.876 92.8429 54.8483 92.8429 61.0853C92.8429 67.3197 88.8364 71.4582 78.2391 71.4582Z" fill="black"/>
<path d="M58.8014 62.0274C71.4516 62.0274 83.1521 61.1153 92.7043 59.5696C91.7897 53.9164 85.7547 48.8765 75.0702 48.8765H43.2865C32.5281 48.8765 26.4793 53.9867 25.6284 59.6879C35.0445 61.1622 46.4723 62.0274 58.8014 62.0274Z" fill="#262626"/>
<path d="M44.9571 67.4044C40.9317 67.4044 37.6582 64.1299 37.6582 60.105C37.6582 56.0812 40.9317 52.8057 44.9571 52.8057C48.9815 52.8057 52.2554 56.0812 52.2554 60.105C52.2554 64.1299 48.9815 67.4044 44.9571 67.4044ZM44.9571 54.641C41.9431 54.641 39.492 57.0921 39.492 60.105C39.492 63.1195 41.9431 65.5712 44.9571 65.5712C47.9705 65.5712 50.4216 63.1195 50.4216 60.105C50.4216 57.0921 47.9705 54.641 44.9571 54.641Z" fill="#00F1FF"/>
<path d="M48.5308 60.1045C48.5308 62.0784 46.931 63.6787 44.9571 63.6787C42.9826 63.6787 41.3823 62.0784 41.3823 60.1045C41.3823 58.1305 42.9826 56.5312 44.9571 56.5312C46.931 56.5312 48.5308 58.1305 48.5308 60.1045Z" fill="black"/>
<path d="M45.2002 58.6697C45.2002 59.4971 44.5303 60.168 43.7029 60.168C42.876 60.168 42.2046 59.4971 42.2046 58.6697C42.2046 57.8423 42.876 57.1719 43.7029 57.1719C44.5303 57.1719 45.2002 57.8423 45.2002 58.6697Z" fill="white"/>
<path d="M72.6455 67.4044C68.6206 67.4044 65.3472 64.1299 65.3472 60.105C65.3472 56.0812 68.6206 52.8057 72.6455 52.8057C76.6704 52.8057 79.9439 56.0812 79.9439 60.105C79.9439 64.1299 76.6704 67.4044 72.6455 67.4044ZM72.6455 54.641C69.6331 54.641 67.1804 57.0921 67.1804 60.105C67.1804 63.1195 69.6331 65.5712 72.6455 65.5712C75.6595 65.5712 78.1091 63.1195 78.1091 60.105C78.1091 57.0921 75.6595 54.641 72.6455 54.641Z" fill="#00F1FF"/>
<path d="M69.0713 60.1045C69.0713 62.0784 70.6705 63.6787 72.6455 63.6787C74.6195 63.6787 76.2193 62.0784 76.2193 60.1045C76.2193 58.1305 74.6195 56.5312 72.6455 56.5312C70.6705 56.5312 69.0713 58.1305 69.0713 60.1045Z" fill="black"/>
<path d="M72.4028 58.6697C72.4028 59.4971 73.0717 60.168 73.9001 60.168C74.7281 60.168 75.3979 59.4971 75.3979 58.6697C75.3979 57.8423 74.7281 57.1719 73.9001 57.1719C73.0717 57.1719 72.4028 57.8423 72.4028 58.6697Z" fill="white"/>
<g style="mix-blend-mode:multiply">
<mask id="mask3_2_3790" style="mask-type:alpha" maskUnits="userSpaceOnUse" x="47" y="77" width="23" height="8">
<rect x="47.8303" y="77.7344" width="21.9408" height="6.57698" fill="#D9D9D9"/>
</mask>
<g mask="url(#mask3_2_3790)">
<path d="M58.8012 84.3114C54.2864 84.3114 50.1911 82.6407 48.1167 79.9495C47.6528 79.3494 47.7644 78.4843 48.365 78.0219C48.9666 77.557 49.8292 77.6676 50.2941 78.2691C51.8362 80.2681 55.1749 81.5604 58.8012 81.5604C62.4264 81.5604 65.7646 80.2681 67.3068 78.2691C67.7712 77.6676 68.6348 77.557 69.2364 78.0219C69.8374 78.4843 69.9486 79.3494 69.4851 79.9495C67.4087 82.6407 63.316 84.3114 58.8012 84.3114Z" fill="black"/>
</g>
</g>
<path d="M58.8013 138.442C50.9314 138.442 42.482 130.497 39.9273 120.698L37.4665 111.259C34.9129 101.458 41.0509 93.5166 51.1782 93.5166H66.4234C76.5501 93.5166 82.6886 101.458 80.1345 111.259L77.6747 120.698C75.1201 130.497 66.6696 138.442 58.8013 138.442Z" fill="#EEEFF1"/>
<path d="M58.8012 37.1959C68.7465 37.1959 77.8903 36.7136 85.1474 35.9081C78.0382 32.0688 68.8469 31.168 58.8012 31.168C48.7556 31.168 39.5643 32.0688 32.4551 35.9081C39.7116 36.7136 48.855 37.1959 58.8012 37.1959Z" fill="#EEEFF1"/>
<path d="M68.3964 31.8246C68.3964 33.1919 67.288 34.2992 65.9223 34.2992H51.6799C50.3141 34.2992 49.2058 33.1919 49.2058 31.8246C49.2058 30.4584 50.3141 29.3511 51.6799 29.3511H65.9223C67.288 29.3511 68.3964 30.4584 68.3964 31.8246Z" fill="#D1D2D4"/>
<rect x="57.8848" y="17.8271" width="1.83224" height="11.5236" fill="#D1D2D4"/>
<path d="M63.5854 17.8275C63.5854 20.4688 61.4437 22.6125 58.8019 22.6125C56.1595 22.6125 54.0168 20.4688 54.0168 17.8275C54.0168 15.1852 56.1595 13.0425 58.8019 13.0425C61.4437 13.0425 63.5854 15.1852 63.5854 17.8275Z" fill="white"/>
<path d="M58.8013 20.8C61.1332 20.8 63.0704 19.1304 63.4946 16.9214C63.5512 17.2161 63.5848 17.5173 63.5848 17.8273C63.5848 20.4686 61.4431 22.6123 58.8013 22.6123C56.159 22.6123 54.0168 20.4686 54.0168 17.8273C54.0168 17.5173 54.0515 17.2161 54.1081 16.9214C54.5318 19.1304 56.469 20.8 58.8013 20.8Z" fill="#EEEFF1"/>
<path d="M51.6799 30.5767H65.9223C67.076 30.5767 68.0365 31.3714 68.3102 32.4375C68.3617 32.2407 68.3969 32.0378 68.3969 31.8242C68.3969 30.4579 67.2881 29.3506 65.9223 29.3506H51.6799C50.3136 29.3506 49.2053 30.4579 49.2053 31.8242C49.2053 32.0378 49.2415 32.2407 49.292 32.4375C49.5652 31.3714 50.5262 30.5767 51.6799 30.5767Z" fill="#EEEFF1"/>
<path d="M80.8244 108.402C79.351 108.402 77.9725 107.483 77.4571 106.014C76.8076 104.162 77.7742 102.136 79.6171 101.474C79.7808 101.412 86.0575 98.9599 92.3826 90.1923C93.5358 88.594 95.7652 88.2331 97.3644 89.3863C98.9627 90.5395 99.3236 92.7698 98.1704 94.3686C90.3791 105.169 82.3441 108.081 82.0056 108.2C81.6151 108.337 81.2164 108.402 80.8244 108.402Z" fill="white"/>
<path d="M41.5833 96.6575C45.6189 97.8148 51.8293 98.557 58.8008 98.557C65.7719 98.557 71.9829 97.8148 76.0185 96.6575C73.576 94.6784 70.2918 93.5166 66.4234 93.5166H51.1783C47.3094 93.5166 44.0257 94.6784 41.5833 96.6575Z" fill="white"/>
</g>
</g>
<defs>
<linearGradient id="paint0_linear_2_3790" x1="29.4004" y1="32.4156" x2="29.4004" y2="32.4156" gradientUnits="userSpaceOnUse">
<stop offset="1" stop-color="#49FBDF"/>
<stop stop-color="#4FE3F2"/>
</linearGradient>
</defs>
</svg>
