<svg id="Group_8496" data-name="Group 8496" xmlns="http://www.w3.org/2000/svg" xmlns:xlink="http://www.w3.org/1999/xlink" viewBox="0 0 253.311 81.622">
  <defs>
    <clipPath id="clip-path">
      <rect id="Rectangle_2523" data-name="Rectangle 2523" width="43.057" height="43.008" fill="#455ff6"/>
    </clipPath>
  </defs>
  <rect id="Rectangle_2606" data-name="Rectangle 2606" width="253.311" height="68.734" rx="34.367" transform="translate(0 12.888)" fill="#fff" opacity="0.716"/>
  <text id="_10x" data-name="10x" transform="translate(60.931 56.72)" fill="#455ff6" font-size="29" font-family="AreaNormal-Black, Area Normal" font-weight="800"><tspan x="-24.302" y="0">10x</tspan></text>
  <text id="Hiring_ROI_Improvement" data-name="Hiring ROI
Improvement" transform="translate(109.665 41.72)" font-size="14" font-family="AreaNormal-Medium, Area Normal" font-weight="500"><tspan x="0" y="0">Hiring ROI</tspan><tspan x="0" y="17">Improvement</tspan></text>
  <g id="Group_7446" data-name="Group 7446" transform="translate(210.254 0)">
    <g id="Group_7305" data-name="Group 7305" clip-path="url(#clip-path)">
      <path id="Path_2615" data-name="Path 2615" d="M22.84,0A1.856,1.856,0,0,1,24.61,1.294l.968,3.052a1.875,1.875,0,0,0,1.211,1.208,16.713,16.713,0,0,1,2.306.956,1.879,1.879,0,0,0,1.714,0l2.848-1.476a1.858,1.858,0,0,1,2.167.335l1.855,1.853a1.852,1.852,0,0,1,.335,2.164l-1.482,2.853a1.874,1.874,0,0,0,0,1.71,16.7,16.7,0,0,1,.95,2.292,1.875,1.875,0,0,0,1.21,1.211l3.068.971a1.855,1.855,0,0,1,1.3,1.768v2.621a1.855,1.855,0,0,1-1.3,1.768l-3.081.975a1.876,1.876,0,0,0-1.208,1.207,16.655,16.655,0,0,1-.946,2.272,1.873,1.873,0,0,0,0,1.713l1.491,2.87a1.852,1.852,0,0,1-.335,2.165l-1.855,1.853a1.858,1.858,0,0,1-2.167.335l-2.882-1.494a1.882,1.882,0,0,0-1.712,0,16.681,16.681,0,0,1-2.263.938,1.876,1.876,0,0,0-1.21,1.207l-.98,3.09a1.856,1.856,0,0,1-1.769,1.294H20.216a1.856,1.856,0,0,1-1.769-1.294l-.98-3.09a1.876,1.876,0,0,0-1.21-1.207,16.667,16.667,0,0,1-2.263-.938,1.881,1.881,0,0,0-1.713,0L9.4,37.971a1.858,1.858,0,0,1-2.167-.335L5.378,35.783a1.852,1.852,0,0,1-.335-2.165l1.491-2.87a1.873,1.873,0,0,0,0-1.713,16.7,16.7,0,0,1-.946-2.272,1.875,1.875,0,0,0-1.208-1.207L1.3,24.582A1.855,1.855,0,0,1,0,22.814V20.193a1.855,1.855,0,0,1,1.3-1.768l3.068-.971a1.875,1.875,0,0,0,1.209-1.211,16.644,16.644,0,0,1,.95-2.291,1.873,1.873,0,0,0,0-1.711L5.043,9.39a1.852,1.852,0,0,1,.335-2.165L7.233,5.372A1.858,1.858,0,0,1,9.4,5.037l2.848,1.476a1.88,1.88,0,0,0,1.715,0,16.682,16.682,0,0,1,2.305-.957,1.875,1.875,0,0,0,1.21-1.207l.968-3.052A1.856,1.856,0,0,1,20.216,0ZM21.528,10.934A10.57,10.57,0,1,0,32.11,21.5a10.576,10.576,0,0,0-10.582-10.57" fill="#455ff6"/>
    </g>
  </g>
</svg>
