<svg xmlns="http://www.w3.org/2000/svg" xmlns:xlink="http://www.w3.org/1999/xlink" viewBox="0 0 252.336 93.384">
  <defs>
    <clipPath id="clip-path">
      <rect id="Rectangle_2522" data-name="Rectangle 2522" width="46.186" height="44.223" fill="#455ff6"/>
    </clipPath>
  </defs>
  <g id="Group_8661" data-name="Group 8661" transform="translate(-328.455 -751.129)">
    <rect id="Rectangle_2603" data-name="Rectangle 2603" width="252.336" height="79.323" rx="39.661" transform="translate(328.455 765.19)" fill="#fff" opacity="0.716"/>
    <text id="verified" transform="translate(488.657 810.352)" font-size="16" font-family="AreaNormal-Medium, Area Normal" font-weight="500"><tspan x="0" y="0">verified</tspan></text>
    <text id="_100_" data-name="100%" transform="translate(422.48 816.852)" fill="#455ff6" font-size="35" font-family="AreaNormal-Black, Area Normal" font-weight="800"><tspan x="-46.042" y="0">100%</tspan></text>
    <g id="Group_8527" data-name="Group 8527" transform="translate(-874.706 125.643)">
      <rect id="Rectangle_2990" data-name="Rectangle 2990" width="20.61" height="17.968" transform="translate(1218.476 640.547)" fill="#fff"/>
      <g id="Group_8525" data-name="Group 8525" transform="translate(1205 625.486)">
        <g id="Group_7302" data-name="Group 7302" clip-path="url(#clip-path)">
          <path id="Path_2614" data-name="Path 2614" d="M44.673,19.225c-1.381-1.244-2.616-1.614-3.711-2.94.086-2.419,2.713-5.676.563-8A4.194,4.194,0,0,0,38.5,7.116c-1.862-.3-2.33.3-4.331-.2C32.842,5.041,33.21,2.475,31.2.729c-2.03-1.763-4.452.064-6.11,1.381a6.83,6.83,0,0,1-2.017,1.2,6.885,6.885,0,0,1-2.057-1.232C19.9,1.218,18.26-.1,16.759.01a3.476,3.476,0,0,0-2.84,1.982c-1.054,2.059-.827,3.194-1.891,4.859-.2.247-.713.119-.981.2a3.318,3.318,0,0,1-1.439.017c-1.5-.162-3.88,0-4.966,1.2-2.183,2.422.471,5.522.542,8.012a4.074,4.074,0,0,1-1.131,1.069c-1.635,1.169-4.2,2.559-4.046,4.927.187,2.9,3.762,3.849,5.2,5.664a8.167,8.167,0,0,1-.64,2.575c-.672,1.763-1.325,3.97.13,5.482a4.616,4.616,0,0,0,3.145,1.15,8.683,8.683,0,0,0,1.767.013,3.709,3.709,0,0,1,1.541.013c.282.074.744-.043.955.245,1.05,1.432.928,4.445,2.878,6.083a2.709,2.709,0,0,0,1.952.7,7.336,7.336,0,0,0,4.04-1.976,6.242,6.242,0,0,1,2.162-1.31c1.955.724,3.919,3.378,6.182,3.3a3.438,3.438,0,0,0,2.935-1.983c1.09-2.154.824-3.169,1.892-4.858.195-.246.712-.12.981-.2a3.264,3.264,0,0,1,1.438-.016,9.833,9.833,0,0,0,1.946-.021,4.366,4.366,0,0,0,2.982-1.136c2.224-2.343-.372-5.522-.531-8.06,1.234-1.483,3.17-2.071,4.433-3.718,1.38-1.8.84-3.6-.722-5.005m-14.2,2.036-8.547,6.411a1.6,1.6,0,0,1-2.143-.153L15.6,23.332a1.61,1.61,0,0,1-.058-2.285,1.585,1.585,0,0,1,2.247-.06l3.311,3.29,7.427-5.567a1.607,1.607,0,1,1,1.955,2.551" transform="translate(-0.001 -0.001)" fill="#455ff6"/>
        </g>
      </g>
    </g>
  </g>
</svg>
