<?xml version="1.0" encoding="utf-8"?>
<!-- Generator: Adobe Illustrator 30.2.1, SVG Export Plug-In . SVG Version: 9.03 Build 0)  -->
<svg version="1.0" id="Layer_1" xmlns="http://www.w3.org/2000/svg" xmlns:xlink="http://www.w3.org/1999/xlink" x="0px" y="0px"
	 viewBox="0 0 395.49 441.35" style="enable-background:new 0 0 395.49 441.35;" xml:space="preserve">
<style type="text/css">
	.st0{fill:#455FF6;}
</style>
<g>
	<path class="st0" d="M362.49,113.55c-22.42-8.12-47.18,3.48-55.3,25.9l-18.96,52.38l-0.06-0.15l-16.05,45.06l8.08-64.62
		l-39.47-96.84c-7.15-17.54-24.89-28.4-43.79-26.71c-18.88,1.67-34.45,15.45-38.42,33.98l-20.21,89.57l5.57,68.91l-10.52-40.83
		l-0.01,0.06L88.58,37.64c-6-23.07-29.55-36.91-52.65-30.92c-23.08,6-36.92,29.57-30.92,52.65l90.65,339.09
		c4.96,19.06,22.16,32.31,41.78,32.31c0.32,0,0.63,0,0.95-0.01c20.01-0.44,37.09-14.57,41.28-34.14l23.43-109.58l0,0l0.01-0.05
		l10.55-49.34l0.05,0.13l10.45-48.51l-3.67,65.17l30.12,73.92c6.75,16.54,22.8,27.07,40.84,26.87
		c17.86-0.36,33.66-11.67,39.74-28.47l57.18-157.91C396.5,146.43,384.91,121.67,362.49,113.55z"/>
</g>
</svg>
