<svg viewBox="0 0 203 84" fill="none" xmlns="http://www.w3.org/2000/svg" preserveAspectRatio="xMidYMid meet">
<g>
<path d="M70.6988 21.3213C66.2826 19.7216 61.4052 22.0071 59.8054 26.4233L56.069 36.7414L56.0569 36.7114L52.8946 45.587L54.4872 32.8573L46.7117 13.7801C45.3017 10.3235 41.8091 8.18564 38.0859 8.51832C34.3675 8.84741 31.2976 11.5617 30.517 15.2129L26.5355 32.8573L27.6333 46.4326L25.5615 38.3892L25.5591 38.4013L16.7387 6.36607C15.5557 1.82015 10.9173 -0.904992 6.36656 0.274423C1.82065 1.45624 -0.906901 6.10064 0.274917 10.6466L18.1343 77.4469C19.1107 81.2025 22.5001 83.8124 26.3638 83.8124C26.4262 83.8124 26.4887 83.8112 26.5523 83.81C30.4941 83.7235 33.8594 80.9407 34.6833 77.0854L39.2989 55.498L39.3013 55.4884L41.3791 45.7696L41.3899 45.796L43.4497 36.2382L42.7267 49.0772L48.661 63.6374C49.9905 66.8958 53.1529 68.9712 56.7067 68.9315C60.2257 68.8607 63.3364 66.6328 64.535 63.3227L75.8008 32.2147C77.3993 27.7985 75.1162 22.9199 70.6988 21.3213Z" fill="currentColor"/>
<path d="M101.955 62.2477L109.186 43.9799H114.74L103.67 68.5087H98.0776L96.0659 49.4302L87.344 68.5087H81.7904L79.3679 43.9799H84.4363L85.7778 62.0639L93.7551 43.9799H99.7182L101.955 62.2477Z" fill="currentColor"/>
<path d="M112.502 68.5088L115.708 50.5725H120.703L117.497 68.5088H112.502ZM116.23 45.7108C116.23 44.852 116.51 44.1218 117.068 43.5201C117.628 42.9183 118.416 42.6169 119.436 42.6169C120.181 42.6169 120.796 42.8439 121.28 43.2991C121.764 43.7531 122.007 44.3356 122.007 45.0478C122.007 45.4405 121.932 45.8212 121.784 46.19C121.635 46.5587 121.423 46.889 121.149 47.1844C120.877 47.4787 120.534 47.7129 120.125 47.8846C119.714 48.0564 119.249 48.1416 118.727 48.1416C117.956 48.1416 117.348 47.9086 116.901 47.4414C116.453 46.9754 116.23 46.3989 116.23 45.7108Z" fill="currentColor"/>
<path d="M122.007 68.5086L121.672 65.0472L131.288 54.1454H123.535L124.169 50.5723H137.736L137.102 54.0709L127.524 64.9355H135.835L135.202 68.5086H122.007Z" fill="currentColor"/>
<path d="M144.93 62.6525C144.681 64.0529 144.358 65.3296 143.961 66.4826C143.563 67.6368 143.048 68.6985 142.414 69.669C141.781 70.6382 140.998 71.5402 140.066 72.3761C139.134 73.2108 138.01 74.0083 136.693 74.7698L134.121 71.5294C134.991 70.8904 135.749 70.2455 136.395 69.5957C137.042 68.9448 137.588 68.2638 138.035 67.5516C138.482 66.8393 138.849 66.0839 139.134 65.2864C139.42 64.4889 139.65 63.6098 139.824 62.6525L143.142 43.9801H148.247L144.93 62.6525Z" fill="currentColor"/>
<path d="M166.995 57.6442C166.995 59.0434 166.765 60.4186 166.304 61.7686C165.844 63.1197 165.171 64.3232 164.287 65.3789C163.403 66.4346 162.308 67.2813 161 67.9203C159.693 68.558 158.193 68.8775 156.5 68.8775C155.305 68.8775 154.239 68.6865 153.306 68.307C152.372 67.9263 151.581 67.4038 150.935 66.7409C150.287 66.0779 149.795 65.2936 149.459 64.3844C149.123 63.4765 148.955 62.494 148.955 61.4383C148.955 59.8169 149.191 58.3192 149.665 56.944C150.137 55.57 150.815 54.3846 151.7 53.3902C152.584 52.3957 153.66 51.6162 154.931 51.0518C156.201 50.4873 157.632 50.205 159.226 50.205C160.47 50.205 161.573 50.3948 162.531 50.7755C163.491 51.1562 164.299 51.6835 164.958 52.3597C165.619 53.0347 166.123 53.8261 166.472 54.7353C166.82 55.6433 166.995 56.6137 166.995 57.6442ZM156.992 65.1207C157.833 65.1207 158.568 64.8997 159.2 64.4577C159.83 64.0157 160.349 63.4452 160.757 62.745C161.166 62.0448 161.474 61.2665 161.684 60.4066C161.895 59.5467 162 58.7132 162 57.9024C162 57.4112 161.938 56.926 161.814 56.4468C161.692 55.9688 161.5 55.5448 161.24 55.1773C160.979 54.8086 160.646 54.5131 160.238 54.2921C159.83 54.0711 159.341 53.9607 158.773 53.9607C157.98 53.9607 157.289 54.1768 156.694 54.6056C156.101 55.0356 155.6 55.6001 155.192 56.3003C154.785 56.9993 154.475 57.7908 154.264 58.6759C154.054 59.5599 153.95 60.4426 153.95 61.3278C153.95 62.3835 154.19 63.2795 154.673 64.0157C155.156 64.7519 155.928 65.1207 156.992 65.1207Z" fill="currentColor"/>
<path d="M173.071 42.5064H178.065L176.052 53.7769C176.724 52.8197 177.555 51.985 178.551 51.2715C179.544 50.5605 180.674 50.2038 181.941 50.2038C182.761 50.2038 183.501 50.3696 184.159 50.701C184.818 51.0325 185.377 51.4997 185.836 52.1015C186.296 52.7032 186.65 53.4214 186.899 54.2549C187.146 55.0908 187.271 56.0108 187.271 57.0185C187.271 58.7372 187.042 60.3201 186.582 61.7686C186.122 63.2182 185.438 64.4697 184.532 65.5254C183.625 66.5823 182.487 67.4038 181.122 67.9935C179.754 68.5832 178.177 68.8775 176.387 68.8775C175.767 68.8775 175.102 68.8403 174.394 68.767C173.685 68.6925 172.99 68.5832 172.306 68.4343C171.623 68.2878 170.959 68.116 170.313 67.9191C169.666 67.7233 169.107 67.5143 168.635 67.2933L173.071 42.5064ZM180.227 54.0711C179.779 54.0711 179.319 54.2057 178.848 54.4747C178.375 54.7449 177.922 55.0932 177.488 55.522C177.052 55.9496 176.636 56.4396 176.239 56.9897C175.841 57.5409 175.494 58.097 175.196 58.6591L174.114 64.6799C174.388 64.8024 174.723 64.9057 175.12 64.9921C175.518 65.0786 175.953 65.1207 176.425 65.1207C177.468 65.1207 178.363 64.8949 179.109 64.4409C179.854 63.9893 180.463 63.3888 180.935 62.6429C181.407 61.8971 181.749 61.0516 181.96 60.1099C182.172 59.1683 182.277 58.2075 182.277 57.2287C182.277 56.3471 182.115 55.6013 181.792 54.9899C181.469 54.3774 180.948 54.0711 180.227 54.0711Z" fill="currentColor"/>
<path d="M202.255 63.0213C202.255 63.9785 202.056 64.8204 201.658 65.5446C201.261 66.2689 200.728 66.8826 200.056 67.3858C199.385 67.889 198.59 68.2638 197.671 68.5088C196.751 68.7538 195.77 68.8775 194.726 68.8775C193.706 68.8775 192.658 68.773 191.577 68.564C190.496 68.3563 189.558 68.0668 188.763 67.6993L189.769 64.0157C190.365 64.3352 191.086 64.6114 191.93 64.8444C192.774 65.0786 193.632 65.1951 194.503 65.1951C195.298 65.1951 195.987 65.0906 196.571 64.8817C197.155 64.6727 197.448 64.2739 197.448 63.6842C197.448 63.169 197.192 62.7642 196.683 62.4688C196.173 62.1745 195.584 61.819 194.912 61.4011C194.266 61.0083 193.67 60.6156 193.123 60.2216C192.576 59.8301 192.104 59.4182 191.707 58.9894C191.309 58.5594 190.999 58.0802 190.775 57.5517C190.551 57.0245 190.44 56.4048 190.44 55.6925C190.44 53.9246 191.017 52.5675 192.173 51.6222C193.328 50.6782 194.999 50.205 197.186 50.205C199.324 50.205 201.261 50.659 203.001 51.567L202.069 55.1773C201.398 54.8338 200.653 54.5323 199.833 54.2741C199.013 54.0159 198.217 53.8874 197.448 53.8874C196.851 53.8874 196.334 53.9619 195.899 54.1084C195.465 54.2561 195.249 54.5996 195.249 55.1401C195.249 55.5328 195.453 55.8835 195.863 56.1898C196.273 56.4972 196.8 56.8467 197.448 57.2395C197.894 57.5097 198.398 57.822 198.956 58.1787C199.516 58.5342 200.037 58.9461 200.522 59.4121C201.006 59.8793 201.417 60.4126 201.752 61.0143C202.087 61.616 202.255 62.285 202.255 63.0213Z" fill="currentColor"/>
</g>
</svg>
