<svg viewBox="0 0 81 90" fill="none" xmlns="http://www.w3.org/2000/svg">
<mask id="mask0_1_1986" style="mask-type:alpha" maskUnits="userSpaceOnUse" x="0" y="0" width="81" height="90">
<path d="M0 0H80.5802V89.9835H0V0Z" fill="black"/>
</mask>
<g mask="url(#mask0_1_1986)">
<path d="M80.3236 57.0707C80.1057 54.2003 78.3916 52.1783 75.9569 51.9202C74.8809 51.8065 73.8279 52.2147 73.2776 52.9636C72.821 53.5838 72.7519 54.3482 73.0843 55.1172C73.5624 56.2267 74.4548 56.4111 74.988 56.5211C75.5041 56.6275 75.5829 56.6439 75.6521 57.3897C76.0201 61.3608 75.8923 69.7379 74.8601 73.3178C73.2813 78.7954 68.5384 83.6172 63.327 85.0435C59.8118 86.008 54.7491 82.6519 52.4348 80.0827C47.6584 74.779 47.7737 68.4804 47.8964 61.8122C47.9262 60.226 47.9559 58.5862 47.9195 56.9867C47.9232 56.8 48.066 56.6044 48.2251 56.5687C48.6482 56.4743 49.5109 56.51 50.2701 56.542C50.9178 56.5673 51.5298 56.594 52.0311 56.5576C54.3631 56.3873 56.742 55.7299 57.9527 55.3529C58.4011 55.2138 58.8822 55.0116 59.3931 54.7974C60.3598 54.3921 61.5645 53.8887 62.2137 54.0255C62.4956 54.0857 62.9135 54.2858 63.3173 54.4791C63.6846 54.6554 64.0639 54.8368 64.4305 54.9595C64.5607 55.0034 64.722 55.0629 64.9057 55.1305C66.6376 55.7678 68.4283 56.333 69.6338 55.6771C70.1357 55.4042 70.4704 54.9491 70.602 54.3624L70.6228 54.2687L70.6756 6.3031L70.6719 6.22055C70.3551 2.84889 67.7962 0.292251 64.4484 0.00446184L6.60502 0C3.12106 0.110059 0.342818 2.80204 0 6.40126L0.00297456 71.1367L0.583758 72.235L18.4282 89.9835H48.8007L48.9814 89.8957C49.7235 89.5358 50.2575 88.9208 50.4464 88.2077C50.6211 87.5488 50.4873 86.8513 50.0708 86.2437C50.0641 86.2348 49.3123 85.3053 48.6862 85.3053H21.5581V73.169C21.5581 71.2356 19.0536 69.1943 17.6905 68.7265C16.5096 68.3227 12.5668 68.2394 11.3331 68.4395C10.2414 68.6187 9.46878 69.5891 9.4948 70.7477C9.52306 71.9792 10.431 72.9437 11.7034 73.0932C12.2359 73.1571 12.8925 73.1266 13.5878 73.0947C14.6044 73.0486 16.1415 72.9787 16.514 73.3267C16.5847 73.4122 16.7736 73.7089 16.8806 73.8911V81.8183L4.67453 69.5311L4.66188 6.8757C4.74443 5.60928 5.63457 4.70576 6.80506 4.67899L64.6662 4.80243C65.0537 4.94 65.9081 5.82345 65.9922 6.13727V50.5438C65.7096 50.4307 65.421 50.3006 65.1251 50.1667C64.3108 49.7986 63.469 49.4179 62.5513 49.3145C60.8201 49.1204 59.4303 49.7101 58.0843 50.2798C57.5377 50.5111 56.9733 50.7498 56.4022 50.926C54.726 51.4421 52.9814 51.7998 51.7366 51.8838C51.1364 51.9247 50.5103 51.9165 49.9035 51.9136C47.3372 51.889 44.1507 51.8637 43.2784 56.1211L43.2576 56.2222L43.2606 56.3263C43.323 58.1705 43.2806 60.0572 43.239 61.8821C43.1215 67.0518 43.0003 72.3979 45.2409 77.4621C47.9328 83.5488 53.4083 88.1021 60.2617 89.953L63.0258 89.9835L65.1273 89.3767C80.3697 84.1221 81.2554 69.3519 80.3236 57.0707Z" fill="#455FF6"/>
<path d="M53.4825 19.508C53.8744 19.9289 54.412 20.1595 55.0382 20.1751H55.0664C55.8673 20.1751 57.081 19.4351 57.3301 18.5792C57.5561 17.8006 57.4513 13.5455 57.3472 12.9261C56.962 10.6215 54.5608 8.99071 52.5566 8.80183L52.4934 8.79513L52.4295 8.79885C47.1251 9.07326 41.5322 8.90742 36.1222 8.74531C30.1493 8.56832 23.9718 8.38464 18.1172 8.78919C15.1396 8.99517 13.0321 10.8245 12.7488 13.4518C12.5384 15.3957 12.5287 20.5417 12.7986 22.4149C13.1303 24.7202 15.1448 26.5406 17.6613 26.7489L50.9296 26.7451L51.0061 26.7422C52.2346 26.6343 53.1263 25.6505 53.1263 24.4027C53.1263 23.1548 52.2346 22.171 51.0061 22.0639L50.9682 22.0602L18.1871 22.0728C17.9513 22.0706 17.6345 21.9665 17.5408 21.8959C17.497 21.8393 17.4226 21.6683 17.4085 21.5463C17.2315 20.1 17.2345 15.6827 17.4129 14.1605C17.4494 13.8459 17.5929 13.64 17.8732 13.5091L52.2056 13.483C52.3559 13.5403 52.6355 13.7485 52.7344 13.8764C52.7976 14.1754 52.7663 14.8261 52.7388 15.4024C52.6682 16.877 52.5886 18.548 53.4825 19.508Z" fill="#455FF6"/>
<path d="M60.6945 35.4524L60.87 35.3706C61.7036 34.9794 62.2167 34.2313 62.242 33.3695C62.2695 32.4384 61.7408 31.5639 60.8626 31.0887L60.6677 30.9831L9.95218 30.8887L9.69934 30.9259C8.56529 31.2664 7.8447 32.3127 7.94658 33.4713C8.04325 34.5697 8.86125 35.3966 9.98192 35.5275L10.0332 35.5335L60.5004 35.4531L60.6945 35.4524Z" fill="#455FF6"/>
<path d="M55.3388 46.5563C56.6209 46.4068 57.4842 45.4252 57.4389 44.1699C57.3987 43.0783 56.5837 41.9398 55.0659 41.8766L28.8504 41.8706C28.3082 41.8773 27.5111 42.0803 27.0411 42.5094L27.0403 42.5101C26.3532 43.1393 26.1368 44.1908 26.5012 45.127C26.8462 46.0127 27.6196 46.5622 28.5187 46.5622H28.5209H55.2377L55.3388 46.5563Z" fill="#455FF6"/>
<path d="M40.3976 55.854L28.3871 55.8741L28.2488 55.8748L28.1172 55.918C27.0106 56.2794 26.2908 57.2528 26.3265 58.34C26.3599 59.3647 27.0738 60.2043 28.1454 60.4787L28.2874 60.5151L28.4332 60.5033C30.2001 60.3605 32.1938 60.4534 34.1221 60.5427C35.3505 60.5999 36.6021 60.6579 37.8239 60.6579C38.8077 60.6579 39.773 60.62 40.6914 60.5144C42.1496 60.3449 42.784 59.2621 42.7669 58.2627C42.7483 57.1844 41.9362 55.9745 40.3976 55.854Z" fill="#455FF6"/>
<path d="M40.3865 69.8086L40.3047 69.8175C38.7483 69.9871 36.8245 69.8763 34.9639 69.7692C32.6847 69.6391 30.3281 69.5037 28.4095 69.8517C27.1713 70.0756 26.3161 71.0668 26.3303 72.2619C26.3436 73.3796 27.1237 74.2809 28.2265 74.4534L28.3292 74.4697L28.4325 74.4616C30.2002 74.3195 32.1924 74.411 34.1191 74.5017C35.3476 74.5582 36.5992 74.6162 37.8217 74.6162C38.8063 74.6162 39.7723 74.5783 40.6914 74.472C42.1497 74.3032 42.7848 73.2204 42.7669 72.221C42.7476 71.1427 41.9355 69.9328 40.4683 69.8153L40.3865 69.8086Z" fill="#455FF6"/>
<path d="M15.104 60.4587C15.5145 60.5494 16.8865 60.5926 18.1879 60.5926C19.336 60.5926 20.4292 60.5591 20.7564 60.4974C21.7819 60.3033 22.5166 59.3827 22.5411 58.2576C22.5672 57.1131 21.8533 56.2021 20.7229 55.9359C19.8157 55.724 16.4217 55.7262 15.487 55.8928C14.1023 56.1419 13.462 57.2529 13.4419 58.2442C13.4196 59.3269 14.103 60.2364 15.104 60.4587Z" fill="#455FF6"/>
<path d="M18.1864 46.6345C19.3354 46.6345 20.4292 46.6011 20.7565 46.5393C21.7566 46.3497 22.5003 45.4016 22.5248 44.2831C22.5501 43.1468 21.8429 42.2418 20.723 41.9778C19.9005 41.7852 16.0804 41.7577 15.2728 41.9392C14.1923 42.1816 13.4665 43.1275 13.4673 44.2943C13.468 45.3956 14.1247 46.282 15.1033 46.5007C15.5123 46.5914 16.8851 46.6345 18.1864 46.6345Z" fill="#455FF6"/>
<path d="M67.1598 63.985V63.9857C66.3619 64.1515 65.3334 65.1867 63.1791 67.5106C62.3871 68.3657 61.5103 69.3109 60.9519 69.8047C60.6618 69.6032 60.3123 69.2708 59.9918 68.9681C58.9507 67.9828 57.5267 66.6331 55.9145 67.6117C55.086 68.1136 54.8429 68.7733 54.7856 69.238C54.6904 70.004 55.0347 70.8458 55.7293 71.5478C56.3777 72.2029 58.8013 74.3409 59.6341 74.8414C60.1086 75.1247 60.5481 75.266 60.9913 75.266C61.3891 75.266 61.7907 75.1522 62.2235 74.9239L62.3395 74.8629L69.3892 67.8586C70.0607 67.0949 70.1567 66.021 69.6346 65.1235C69.1126 64.2281 68.1406 63.7797 67.1598 63.985Z" fill="#455FF6"/>
</g>
</svg>
