<?xml version="1.0" encoding="utf-8"?>
<!-- Generator: Adobe Illustrator 30.2.1, SVG Export Plug-In . SVG Version: 9.03 Build 0)  -->
<svg version="1.0" id="Layer_1" xmlns="http://www.w3.org/2000/svg" xmlns:xlink="http://www.w3.org/1999/xlink" x="0px" y="0px"
	 viewBox="0 0 344.44 266.67" style="enable-background:new 0 0 344.44 266.67;" xml:space="preserve">
<g fill="currentColor">
	<path d="M162.88,239.12c-1.79,2.37-3.89,3.38-6.42,3.15c-2.44-0.21-4.47-1.74-5.66-4.33l-29.58-64.7l-75.74-17.9
		c-2.94-0.69-4.64-3.23-4.92-5.59c-0.33-2.83,0.88-5.44,3.62-6.85L272.21,25.01c2.32-1.2,4.97-0.6,6.8,0.74
		c1.84,1.34,2.95,3.6,2.6,6.48l-20.19,166.77c-1.06,4.35-4.73,6.16-8.9,5.13l-53.34-13.11L162.88,239.12z M249.1,189.49
		l16.24-134.72L175.62,171.5L249.1,189.49z M124.11,160.18l107.88-99.11L66.4,146.48L124.11,160.18z M157.43,174.72
		c0.15-1.26,0.82-2.54,1.52-3.45l62.62-81.92l-87.55,79.75l19.03,41.37L157.43,174.72z M184.98,187.62l-15.13-3.75l-3.2,28.02
		L184.98,187.62z"/>
</g>
</svg>
