<svg id="Group_7466" data-name="Group 7466" xmlns="http://www.w3.org/2000/svg" xmlns:xlink="http://www.w3.org/1999/xlink" viewBox="0 0 308.08 85.811">
  <defs>
    <clipPath id="clip-path">
      <rect id="Rectangle_2611" data-name="Rectangle 2611" width="64.182" height="57.281" fill="#455ff6"/>
    </clipPath>
  </defs>
  <rect id="Rectangle_2603" data-name="Rectangle 2603" width="292.336" height="79.323" rx="39.661" transform="translate(15.745 6.488)" fill="#fff" opacity="0.716"/>
  <text id="Every_Candidate" data-name="Every Candidate" transform="translate(88.13 39.206)" font-size="16" font-family="AreaNormal-Medium, Area Normal" font-weight="500"><tspan x="0" y="0">Every Candidate</tspan></text>
  <text id="Blockchain-Verified" transform="translate(168.889 62.469)" fill="#455ff6" font-size="17" font-family="AreaNormal-Black, Area Normal" font-weight="800"><tspan x="-84.286" y="0">Blockchain-Verified</tspan></text>
  <g id="Group_7468" data-name="Group 7468" transform="translate(0)">
    <g id="Group_7467" data-name="Group 7467" clip-path="url(#clip-path)">
      <path id="Path_2939" data-name="Path 2939" d="M.019,291.72c.043-.48-.06-1.042,0-1.507a4.858,4.858,0,0,1,2.8-3.539,4.654,4.654,0,0,1,5.914,6.555C6.556,297.156.874,295.946.019,291.72" transform="translate(0 -238.337)" fill="#455ff6"/>
      <path id="Path_2940" data-name="Path 2940" d="M123.166,77.278v6.28l12.28,7.157-14.214,8.039-14.106-8.039,12.28-7.157v-6.28a12.534,12.534,0,0,0,3.759,0" transform="translate(-89.187 -64.337)" fill="#455ff6"/>
      <path id="Path_2941" data-name="Path 2941" d="M217.069,177.028v14.129l5.137,2.954c-.576,1.136-1.564,2.062-1.755,3.389l-5.306-2.988-12.237,7.007V185.066Z" transform="translate(-168.93 -147.383)" fill="#455ff6"/>
      <path id="Path_2942" data-name="Path 2942" d="M84.518,185.066v16.453l-12.237-7.007L66.975,197.5c-.191-1.327-1.179-2.253-1.755-3.389l5.138-2.953V177.028Z" transform="translate(-54.298 -147.383)" fill="#455ff6"/>
      <path id="Path_2943" data-name="Path 2943" d="M336.927,290.939a4.661,4.661,0,1,1-4.661-4.671,4.666,4.666,0,0,1,4.661,4.671" transform="translate(-272.745 -238.33)" fill="#455ff6"/>
      <path id="Path_2944" data-name="Path 2944" d="M173.189,4.669A4.658,4.658,0,1,1,168.53,0a4.664,4.664,0,0,1,4.658,4.669" transform="translate(-136.43)" fill="#455ff6"/>
    </g>
  </g>
</svg>
