<svg viewBox="0 0 87 90" fill="none" xmlns="http://www.w3.org/2000/svg">
<mask id="mask0_1_1958" style="mask-type:alpha" maskUnits="userSpaceOnUse" x="0" y="0" width="87" height="90">
<path d="M0 0H86.8304V89.9834H0V0Z" fill="black"/>
</mask>
<g mask="url(#mask0_1_1958)">
<path d="M16.0491 50.8355C3.72685 47.8926 -3.1947 34.7705 1.45676 22.8478C3.89961 16.5866 9.47888 11.7441 16.0499 10.2291C15.8024 4.97707 19.7636 0.468469 24.999 0H63.7731C66.7268 0.230081 68.6762 1.50425 70.6996 3.51601C75.4499 8.23974 79.6678 13.9353 84.453 18.6814C85.3609 19.8833 86.1965 21.1808 86.4606 22.6983C86.9839 42.5883 86.9083 62.6884 86.4996 82.5867C85.5079 86.5936 82.1181 89.4892 78.0207 89.9734L24.999 89.9834C20.3625 89.5548 16.7111 86.0155 16.0948 81.4164L16.0491 50.8355ZM57.8416 6.43314H25.0065C23.9591 6.43314 22.2081 8.46733 22.5138 9.6277C36.5521 10.9534 45.6191 25.2292 40.2051 38.5017C37.2382 45.7779 30.3091 50.6445 22.5246 51.4469L22.488 80.4454C22.5412 82.1473 23.9051 83.5054 25.6012 83.5577L78.0871 83.4124C78.9128 83.3144 80.334 81.7794 80.334 81.0393V28.9255H66.1752C62.7581 28.9255 57.8416 24.019 57.8416 20.591V6.43314ZM79.1287 22.499L65.5814 7.42988L64.2673 6.63415V19.9888C64.2673 20.7862 65.9726 22.499 66.7783 22.499H79.1287ZM17.6763 16.4745C6.29512 19.0004 2.44105 33.6176 11.3453 41.3822C19.6639 48.6352 32.5418 44.3708 34.9473 33.7455H23.199C20.9256 33.7455 17.6763 30.4953 17.6763 28.2228V16.4745ZM34.9473 27.319C33.8326 22.0039 29.4162 17.5609 24.1028 16.4745V27.319H34.9473Z" fill="#455FF6"/>
<path d="M70.0396 48.2531C72.1336 47.9134 73.7317 49.225 73.9161 51.309C74.564 58.6492 73.4294 66.9528 73.8904 74.3944C73.1237 78.1994 67.826 78.0142 67.473 74.0189C66.8301 66.7294 67.9714 58.5046 67.4805 51.1154C67.5827 49.764 68.7106 48.4691 70.0396 48.2531Z" fill="#455FF6"/>
<path d="M44.3333 57.8933C46.2786 57.5777 47.9905 58.7804 48.2023 60.7557C48.6616 65.0508 47.8974 70.1832 48.1533 74.5655C47.3326 78.148 42.1703 77.9071 41.7741 74.2125C41.3189 69.9581 42.1006 64.9137 41.7924 60.5738C41.966 59.3012 43.0724 58.0977 44.3333 57.8933Z" fill="#455FF6"/>
<path d="M57.1866 61.1062C59.132 60.7906 60.8439 61.9933 61.0557 63.9685C61.2774 66.0409 61.3348 72.6128 61.0067 74.5647C60.4269 78.0135 55.0353 78.0176 54.6275 74.2126C54.4057 72.141 54.3484 65.5675 54.6765 63.6164C54.8725 62.4485 55.9947 61.2998 57.1866 61.1062Z" fill="#455FF6"/>
<path d="M31.4812 67.5326C35.5678 66.8715 35.6559 71.3402 35.3502 74.2125C34.9366 78.0848 29.3374 78.0856 28.9221 74.2125C28.6787 71.9349 28.5267 68.0111 31.4812 67.5326Z" fill="#455FF6"/>
</g>
</svg>
