<svg viewBox="0 0 80 80" fill="none" xmlns="http://www.w3.org/2000/svg">
<mask id="mask0_1_1934" style="mask-type:alpha" maskUnits="userSpaceOnUse" x="0" y="0" width="80" height="80">
<path d="M0 0H79.114V79.791H0V0Z" fill="black"/>
</mask>
<g mask="url(#mask0_1_1934)">
<path d="M39.8658 7.54545H59.4218C64.6538 7.54545 70.2368 13.0405 71.5448 17.8785C72.6048 21.8034 72.3008 33.0424 71.4358 37.1515C71.1768 38.3854 70.9558 40.1624 69.4808 40.4425C68.6158 40.6074 64.8708 39.4334 64.3018 38.7825C63.2498 37.5784 64.4738 33.8564 64.5758 32.1614C64.7518 29.2134 64.8788 23.7864 64.5478 20.9454C64.1748 17.7595 61.4958 15.2805 58.3048 15.0245L13.7638 15.0345C10.3178 15.4505 7.90981 18.0335 7.66982 21.4785C7.46681 24.4085 7.50881 28.6474 7.67081 31.6005C8.43482 45.4744 19.7018 56.8675 33.5988 57.6954C35.5308 57.8105 39.4528 56.8885 39.8538 59.4874C39.9678 60.2244 39.9668 62.8385 39.8228 63.5494C39.6108 64.5975 38.7098 65.0965 37.7228 65.1925C21.3418 66.7794 5.41382 54.8455 1.36882 39.2114C0.0908151 34.2695 -0.585185 22.8435 0.659815 18.0235C1.92481 13.1224 7.53981 7.54545 12.8248 7.54545H32.3808V1.65045C32.3808 1.11645 33.4498 0.217451 34.0138 0.102451C34.7508 -0.0465492 37.6668 -0.0345492 38.3738 0.148451C38.8828 0.279451 39.8658 1.17445 39.8658 1.65045V7.54545Z" fill="#455FF6"/>
<path d="M78.9271 63.3604C79.2661 63.7965 79.1221 64.2934 78.6741 64.6004C75.1481 66.2664 70.6241 66.9295 68.0271 70.0464C66.0081 72.4705 65.2541 76.5064 63.8601 79.3524C63.6451 79.9794 62.8951 79.8575 62.4961 79.4644C60.8801 75.9565 60.2031 71.5385 57.1811 68.9204C54.6411 66.7215 50.5581 65.9904 47.5391 64.5294C47.2491 64.2875 47.2881 63.7965 47.4411 63.4954C47.6721 63.0434 54.0241 60.8214 55.0901 60.2905C60.3391 57.6785 59.9461 53.2314 62.3451 48.8325C62.8581 47.8904 63.2991 47.5234 63.9581 48.6694C65.2051 50.8375 65.7701 54.0634 67.0911 56.3904C69.5961 60.8074 74.7161 61.3134 78.9271 63.3604Z" fill="#455FF6"/>
<path d="M30.1299 32.9905C30.1299 36.2995 27.4479 38.9815 24.1389 38.9815C20.8309 38.9815 18.1479 36.2995 18.1479 32.9905C18.1479 29.6815 20.8309 26.9995 24.1389 26.9995C27.4479 26.9995 30.1299 29.6815 30.1299 32.9905Z" fill="#455FF6"/>
<path d="M54.083 32.9905C54.083 36.2995 51.4021 38.9815 48.092 38.9815C44.785 38.9815 42.1021 36.2995 42.1021 32.9905C42.1021 29.6815 44.785 26.9995 48.092 26.9995C51.4021 26.9995 54.083 29.6815 54.083 32.9905Z" fill="#455FF6"/>
</g>
</svg>
