<svg viewBox="0 0 666 667" fill="none" xmlns="http://www.w3.org/2000/svg">
<g opacity="0.490342">
<mask id="mask0_2_3674" style="mask-type:alpha" maskUnits="userSpaceOnUse" x="0" y="0" width="666" height="667">
<rect width="665.073" height="666.639" fill="url(#paint0_linear_2_3674)"/>
</mask>
<g mask="url(#mask0_2_3674)">
<path d="M510.874 304.589C512.352 304.538 513.509 303.3 513.458 301.823C513.408 300.346 512.169 299.189 510.692 299.24C509.215 299.29 508.059 300.528 508.109 302.005C508.159 303.482 509.397 304.639 510.874 304.589Z" fill="url(#paint1_linear_2_3674)"/>
<path d="M522.68 332.619C520.042 332.709 517.977 334.92 518.066 337.558C518.156 340.195 520.368 342.261 523.005 342.171C525.643 342.081 527.709 339.87 527.619 337.232C527.529 334.594 525.318 332.529 522.68 332.619Z" fill="url(#paint2_linear_2_3674)"/>
<path d="M522.882 374.516C523.004 378.103 526.011 380.913 529.599 380.79C533.186 380.669 535.996 377.661 535.873 374.074C535.752 370.486 532.744 367.677 529.157 367.799C525.569 367.921 522.76 370.928 522.882 374.516Z" fill="url(#paint3_linear_2_3674)"/>
<path d="M538.153 411.49C538.004 407.129 534.348 403.714 529.987 403.863C525.627 404.011 522.211 407.667 522.36 412.028C522.508 416.389 526.164 419.804 530.525 419.656C534.886 419.507 538.301 415.851 538.153 411.49Z" fill="url(#paint4_linear_2_3674)"/>
<path d="M525.8 457.954C530.784 457.784 534.687 453.606 534.517 448.622C534.347 443.638 530.169 439.735 525.185 439.904C520.201 440.074 516.298 444.252 516.468 449.236C516.637 454.22 520.815 458.123 525.8 457.954Z" fill="url(#paint5_linear_2_3674)"/>
<path d="M505.322 485.303C505.508 490.766 510.087 495.043 515.55 494.857C521.013 494.671 525.291 490.092 525.105 484.629C524.919 479.166 520.339 474.889 514.876 475.075C509.413 475.261 505.136 479.84 505.322 485.303Z" fill="url(#paint6_linear_2_3674)"/>
<path d="M500.001 529.579C505.815 529.382 510.367 524.508 510.17 518.694C509.972 512.88 505.098 508.328 499.284 508.526C493.47 508.724 488.918 513.597 489.116 519.411C489.314 525.225 494.187 529.777 500.001 529.579Z" fill="url(#paint7_linear_2_3674)"/>
<path d="M478.734 539.453C472.69 539.659 467.956 544.726 468.162 550.771C468.368 556.815 473.435 561.549 479.479 561.343C485.524 561.137 490.257 556.07 490.052 550.025C489.846 543.981 484.779 539.247 478.734 539.453Z" fill="url(#paint8_linear_2_3674)"/>
<path d="M453.674 567.108C447.511 567.317 442.685 572.484 442.895 578.646C443.105 584.809 448.271 589.635 454.434 589.425C460.597 589.215 465.423 584.049 465.213 577.886C465.003 571.724 459.837 566.898 453.674 567.108Z" fill="url(#paint9_linear_2_3674)"/>
<path d="M424.692 590.856C418.526 591.066 413.697 596.235 413.907 602.402C414.117 608.567 419.286 613.396 425.453 613.186C431.619 612.977 436.447 607.807 436.237 601.641C436.028 595.475 430.858 590.646 424.692 590.856Z" fill="url(#paint10_linear_2_3674)"/>
<path d="M392.495 610.209C386.433 610.416 381.687 615.497 381.893 621.558C382.099 627.62 387.181 632.366 393.242 632.159C399.303 631.953 404.05 626.872 403.843 620.811C403.637 614.75 398.556 610.003 392.495 610.209Z" fill="url(#paint11_linear_2_3674)"/>
<path d="M357.797 624.73C351.955 624.929 347.38 629.826 347.579 635.667C347.778 641.509 352.675 646.084 358.517 645.885C364.359 645.686 368.933 640.789 368.735 634.947C368.536 629.106 363.638 624.531 357.797 624.73Z" fill="url(#paint12_linear_2_3674)"/>
<path d="M321.367 634.045C315.866 634.233 311.559 638.844 311.746 644.344C311.934 649.845 316.545 654.152 322.046 653.965C327.546 653.778 331.854 649.167 331.666 643.666C331.479 638.166 326.868 633.858 321.367 634.045Z" fill="url(#paint13_linear_2_3674)"/>
<path d="M284.048 637.97C279.017 638.141 275.078 642.358 275.249 647.389C275.42 652.419 279.638 656.359 284.668 656.188C289.698 656.016 293.638 651.799 293.466 646.768C293.295 641.738 289.078 637.799 284.048 637.97Z" fill="url(#paint14_linear_2_3674)"/>
<path d="M246.701 636.489C242.283 636.639 238.823 640.343 238.974 644.761C239.124 649.179 242.828 652.639 247.246 652.489C251.664 652.338 255.124 648.635 254.974 644.217C254.823 639.798 251.12 636.338 246.701 636.489Z" fill="url(#paint15_linear_2_3674)"/>
<path d="M210.174 629.707C206.521 629.832 203.66 632.894 203.784 636.548C203.908 640.202 206.971 643.062 210.625 642.938C214.279 642.813 217.139 639.751 217.015 636.097C216.891 632.444 213.828 629.583 210.174 629.707Z" fill="url(#paint16_linear_2_3674)"/>
<path d="M175.296 617.859C172.585 617.951 170.463 620.224 170.555 622.934C170.647 625.644 172.919 627.767 175.63 627.674C178.34 627.582 180.462 625.31 180.37 622.6C180.278 619.889 178.006 617.767 175.296 617.859Z" fill="url(#paint17_linear_2_3674)"/>
<path d="M142.869 601.286C141.311 601.339 140.092 602.644 140.145 604.201C140.198 605.759 141.504 606.978 143.061 606.925C144.618 606.872 145.838 605.567 145.785 604.01C145.732 602.453 144.426 601.233 142.869 601.286Z" fill="url(#paint18_linear_2_3674)"/>
<path d="M113.664 580.561C113.565 580.564 113.487 580.647 113.491 580.746C113.494 580.845 113.577 580.922 113.676 580.919C113.775 580.916 113.852 580.833 113.849 580.734C113.846 580.635 113.763 580.557 113.664 580.561Z" fill="url(#paint19_linear_2_3674)"/>
<path d="M486.778 444.516C484.591 443.039 481.62 443.613 480.142 445.8C478.664 447.987 479.239 450.958 481.426 452.436C483.613 453.913 486.584 453.338 488.061 451.152C489.539 448.965 488.964 445.994 486.778 444.516Z" fill="url(#paint20_linear_2_3674)"/>
<path d="M473.085 485.809C475.095 482.835 474.313 478.794 471.339 476.784C468.365 474.775 464.324 475.556 462.314 478.531C460.304 481.505 461.086 485.545 464.06 487.555C467.035 489.565 471.075 488.783 473.085 485.809Z" fill="url(#paint21_linear_2_3674)"/>
<path d="M441.966 519.541C445.581 521.985 450.492 521.034 452.936 517.419C455.379 513.804 454.429 508.892 450.813 506.449C447.198 504.005 442.286 504.956 439.843 508.571C437.4 512.187 438.35 517.098 441.966 519.541Z" fill="url(#paint22_linear_2_3674)"/>
<path d="M413.206 535.211C410.413 539.343 411.5 544.956 415.631 547.748C419.764 550.541 425.377 549.454 428.169 545.322C430.961 541.19 429.875 535.577 425.743 532.785C421.611 529.993 415.998 531.078 413.206 535.211Z" fill="url(#paint23_linear_2_3674)"/>
<path d="M385.648 571.58C390.176 574.64 396.329 573.45 399.389 568.921C402.45 564.392 401.259 558.239 396.731 555.179C392.202 552.118 386.05 553.309 382.989 557.838C379.929 562.366 381.119 568.518 385.648 571.58Z" fill="url(#paint24_linear_2_3674)"/>
<path d="M364.455 573.076C359.635 569.819 353.087 571.086 349.83 575.905C346.573 580.725 347.84 587.273 352.659 590.53C357.479 593.787 364.027 592.52 367.284 587.701C370.541 582.881 369.274 576.333 364.455 573.076Z" fill="url(#paint25_linear_2_3674)"/>
<path d="M329.65 586.018C324.639 582.631 317.831 583.949 314.445 588.96C311.059 593.971 312.376 600.779 317.387 604.166C322.398 607.552 329.206 606.235 332.592 601.224C335.979 596.213 334.662 589.405 329.65 586.018Z" fill="url(#paint26_linear_2_3674)"/>
<path d="M293.122 593.661C288.013 590.208 281.072 591.551 277.619 596.66C274.166 601.769 275.509 608.71 280.618 612.163C285.727 615.615 292.668 614.273 296.121 609.164C299.573 604.055 298.231 597.114 293.122 593.661Z" fill="url(#paint27_linear_2_3674)"/>
<path d="M255.716 595.839C250.603 592.384 243.659 593.728 240.204 598.84C236.75 603.952 238.093 610.897 243.205 614.352C248.318 617.806 255.262 616.462 258.717 611.35C262.171 606.238 260.828 599.294 255.716 595.839Z" fill="url(#paint28_linear_2_3674)"/>
<path d="M218.291 592.571C213.266 589.175 206.44 590.496 203.044 595.521C199.648 600.546 200.969 607.373 205.994 610.768C211.019 614.164 217.845 612.843 221.241 607.818C224.637 602.793 223.316 595.967 218.291 592.571Z" fill="url(#paint29_linear_2_3674)"/>
<path d="M181.686 583.923C176.843 580.65 170.263 581.923 166.99 586.766C163.717 591.609 164.99 598.189 169.833 601.462C174.677 604.734 181.256 603.462 184.529 598.618C187.802 593.775 186.529 587.196 181.686 583.923Z" fill="url(#paint30_linear_2_3674)"/>
<path d="M146.738 570.047C142.178 566.965 135.983 568.164 132.901 572.724C129.819 577.284 131.018 583.479 135.578 586.561C140.138 589.643 146.333 588.444 149.415 583.884C152.497 579.324 151.298 573.129 146.738 570.047Z" fill="url(#paint31_linear_2_3674)"/>
<path d="M114.239 551.286C110.068 548.468 104.403 549.564 101.584 553.735C98.7663 557.905 99.8624 563.57 104.033 566.388C108.203 569.207 113.869 568.111 116.687 563.94C119.506 559.77 118.409 554.104 114.239 551.286Z" fill="url(#paint32_linear_2_3674)"/>
<path d="M84.8957 528.136C81.2329 525.661 76.2568 526.624 73.7816 530.287C71.306 533.949 72.2689 538.925 75.9318 541.401C79.5948 543.876 84.5707 542.913 87.0462 539.25C89.5214 535.588 88.5585 530.611 84.8957 528.136Z" fill="url(#paint33_linear_2_3674)"/>
<path d="M59.3311 501.179C56.3022 499.132 52.1874 499.929 50.1405 502.958C48.0935 505.987 48.8896 510.102 51.9186 512.148C54.9475 514.195 59.0622 513.399 61.1092 510.37C63.1562 507.341 62.3601 503.226 59.3311 501.179Z" fill="url(#paint34_linear_2_3674)"/>
<path d="M38.0778 471.093C35.831 469.575 32.7783 470.165 31.26 472.412C29.7414 474.659 30.3319 477.711 32.579 479.23C34.8259 480.748 37.8785 480.158 39.3968 477.911C40.9154 475.664 40.3246 472.611 38.0778 471.093Z" fill="url(#paint35_linear_2_3674)"/>
<path d="M21.5854 438.625C20.2943 437.753 18.5404 438.092 17.6679 439.383C16.7957 440.674 17.135 442.428 18.4258 443.301C19.7169 444.173 21.4707 443.834 22.3432 442.543C23.2157 441.252 22.8764 439.498 21.5854 438.625Z" fill="url(#paint36_linear_2_3674)"/>
<path d="M9.89106 404.74C9.83575 404.822 9.85714 404.933 9.93925 404.989C10.0211 405.044 10.1326 405.023 10.1882 404.941C10.2435 404.859 10.2218 404.747 10.14 404.692C10.0579 404.636 9.94638 404.658 9.89106 404.74Z" fill="url(#paint37_linear_2_3674)"/>
<path d="M418.399 495.653C419.788 495.149 420.506 493.613 420.001 492.224C419.497 490.835 417.962 490.118 416.573 490.622C415.184 491.126 414.466 492.661 414.97 494.05C415.475 495.44 417.01 496.157 418.399 495.653Z" fill="url(#paint38_linear_2_3674)"/>
<path d="M385.838 511.079C383.357 511.979 382.076 514.72 382.976 517.201C383.876 519.682 386.618 520.963 389.099 520.063C391.58 519.162 392.861 516.421 391.96 513.94C391.06 511.459 388.318 510.178 385.838 511.079Z" fill="url(#paint39_linear_2_3674)"/>
<path d="M348.285 535.406C349.509 538.78 353.238 540.523 356.612 539.298C359.986 538.073 361.728 534.345 360.504 530.971C359.279 527.597 355.551 525.855 352.176 527.079C348.802 528.304 347.06 532.032 348.285 535.406Z" fill="url(#paint40_linear_2_3674)"/>
<path d="M321.731 553.028C325.832 551.539 327.951 547.007 326.462 542.905C324.973 538.804 320.441 536.686 316.339 538.175C312.237 539.663 310.119 544.195 311.608 548.297C313.097 552.399 317.629 554.517 321.731 553.028Z" fill="url(#paint41_linear_2_3674)"/>
<path d="M285.292 561.045C289.98 559.343 292.401 554.164 290.699 549.476C288.998 544.788 283.818 542.367 279.13 544.069C274.443 545.771 272.022 550.95 273.724 555.638C275.425 560.326 280.605 562.746 285.292 561.045Z" fill="url(#paint42_linear_2_3674)"/>
<path d="M248.139 563.22C253.277 561.355 255.93 555.678 254.065 550.54C252.2 545.402 246.523 542.749 241.385 544.613C236.247 546.479 233.594 552.156 235.459 557.294C237.324 562.432 243.001 565.085 248.139 563.22Z" fill="url(#paint43_linear_2_3674)"/>
<path d="M211.126 559.542C216.595 557.557 219.418 551.515 217.433 546.047C215.449 540.579 209.407 537.756 203.939 539.741C198.471 541.726 195.647 547.767 197.632 553.235C199.617 558.703 205.658 561.527 211.126 559.542Z" fill="url(#paint44_linear_2_3674)"/>
<path d="M175.112 550.091C180.797 548.028 183.733 541.746 181.669 536.061C179.605 530.375 173.323 527.439 167.639 529.503C161.953 531.567 159.017 537.848 161.081 543.533C163.145 549.219 169.426 552.155 175.112 550.091Z" fill="url(#paint45_linear_2_3674)"/>
<path d="M140.939 535.077C146.735 532.973 149.728 526.569 147.624 520.772C145.52 514.976 139.116 511.983 133.319 514.087C127.523 516.191 124.53 522.595 126.634 528.392C128.738 534.188 135.142 537.182 140.939 535.077Z" fill="url(#paint46_linear_2_3674)"/>
<path d="M109.392 514.861C115.192 512.756 118.187 506.348 116.082 500.548C113.977 494.748 107.568 491.754 101.769 493.859C95.9692 495.964 92.9741 502.372 95.0796 508.172C97.1847 513.971 103.593 516.966 109.392 514.861Z" fill="url(#paint47_linear_2_3674)"/>
<path d="M81.1508 489.976C86.8517 487.906 89.7957 481.607 87.7262 475.906C85.657 470.205 79.3579 467.262 73.657 469.331C67.9564 471.4 65.0124 477.7 67.0816 483.4C69.1511 489.101 75.4499 492.045 81.1508 489.976Z" fill="url(#paint48_linear_2_3674)"/>
<path d="M49.6346 441.057C44.1401 443.051 41.3028 449.122 43.2972 454.617C45.2915 460.111 51.3625 462.949 56.857 460.954C62.3515 458.959 65.1888 452.888 63.1946 447.394C61.2001 441.9 55.1291 439.062 49.6346 441.057Z" fill="url(#paint49_linear_2_3674)"/>
<path d="M43.0771 415.626C41.1992 410.453 35.4829 407.781 30.3092 409.659C25.1357 411.537 22.4641 417.253 24.3419 422.427C26.2198 427.6 31.9361 430.272 37.1099 428.394C42.2833 426.516 44.955 420.8 43.0771 415.626Z" fill="url(#paint50_linear_2_3674)"/>
<path d="M22.3552 393.023C27.0867 391.306 29.53 386.078 27.8124 381.346C26.095 376.615 20.8671 374.171 16.1359 375.889C11.4045 377.606 8.96117 382.834 10.6785 387.565C12.3959 392.297 17.6238 394.74 22.3552 393.023Z" fill="url(#paint51_linear_2_3674)"/>
<path d="M12.8878 355.625C17.0433 354.117 19.1892 349.525 17.6809 345.37C16.1725 341.214 11.581 339.068 7.42524 340.577C3.26973 342.085 1.12382 346.677 2.63217 350.832C4.14052 354.988 8.73229 357.134 12.8878 355.625Z" fill="url(#paint52_linear_2_3674)"/>
<path d="M8.87951 317.015C12.3159 315.768 14.0903 311.971 12.8431 308.535C11.5957 305.099 7.79886 303.324 4.36244 304.572C0.926033 305.819 -0.84863 309.615 0.398823 313.052C1.64628 316.488 5.44309 318.263 8.87951 317.015Z" fill="url(#paint53_linear_2_3674)"/>
<path d="M10.393 277.993C12.9421 277.068 14.2586 274.251 13.3333 271.702C12.4081 269.153 9.59124 267.836 7.04216 268.762C4.49308 269.687 3.17663 272.503 4.10188 275.052C5.02713 277.602 7.84395 278.918 10.393 277.993Z" fill="url(#paint54_linear_2_3674)"/>
<path d="M17.3853 239.355C18.85 238.824 19.6065 237.205 19.0747 235.741C18.543 234.276 16.9248 233.52 15.4601 234.051C13.9954 234.583 13.2389 236.201 13.7707 237.666C14.3022 239.131 15.9206 239.887 17.3853 239.355Z" fill="url(#paint55_linear_2_3674)"/>
<path d="M29.6535 201.79C29.7465 201.757 29.7946 201.654 29.7607 201.561C29.7271 201.468 29.6241 201.42 29.5312 201.453C29.4382 201.487 29.39 201.59 29.424 201.683C29.4576 201.776 29.5605 201.824 29.6535 201.79Z" fill="url(#paint56_linear_2_3674)"/>
<path d="M308.063 509.975C306.643 509.567 305.16 510.387 304.751 511.807C304.343 513.228 305.163 514.71 306.583 515.119C308.004 515.528 309.487 514.707 309.895 513.287C310.304 511.867 309.484 510.384 308.063 509.975Z" fill="url(#paint57_linear_2_3674)"/>
<path d="M274.445 514.373C275.175 511.837 273.71 509.189 271.174 508.459C268.637 507.73 265.99 509.194 265.26 511.73C264.53 514.267 265.995 516.915 268.531 517.644C271.068 518.375 273.716 516.91 274.445 514.373Z" fill="url(#paint58_linear_2_3674)"/>
<path d="M238.986 509.662C239.978 506.212 237.986 502.611 234.536 501.618C231.086 500.626 227.486 502.618 226.493 506.068C225.501 509.517 227.493 513.118 230.942 514.111C234.392 515.103 237.993 513.111 238.986 509.662Z" fill="url(#paint59_linear_2_3674)"/>
<path d="M204.43 499.308C205.637 495.114 203.215 490.737 199.022 489.53C194.828 488.324 190.451 490.746 189.244 494.939C188.038 499.133 190.459 503.51 194.653 504.716C198.846 505.923 203.224 503.501 204.43 499.308Z" fill="url(#paint60_linear_2_3674)"/>
<path d="M171.636 483.603C173.015 478.81 170.247 473.807 165.455 472.429C160.662 471.05 155.659 473.817 154.28 478.61C152.901 483.403 155.669 488.405 160.462 489.784C165.254 491.163 170.257 488.395 171.636 483.603Z" fill="url(#paint61_linear_2_3674)"/>
<path d="M141.373 462.931C142.884 457.677 139.851 452.194 134.598 450.683C129.345 449.172 123.861 452.205 122.35 457.458C120.839 462.711 123.872 468.194 129.125 469.706C134.378 471.217 139.862 468.184 141.373 462.931Z" fill="url(#paint62_linear_2_3674)"/>
<path d="M101.343 444.975C106.933 446.583 112.769 443.355 114.378 437.764C115.986 432.174 112.758 426.338 107.167 424.73C101.577 423.122 95.7412 426.35 94.1327 431.94C92.5246 437.531 95.7528 443.366 101.343 444.975Z" fill="url(#paint63_linear_2_3674)"/>
<path d="M83.8175 395.111C78.0048 393.438 71.9377 396.795 70.2654 402.608C68.5931 408.42 71.9495 414.487 77.7621 416.16C83.5745 417.832 89.6419 414.475 91.3139 408.663C92.9862 402.85 89.6299 396.783 83.8175 395.111Z" fill="url(#paint64_linear_2_3674)"/>
<path d="M58.94 383.927C64.8659 385.632 71.0521 382.21 72.757 376.284C74.4617 370.358 71.0399 364.172 65.1137 362.467C59.1878 360.762 53.0019 364.184 51.2971 370.11C49.592 376.036 53.0141 382.222 58.94 383.927Z" fill="url(#paint65_linear_2_3674)"/>
<path d="M45.3019 349.029C51.2312 350.735 57.4208 347.311 59.1268 341.381C60.8324 335.452 57.4086 329.262 51.4792 327.557C45.5497 325.851 39.3603 329.275 37.6543 335.204C35.9487 341.134 39.3725 347.323 45.3019 349.029Z" fill="url(#paint66_linear_2_3674)"/>
<path d="M50.6703 304.779C52.3472 298.951 48.9815 292.866 43.1531 291.19C37.3247 289.513 31.2403 292.878 29.5637 298.707C27.8869 304.535 31.2526 310.62 37.0809 312.296C42.9093 313.973 48.9935 310.607 50.6703 304.779Z" fill="url(#paint67_linear_2_3674)"/>
<path d="M34.4853 274.538C40.1027 276.154 45.9668 272.91 47.5829 267.293C49.1987 261.675 45.9551 255.811 40.3377 254.195C34.7203 252.579 28.8563 255.823 27.2401 261.44C25.6243 267.058 28.868 272.922 34.4853 274.538Z" fill="url(#paint68_linear_2_3674)"/>
<path d="M37.6478 236.589C42.9373 238.111 48.4586 235.057 49.9803 229.767C51.5018 224.478 48.4477 218.957 43.1583 217.435C37.8691 215.913 32.3475 218.967 30.8257 224.257C29.3043 229.546 32.3586 235.067 37.6478 236.589Z" fill="url(#paint69_linear_2_3674)"/>
<path d="M46.5018 199.3C51.339 200.692 56.3884 197.899 57.7802 193.061C59.1716 188.224 56.3785 183.175 51.5412 181.783C46.7039 180.392 41.6545 183.185 40.2628 188.022C38.8714 192.859 41.6645 197.909 46.5018 199.3Z" fill="url(#paint70_linear_2_3674)"/>
<path d="M60.8239 163.481C65.0724 164.703 69.5074 162.25 70.7297 158.001C71.9521 153.753 69.4988 149.318 65.25 148.095C61.0016 146.873 56.5666 149.326 55.3443 153.575C54.1222 157.823 56.5757 162.258 60.8239 163.481Z" fill="url(#paint71_linear_2_3674)"/>
<path d="M80.2758 129.889C83.7892 130.9 87.4566 128.871 88.467 125.358C89.4778 121.844 87.4492 118.177 83.9361 117.166C80.4227 116.155 76.7553 118.184 75.7445 121.698C74.734 125.211 76.7627 128.878 80.2758 129.889Z" fill="url(#paint72_linear_2_3674)"/>
<path d="M104.437 99.2083C107.043 99.9581 109.764 98.4529 110.513 95.8468C111.263 93.2406 109.758 90.52 107.152 89.7703C104.546 89.0205 101.825 90.5254 101.075 93.1318C100.325 95.7379 101.831 98.4583 104.437 99.2083Z" fill="url(#paint73_linear_2_3674)"/>
<path d="M132.804 72.0602C134.302 72.4911 135.865 71.6263 136.296 70.1288C136.726 68.6315 135.862 67.0682 134.364 66.6373C132.867 66.2068 131.303 67.0713 130.873 68.5685C130.442 70.0664 131.307 71.6294 132.804 72.0602Z" fill="url(#paint74_linear_2_3674)"/>
<path d="M164.81 48.8799C164.905 48.9073 165.004 48.8523 165.032 48.7573C165.059 48.6621 165.004 48.5629 164.909 48.5355C164.814 48.5081 164.714 48.5631 164.687 48.6581C164.66 48.7533 164.714 48.8525 164.81 48.8799Z" fill="url(#paint75_linear_2_3674)"/>
<path d="M205.145 461.388C203.98 462.296 203.772 463.978 204.681 465.144C205.59 466.309 207.271 466.517 208.437 465.608C209.602 464.699 209.81 463.017 208.901 461.852C207.992 460.687 206.311 460.478 205.145 461.388Z" fill="url(#paint76_linear_2_3674)"/>
<path d="M179.119 445.65C181.2 444.027 181.572 441.024 179.948 438.942C178.325 436.861 175.322 436.49 173.241 438.113C171.16 439.736 170.788 442.739 172.411 444.821C174.035 446.902 177.038 447.273 179.119 445.65Z" fill="url(#paint77_linear_2_3674)"/>
<path d="M131.331 392.308C134.772 389.625 135.386 384.66 132.702 381.219C130.019 377.778 125.054 377.164 121.613 379.847C118.172 382.531 117.558 387.496 120.242 390.936C122.925 394.377 127.89 394.991 131.331 392.308Z" fill="url(#paint78_linear_2_3674)"/>
<path d="M114.031 360.326C117.963 357.259 118.665 351.585 115.598 347.653C112.531 343.72 106.857 343.018 102.925 346.085C98.992 349.152 98.2904 354.826 101.357 358.759C104.424 362.691 110.099 363.393 114.031 360.326Z" fill="url(#paint79_linear_2_3674)"/>
<path d="M101.698 325.814C106.009 322.452 106.778 316.233 103.416 311.923C100.055 307.613 93.8355 306.844 89.5254 310.205C85.2154 313.567 84.4461 319.786 87.8075 324.096C91.1689 328.406 97.3882 329.175 101.698 325.814Z" fill="url(#paint80_linear_2_3674)"/>
<path d="M81.6961 272.975C77.1089 276.553 76.2905 283.171 79.8678 287.758C83.4453 292.345 90.0638 293.164 94.651 289.587C99.2379 286.009 100.057 279.391 96.4793 274.803C92.9017 270.216 86.2832 269.398 81.6961 272.975Z" fill="url(#paint81_linear_2_3674)"/>
<path d="M93.0975 252.486C97.8669 248.767 98.7177 241.885 94.9982 237.116C91.279 232.347 84.3973 231.496 79.6282 235.215C74.8587 238.935 74.0079 245.816 77.7272 250.586C81.4467 255.355 88.3281 256.206 93.0975 252.486Z" fill="url(#paint82_linear_2_3674)"/>
<path d="M99.0546 199.713C95.2623 194.851 88.2464 193.983 83.3841 197.775C78.5217 201.567 77.654 208.583 81.446 213.446C85.2383 218.308 92.2543 219.176 97.1165 215.384C101.979 211.591 102.847 204.575 99.0546 199.713Z" fill="url(#paint83_linear_2_3674)"/>
<path d="M90.9248 177.196C94.7191 182.062 101.739 182.93 106.604 179.136C111.469 175.341 112.338 168.321 108.543 163.456C104.749 158.591 97.7292 157.723 92.8637 161.517C87.9985 165.311 87.1306 172.331 90.9248 177.196Z" fill="url(#paint84_linear_2_3674)"/>
<path d="M105.865 142.647C109.595 147.43 116.495 148.283 121.277 144.553C126.06 140.823 126.913 133.923 123.184 129.14C119.453 124.358 112.553 123.505 107.771 127.234C102.988 130.964 102.135 137.864 105.865 142.647Z" fill="url(#paint85_linear_2_3674)"/>
<path d="M140.814 112.411C145.423 108.816 146.245 102.166 142.651 97.5566C139.056 92.9471 132.405 92.1248 127.796 95.7194C123.187 99.3141 122.365 105.965 125.959 110.574C129.554 115.183 136.205 116.006 140.814 112.411Z" fill="url(#paint86_linear_2_3674)"/>
<path d="M164.81 83.4616C169.15 80.0768 169.924 73.8147 166.54 69.4747C163.155 65.1345 156.893 64.36 152.553 67.7448C148.213 71.1296 147.438 77.3917 150.823 81.7317C154.208 86.072 160.47 86.8464 164.81 83.4616Z" fill="url(#paint87_linear_2_3674)"/>
<path d="M192.696 58.3509C196.665 55.2554 197.373 49.5283 194.278 45.5592C191.182 41.5902 185.455 40.8819 181.486 43.9773C177.517 47.0727 176.809 52.7996 179.904 56.7689C183 60.738 188.727 61.4462 192.696 58.3509Z" fill="url(#paint88_linear_2_3674)"/>
<path d="M223.78 37.5978C227.266 34.8791 227.888 29.8491 225.169 26.363C222.451 22.877 217.421 22.2549 213.935 24.9736C210.449 27.6923 209.826 32.7223 212.545 36.2084C215.264 39.6944 220.294 40.3165 223.78 37.5978Z" fill="url(#paint89_linear_2_3674)"/>
<path d="M257.317 21.6142C260.2 19.3659 260.714 15.2067 258.466 12.3237C256.218 9.44106 252.059 8.92668 249.176 11.1749C246.293 13.4232 245.779 17.5827 248.027 20.4651C250.275 23.3481 254.435 23.8625 257.317 21.6142Z" fill="url(#paint90_linear_2_3674)"/>
<path d="M292.499 10.6984C294.637 9.03036 295.019 5.94494 293.351 3.80645C291.683 1.66796 288.598 1.28617 286.459 2.95419C284.321 4.62164 283.939 7.70734 285.607 9.84583C287.275 11.9843 290.36 12.3661 292.499 10.6984Z" fill="url(#paint91_linear_2_3674)"/>
<path d="M328.474 5.04624C329.703 4.08791 329.922 2.31525 328.963 1.08661C328.005 -0.142308 326.232 -0.361574 325.004 0.596754C323.775 1.55508 323.556 3.32775 324.514 4.55667C325.472 5.7853 327.245 6.00457 328.474 5.04624Z" fill="url(#paint92_linear_2_3674)"/>
<path d="M364.284 4.64674C364.362 4.58572 364.376 4.47309 364.315 4.39525C364.254 4.31713 364.141 4.30316 364.063 4.36417C363.985 4.42491 363.971 4.53753 364.032 4.61566C364.093 4.69379 364.206 4.70747 364.284 4.64674Z" fill="url(#paint93_linear_2_3674)"/>
<path d="M154.198 362.05C152.721 362.1 151.565 363.339 151.615 364.816C151.665 366.293 152.903 367.45 154.381 367.399C155.858 367.349 157.014 366.111 156.964 364.634C156.914 363.157 155.675 362 154.198 362.05Z" fill="url(#paint94_linear_2_3674)"/>
<path d="M142.393 334.02C145.031 333.93 147.096 331.719 147.006 329.081C146.917 326.444 144.706 324.378 142.068 324.468C139.43 324.558 137.364 326.769 137.454 329.407C137.544 332.044 139.755 334.11 142.393 334.02Z" fill="url(#paint95_linear_2_3674)"/>
<path d="M135.916 298.84C139.504 298.718 142.313 295.71 142.191 292.123C142.069 288.535 139.062 285.726 135.474 285.848C131.887 285.97 129.077 288.978 129.199 292.565C129.321 296.153 132.329 298.962 135.916 298.84Z" fill="url(#paint96_linear_2_3674)"/>
<path d="M135.085 262.776C139.446 262.628 142.861 258.972 142.713 254.611C142.564 250.25 138.908 246.835 134.548 246.984C130.186 247.132 126.771 250.788 126.92 255.149C127.068 259.51 130.724 262.925 135.085 262.776Z" fill="url(#paint97_linear_2_3674)"/>
<path d="M148.605 217.402C148.435 212.418 144.257 208.515 139.273 208.685C134.289 208.855 130.386 213.033 130.556 218.017C130.725 223.001 134.903 226.904 139.888 226.734C144.872 226.564 148.774 222.386 148.605 217.402Z" fill="url(#paint98_linear_2_3674)"/>
<path d="M159.751 181.336C159.565 175.873 154.986 171.595 149.523 171.781C144.06 171.967 139.782 176.547 139.968 182.009C140.154 187.472 144.734 191.75 150.197 191.564C155.659 191.378 159.937 186.799 159.751 181.336Z" fill="url(#paint99_linear_2_3674)"/>
<path d="M165.072 137.06C159.258 137.257 154.705 142.131 154.903 147.945C155.101 153.759 159.975 158.311 165.788 158.113C171.602 157.915 176.155 153.042 175.957 147.228C175.759 141.414 170.885 136.862 165.072 137.06Z" fill="url(#paint100_linear_2_3674)"/>
<path d="M186.339 127.185C192.383 126.98 197.117 121.912 196.911 115.868C196.705 109.823 191.638 105.09 185.593 105.296C179.548 105.502 174.815 110.568 175.021 116.613C175.227 122.658 180.294 127.391 186.339 127.185Z" fill="url(#paint101_linear_2_3674)"/>
<path d="M211.399 99.531C217.561 99.3212 222.387 94.1551 222.177 87.9923C221.968 81.8298 216.802 77.0039 210.639 77.2137C204.476 77.4233 199.65 82.5897 199.86 88.7522C200.07 94.9151 205.236 99.7409 211.399 99.531Z" fill="url(#paint102_linear_2_3674)"/>
<path d="M240.381 75.7824C246.547 75.5725 251.376 70.4034 251.165 64.2371C250.956 58.0708 245.787 53.2421 239.62 53.4523C233.454 53.6621 228.625 58.831 228.835 64.9976C229.045 71.1638 234.214 75.9922 240.381 75.7824Z" fill="url(#paint103_linear_2_3674)"/>
<path d="M272.578 56.4295C278.64 56.223 283.386 51.1422 283.179 45.0806C282.973 39.0193 277.892 34.273 271.831 34.4794C265.77 34.6858 261.023 39.7669 261.229 45.8282C261.436 51.8896 266.517 56.6359 272.578 56.4295Z" fill="url(#paint104_linear_2_3674)"/>
<path d="M307.276 41.9089C313.118 41.7099 317.693 36.813 317.494 30.971C317.295 25.1292 312.398 20.5545 306.556 20.7536C300.714 20.9526 296.139 25.8495 296.338 31.6915C296.537 37.5333 301.434 42.108 307.276 41.9089Z" fill="url(#paint105_linear_2_3674)"/>
<path d="M343.706 32.5932C349.207 32.4059 353.513 27.795 353.326 22.2943C353.139 16.7935 348.528 12.4863 343.027 12.6736C337.526 12.8607 333.22 17.4718 333.407 22.9726C333.594 28.4731 338.205 32.7806 343.706 32.5932Z" fill="url(#paint106_linear_2_3674)"/>
<path d="M381.025 28.6686C386.056 28.4973 389.995 24.2807 389.824 19.2498C389.652 14.2193 385.435 10.2802 380.405 10.4518C375.375 10.6226 371.435 14.8397 371.606 19.8703C371.778 24.9006 375.994 28.84 381.025 28.6686Z" fill="url(#paint107_linear_2_3674)"/>
<path d="M418.372 30.1502C422.79 29.9996 426.25 26.296 426.099 21.8776C425.948 17.4595 422.245 13.9997 417.827 14.15C413.408 14.3005 409.949 18.0041 410.099 22.4225C410.249 26.8409 413.953 30.3007 418.372 30.1502Z" fill="url(#paint108_linear_2_3674)"/>
<path d="M454.899 36.932C458.552 36.8077 461.413 33.7448 461.288 30.0914C461.164 26.4377 458.102 23.5767 454.448 23.701C450.794 23.8254 447.933 26.8882 448.058 30.5416C448.182 34.1953 451.245 37.0563 454.899 36.932Z" fill="url(#paint109_linear_2_3674)"/>
<path d="M489.777 48.7798C492.488 48.6874 494.61 46.4155 494.518 43.7053C494.426 40.9948 492.154 38.8723 489.443 38.9647C486.733 39.0571 484.61 41.329 484.703 44.0395C484.795 46.7496 487.067 48.8722 489.777 48.7798Z" fill="url(#paint110_linear_2_3674)"/>
<path d="M522.204 65.3528C523.761 65.2998 524.98 63.9944 524.928 62.437C524.875 60.88 523.569 59.6604 522.012 59.7135C520.455 59.7665 519.235 61.0719 519.288 62.6292C519.341 64.1863 520.647 65.4058 522.204 65.3528Z" fill="url(#paint111_linear_2_3674)"/>
<path d="M551.409 86.0782C551.508 86.0748 551.586 85.9918 551.582 85.8928C551.579 85.7939 551.496 85.7166 551.397 85.7201C551.298 85.7232 551.221 85.8062 551.224 85.9051C551.227 86.004 551.31 86.0816 551.409 86.0782Z" fill="url(#paint112_linear_2_3674)"/>
<path d="M171.37 251.739C170.146 250.911 168.482 251.233 167.655 252.457C166.827 253.682 167.149 255.346 168.374 256.173C169.598 257.001 171.262 256.679 172.089 255.454C172.917 254.23 172.595 252.566 171.37 251.739Z" fill="url(#paint113_linear_2_3674)"/>
<path d="M184.931 220.839C186.408 218.652 185.834 215.681 183.647 214.204C181.46 212.726 178.489 213.301 177.011 215.487C175.534 217.674 176.108 220.645 178.295 222.123C180.482 223.601 183.453 223.026 184.931 220.839Z" fill="url(#paint114_linear_2_3674)"/>
<path d="M191.988 180.83C189.978 183.804 190.76 187.844 193.734 189.854C196.708 191.864 200.748 191.082 202.758 188.108C204.768 185.134 203.987 181.094 201.013 179.084C198.038 177.074 193.998 177.856 191.988 180.83Z" fill="url(#paint115_linear_2_3674)"/>
<path d="M223.107 147.097C219.491 144.654 214.58 145.604 212.137 149.22C209.693 152.835 210.644 157.747 214.259 160.19C217.875 162.633 222.786 161.683 225.229 158.068C227.673 154.452 226.722 149.541 223.107 147.097Z" fill="url(#paint116_linear_2_3674)"/>
<path d="M251.867 131.428C254.659 127.296 253.573 121.683 249.442 118.891C245.309 116.098 239.696 117.184 236.904 121.316C234.112 125.448 235.198 131.062 239.33 133.854C243.461 136.646 249.075 135.56 251.867 131.428Z" fill="url(#paint117_linear_2_3674)"/>
<path d="M268.342 111.46C272.871 114.521 279.023 113.33 282.084 108.802C285.144 104.272 283.954 98.12 279.425 95.0593C274.896 91.9993 268.744 93.1891 265.683 97.7185C262.623 102.247 263.813 108.399 268.342 111.46Z" fill="url(#paint118_linear_2_3674)"/>
<path d="M315.243 90.7332C318.5 85.9134 317.233 79.3659 312.413 76.1088C307.593 72.8515 301.046 74.1183 297.789 78.9382C294.531 83.7581 295.798 90.3056 300.618 93.5627C305.438 96.82 311.986 95.5531 315.243 90.7332Z" fill="url(#paint119_linear_2_3674)"/>
<path d="M350.627 77.6788C354.014 72.6677 352.697 65.8598 347.686 62.4736C342.674 59.0871 335.867 60.4041 332.48 65.4153C329.094 70.4265 330.411 77.2343 335.422 80.6211C340.434 84.0071 347.241 82.69 350.627 77.6788Z" fill="url(#paint120_linear_2_3674)"/>
<path d="M387.454 69.9782C390.906 64.869 389.563 57.9285 384.454 54.4759C379.345 51.0232 372.405 52.3659 368.952 57.4752C365.5 62.5842 366.842 69.5249 371.951 72.9775C377.06 76.4302 384.001 75.0872 387.454 69.9782Z" fill="url(#paint121_linear_2_3674)"/>
<path d="M409.357 70.7997C414.469 74.2543 421.414 72.9105 424.868 67.7989C428.323 62.6865 426.979 55.7419 421.867 52.2872C416.755 48.8325 409.811 50.1764 406.356 55.2882C402.902 60.4004 404.245 67.345 409.357 70.7997Z" fill="url(#paint122_linear_2_3674)"/>
<path d="M446.781 74.0682C451.807 77.4638 458.633 76.1431 462.028 71.1182C465.424 66.0931 464.103 59.2667 459.079 55.8708C454.053 52.4752 447.227 53.7959 443.832 58.8211C440.435 63.8459 441.756 70.6723 446.781 74.0682Z" fill="url(#paint123_linear_2_3674)"/>
<path d="M483.387 82.7159C488.23 85.9886 494.81 84.7158 498.082 79.8726C501.355 75.0296 500.082 68.4499 495.239 65.1774C490.396 61.9047 483.817 63.1775 480.544 68.0208C477.271 72.8634 478.544 79.4431 483.387 82.7159Z" fill="url(#paint124_linear_2_3674)"/>
<path d="M518.335 96.5918C522.895 99.6736 529.09 98.4749 532.172 93.9148C535.254 89.3546 534.055 83.1596 529.495 80.0779C524.935 76.9962 518.74 78.1949 515.658 82.7549C512.576 87.3151 513.775 93.5101 518.335 96.5918Z" fill="url(#paint125_linear_2_3674)"/>
<path d="M550.834 115.353C555.004 118.171 560.67 117.075 563.488 112.904C566.306 108.734 565.21 103.068 561.04 100.25C556.869 97.4319 551.204 98.5279 548.385 102.699C545.567 106.869 546.663 112.534 550.834 115.353Z" fill="url(#paint126_linear_2_3674)"/>
<path d="M580.177 138.503C583.84 140.978 588.815 140.016 591.291 136.353C593.766 132.69 592.804 127.713 589.141 125.238C585.478 122.763 580.502 123.726 578.026 127.389C575.551 131.052 576.514 136.028 580.177 138.503Z" fill="url(#paint127_linear_2_3674)"/>
<path d="M605.742 165.459C608.77 167.506 612.885 166.71 614.932 163.681C616.979 160.652 616.183 156.537 613.154 154.491C610.125 152.444 606.01 153.24 603.964 156.269C601.916 159.298 602.713 163.413 605.742 165.459Z" fill="url(#paint128_linear_2_3674)"/>
<path d="M626.995 195.546C629.242 197.064 632.294 196.474 633.813 194.227C635.331 191.98 634.741 188.928 632.494 187.409C630.247 185.891 627.194 186.481 625.676 188.728C624.158 190.975 624.748 194.028 626.995 195.546Z" fill="url(#paint129_linear_2_3674)"/>
<path d="M643.487 228.014C644.779 228.886 646.532 228.547 647.405 227.256C648.277 225.965 647.938 224.211 646.647 223.339C645.356 222.466 643.602 222.806 642.729 224.096C641.857 225.387 642.196 227.141 643.487 228.014Z" fill="url(#paint130_linear_2_3674)"/>
<path d="M655.182 261.899C655.237 261.817 655.216 261.706 655.134 261.65C655.052 261.595 654.94 261.616 654.885 261.698C654.83 261.78 654.851 261.892 654.933 261.947C655.015 262.003 655.127 261.981 655.182 261.899Z" fill="url(#paint131_linear_2_3674)"/>
<path d="M246.674 170.986C245.284 171.49 244.567 173.025 245.071 174.414C245.576 175.804 247.11 176.521 248.5 176.017C249.889 175.512 250.606 173.977 250.102 172.588C249.598 171.199 248.063 170.481 246.674 170.986Z" fill="url(#paint132_linear_2_3674)"/>
<path d="M275.974 146.576C273.493 147.476 272.212 150.217 273.112 152.698C274.013 155.18 276.754 156.461 279.235 155.56C281.716 154.659 282.997 151.919 282.097 149.437C281.196 146.956 278.455 145.676 275.974 146.576Z" fill="url(#paint133_linear_2_3674)"/>
<path d="M316.788 131.232C315.563 127.858 311.835 126.116 308.461 127.341C305.087 128.565 303.345 132.294 304.569 135.667C305.794 139.042 309.522 140.784 312.897 139.56C316.27 138.335 318.013 134.607 316.788 131.232Z" fill="url(#paint134_linear_2_3674)"/>
<path d="M353.464 118.342C351.976 114.24 347.444 112.122 343.342 113.611C339.24 115.099 337.122 119.631 338.611 123.733C340.1 127.835 344.632 129.953 348.734 128.464C352.835 126.975 354.954 122.443 353.464 118.342Z" fill="url(#paint135_linear_2_3674)"/>
<path d="M379.78 105.594C375.092 107.295 372.672 112.475 374.373 117.163C376.075 121.851 381.254 124.271 385.942 122.57C390.63 120.868 393.051 115.689 391.349 111.001C389.648 106.313 384.468 103.892 379.78 105.594Z" fill="url(#paint136_linear_2_3674)"/>
<path d="M416.934 103.419C411.796 105.284 409.143 110.961 411.007 116.099C412.872 121.237 418.55 123.89 423.688 122.025C428.826 120.16 431.479 114.483 429.614 109.345C427.749 104.207 422.072 101.554 416.934 103.419Z" fill="url(#paint137_linear_2_3674)"/>
<path d="M453.946 107.096C448.478 109.081 445.655 115.123 447.639 120.591C449.624 126.059 455.666 128.883 461.134 126.898C466.602 124.913 469.426 118.872 467.441 113.403C465.456 107.935 459.414 105.112 453.946 107.096Z" fill="url(#paint138_linear_2_3674)"/>
<path d="M489.961 116.548C484.276 118.611 481.34 124.893 483.403 130.578C485.467 136.263 491.749 139.199 497.434 137.136C503.119 135.072 506.055 128.79 503.992 123.105C501.928 117.42 495.646 114.484 489.961 116.548Z" fill="url(#paint139_linear_2_3674)"/>
<path d="M524.135 131.561C518.338 133.665 515.345 140.07 517.449 145.866C519.553 151.662 525.957 154.656 531.753 152.552C537.55 150.448 540.543 144.043 538.439 138.247C536.335 132.451 529.931 129.457 524.135 131.561Z" fill="url(#paint140_linear_2_3674)"/>
<path d="M555.68 151.778C549.881 153.883 546.886 160.291 548.991 166.091C551.096 171.89 557.504 174.885 563.304 172.78C569.103 170.675 572.098 164.267 569.993 158.467C567.888 152.668 561.48 149.673 555.68 151.778Z" fill="url(#paint141_linear_2_3674)"/>
<path d="M583.922 176.663C578.221 178.732 575.277 185.031 577.346 190.732C579.415 196.433 585.715 199.377 591.416 197.308C597.117 195.238 600.06 188.939 597.991 183.238C595.922 177.537 589.623 174.594 583.922 176.663Z" fill="url(#paint142_linear_2_3674)"/>
<path d="M615.438 225.582C620.933 223.588 623.77 217.517 621.776 212.022C619.781 206.528 613.711 203.69 608.216 205.685C602.721 207.679 599.884 213.75 601.878 219.245C603.873 224.739 609.944 227.577 615.438 225.582Z" fill="url(#paint143_linear_2_3674)"/>
<path d="M621.995 251.013C623.873 256.186 629.59 258.858 634.764 256.98C639.937 255.102 642.609 249.386 640.731 244.212C638.853 239.038 633.137 236.367 627.963 238.245C622.79 240.123 620.118 245.839 621.995 251.013Z" fill="url(#paint144_linear_2_3674)"/>
<path d="M654.394 279.073C652.677 274.342 647.449 271.899 642.717 273.616C637.986 275.334 635.542 280.561 637.26 285.293C638.978 290.024 644.205 292.467 648.937 290.75C653.668 289.032 656.111 283.805 654.394 279.073Z" fill="url(#paint145_linear_2_3674)"/>
<path d="M652.185 311.013C648.029 312.521 645.883 317.113 647.392 321.269C648.901 325.424 653.492 327.57 657.647 326.062C661.803 324.553 663.949 319.962 662.441 315.806C660.932 311.65 656.341 309.505 652.185 311.013Z" fill="url(#paint146_linear_2_3674)"/>
<path d="M664.674 353.587C663.426 350.15 659.63 348.376 656.193 349.623C652.757 350.871 650.982 354.667 652.229 358.104C653.477 361.54 657.274 363.315 660.711 362.067C664.147 360.82 665.921 357.023 664.674 353.587Z" fill="url(#paint147_linear_2_3674)"/>
<path d="M654.68 388.646C652.131 389.571 650.814 392.388 651.739 394.937C652.665 397.486 655.482 398.802 658.031 397.877C660.58 396.952 661.896 394.135 660.971 391.586C660.046 389.037 657.229 387.72 654.68 388.646Z" fill="url(#paint148_linear_2_3674)"/>
<path d="M647.688 427.283C646.223 427.814 645.466 429.433 645.998 430.897C646.53 432.362 648.148 433.119 649.613 432.587C651.078 432.056 651.834 430.437 651.302 428.972C650.771 427.507 649.152 426.751 647.688 427.283Z" fill="url(#paint149_linear_2_3674)"/>
<path d="M635.419 464.849C635.326 464.882 635.278 464.985 635.312 465.078C635.346 465.171 635.448 465.219 635.542 465.186C635.635 465.152 635.683 465.049 635.649 464.956C635.615 464.863 635.512 464.815 635.419 464.849Z" fill="url(#paint150_linear_2_3674)"/>
<path d="M357.009 156.663C358.43 157.072 359.913 156.252 360.321 154.831C360.73 153.411 359.91 151.929 358.49 151.52C357.069 151.111 355.586 151.932 355.178 153.352C354.769 154.772 355.589 156.255 357.009 156.663Z" fill="url(#paint151_linear_2_3674)"/>
<path d="M390.627 152.266C389.898 154.802 391.362 157.45 393.899 158.18C396.436 158.909 399.083 157.444 399.813 154.908C400.543 152.372 399.078 149.724 396.541 148.994C394.005 148.264 391.357 149.729 390.627 152.266Z" fill="url(#paint152_linear_2_3674)"/>
<path d="M434.13 152.528C430.681 151.535 427.08 153.527 426.087 156.977C425.095 160.427 427.087 164.028 430.537 165.02C433.986 166.013 437.587 164.021 438.58 160.571C439.572 157.121 437.58 153.52 434.13 152.528Z" fill="url(#paint153_linear_2_3674)"/>
<path d="M460.642 167.331C459.436 171.524 461.857 175.902 466.051 177.108C470.244 178.315 474.622 175.893 475.828 171.7C477.034 167.506 474.613 163.129 470.42 161.922C466.226 160.716 461.849 163.137 460.642 167.331Z" fill="url(#paint154_linear_2_3674)"/>
<path d="M493.437 183.036C492.058 187.829 494.825 192.832 499.618 194.21C504.41 195.589 509.414 192.822 510.792 188.029C512.171 183.236 509.404 178.234 504.611 176.855C499.818 175.476 494.816 178.243 493.437 183.036Z" fill="url(#paint155_linear_2_3674)"/>
<path d="M523.7 203.708C522.189 208.961 525.222 214.445 530.475 215.956C535.728 217.467 541.211 214.434 542.722 209.181C544.234 203.928 541.2 198.444 535.947 196.933C530.694 195.422 525.211 198.455 523.7 203.708Z" fill="url(#paint156_linear_2_3674)"/>
<path d="M563.73 221.664C558.139 220.056 552.304 223.284 550.695 228.874C549.087 234.465 552.315 240.3 557.905 241.909C563.496 243.517 569.332 240.289 570.94 234.698C572.548 229.108 569.32 223.272 563.73 221.664Z" fill="url(#paint157_linear_2_3674)"/>
<path d="M581.255 271.528C587.067 273.2 593.135 269.843 594.807 264.031C596.479 258.219 593.123 252.151 587.31 250.479C581.498 248.807 575.431 252.163 573.758 257.976C572.087 263.788 575.443 269.855 581.255 271.528Z" fill="url(#paint158_linear_2_3674)"/>
<path d="M599.959 304.172C605.885 305.877 612.071 302.455 613.776 296.529C615.481 290.602 612.059 284.417 606.133 282.712C600.207 281.007 594.021 284.429 592.316 290.355C590.61 296.281 594.033 302.467 599.959 304.172Z" fill="url(#paint159_linear_2_3674)"/>
<path d="M627.418 331.435C629.124 325.505 625.701 319.315 619.77 317.61C613.842 315.904 607.652 319.328 605.946 325.257C604.24 331.187 607.664 337.376 613.594 339.082C619.523 340.788 625.713 337.364 627.418 331.435Z" fill="url(#paint160_linear_2_3674)"/>
<path d="M621.92 375.449C627.748 377.126 633.832 373.76 635.509 367.932C637.186 362.104 633.82 356.019 627.992 354.342C622.164 352.666 616.08 356.031 614.403 361.86C612.726 367.688 616.091 373.772 621.92 375.449Z" fill="url(#paint161_linear_2_3674)"/>
<path d="M630.587 392.101C624.97 390.485 619.105 393.728 617.49 399.346C615.874 404.963 619.118 410.827 624.735 412.443C630.352 414.06 636.216 410.816 637.832 405.198C639.448 399.581 636.205 393.717 630.587 392.101Z" fill="url(#paint162_linear_2_3674)"/>
<path d="M627.425 430.05C622.136 428.528 616.614 431.582 615.093 436.872C613.571 442.161 616.625 447.682 621.914 449.204C627.204 450.726 632.725 447.671 634.246 442.382C635.769 437.093 632.714 431.571 627.425 430.05Z" fill="url(#paint163_linear_2_3674)"/>
<path d="M618.571 467.338C613.734 465.947 608.684 468.74 607.292 473.577C605.901 478.414 608.694 483.464 613.532 484.856C618.369 486.247 623.418 483.454 624.81 478.616C626.201 473.779 623.408 468.73 618.571 467.338Z" fill="url(#paint164_linear_2_3674)"/>
<path d="M604.248 503.158C600 501.936 595.565 504.389 594.343 508.638C593.12 512.886 595.574 517.321 599.822 518.544C604.071 519.766 608.506 517.312 609.728 513.064C610.95 508.815 608.497 504.38 604.248 503.158Z" fill="url(#paint165_linear_2_3674)"/>
<path d="M584.797 536.75C581.284 535.739 577.617 537.768 576.606 541.282C575.595 544.794 577.623 548.462 581.137 549.473C584.65 550.483 588.317 548.455 589.328 544.941C590.339 541.428 588.31 537.761 584.797 536.75Z" fill="url(#paint166_linear_2_3674)"/>
<path d="M560.636 567.431C558.03 566.681 555.309 568.186 554.559 570.792C553.809 573.398 555.314 576.119 557.92 576.868C560.527 577.618 563.247 576.113 563.997 573.507C564.747 570.901 563.242 568.18 560.636 567.431Z" fill="url(#paint167_linear_2_3674)"/>
<path d="M532.269 594.579C530.771 594.148 529.208 595.013 528.777 596.51C528.346 598.007 529.211 599.571 530.708 600.001C532.206 600.432 533.769 599.567 534.2 598.07C534.631 596.573 533.766 595.01 532.269 594.579Z" fill="url(#paint168_linear_2_3674)"/>
<path d="M500.263 617.759C500.168 617.732 500.069 617.786 500.041 617.882C500.014 617.977 500.069 618.076 500.164 618.103C500.259 618.131 500.358 618.076 500.386 617.981C500.413 617.885 500.358 617.786 500.263 617.759Z" fill="url(#paint169_linear_2_3674)"/>
<path d="M456.636 201.031C455.471 201.94 455.262 203.621 456.171 204.787C457.08 205.952 458.762 206.16 459.927 205.251C461.093 204.342 461.301 202.661 460.392 201.495C459.483 200.33 457.801 200.122 456.636 201.031Z" fill="url(#paint170_linear_2_3674)"/>
<path d="M492.661 221.819C491.038 219.737 488.035 219.366 485.954 220.989C483.873 222.612 483.501 225.615 485.124 227.697C486.747 229.778 489.751 230.149 491.832 228.526C493.913 226.903 494.285 223.9 492.661 221.819Z" fill="url(#paint171_linear_2_3674)"/>
<path d="M510.744 254.765C512.952 257.596 517.036 258.101 519.866 255.894C522.697 253.686 523.202 249.602 520.994 246.772C518.787 243.941 514.703 243.436 511.872 245.643C509.042 247.851 508.536 251.935 510.744 254.765Z" fill="url(#paint172_linear_2_3674)"/>
<path d="M533.742 274.331C530.301 277.014 529.687 281.979 532.371 285.42C535.054 288.861 540.019 289.475 543.46 286.791C546.9 284.108 547.515 279.143 544.831 275.702C542.148 272.261 537.183 271.648 533.742 274.331Z" fill="url(#paint173_linear_2_3674)"/>
<path d="M563.716 307.88C560.649 303.947 554.975 303.246 551.042 306.313C547.109 309.379 546.408 315.053 549.475 318.986C552.541 322.919 558.216 323.62 562.148 320.553C566.081 317.486 566.783 311.812 563.716 307.88Z" fill="url(#paint174_linear_2_3674)"/>
<path d="M575.547 356.434C579.858 353.072 580.627 346.853 577.265 342.543C573.904 338.233 567.685 337.463 563.374 340.825C559.064 344.187 558.295 350.406 561.656 354.716C565.018 359.026 571.237 359.795 575.547 356.434Z" fill="url(#paint175_linear_2_3674)"/>
<path d="M583.377 393.664C587.964 390.086 588.782 383.468 585.205 378.88C581.628 374.293 575.009 373.475 570.422 377.052C565.834 380.63 565.016 387.248 568.593 391.836C572.171 396.423 578.79 397.241 583.377 393.664Z" fill="url(#paint176_linear_2_3674)"/>
<path d="M571.975 414.152C567.206 417.872 566.355 424.753 570.074 429.522C573.794 434.292 580.675 435.143 585.445 431.424C590.214 427.704 591.065 420.822 587.345 416.053C583.626 411.284 576.744 410.433 571.975 414.152Z" fill="url(#paint177_linear_2_3674)"/>
<path d="M566.018 466.925C569.811 471.788 576.826 472.656 581.689 468.864C586.551 465.071 587.419 458.055 583.627 453.193C579.834 448.331 572.819 447.463 567.956 451.255C563.094 455.047 562.226 462.063 566.018 466.925Z" fill="url(#paint178_linear_2_3674)"/>
<path d="M574.148 489.442C570.354 484.577 563.334 483.709 558.469 487.503C553.603 491.298 552.735 498.318 556.529 503.182C560.324 508.048 567.344 508.916 572.209 505.122C577.074 501.327 577.943 494.307 574.148 489.442Z" fill="url(#paint179_linear_2_3674)"/>
<path d="M559.208 523.992C555.478 519.209 548.578 518.356 543.796 522.086C539.013 525.815 538.16 532.716 541.889 537.499C545.619 542.281 552.52 543.134 557.302 539.404C562.085 535.675 562.938 528.774 559.208 523.992Z" fill="url(#paint180_linear_2_3674)"/>
<path d="M524.259 554.228C519.65 557.822 518.827 564.473 522.422 569.082C526.017 573.692 532.668 574.514 537.277 570.92C541.886 567.325 542.708 560.674 539.114 556.065C535.519 551.456 528.868 550.633 524.259 554.228Z" fill="url(#paint181_linear_2_3674)"/>
<path d="M500.263 583.177C495.923 586.562 495.148 592.824 498.533 597.165C501.918 601.504 508.18 602.279 512.52 598.894C516.86 595.509 517.634 589.247 514.25 584.907C510.865 580.567 504.603 579.792 500.263 583.177Z" fill="url(#paint182_linear_2_3674)"/>
<path d="M472.378 608.288C468.408 611.384 467.7 617.111 470.795 621.08C473.891 625.049 479.618 625.757 483.587 622.661C487.556 619.566 488.265 613.839 485.169 609.87C482.074 605.901 476.346 605.193 472.378 608.288Z" fill="url(#paint183_linear_2_3674)"/>
<path d="M441.293 629.04C437.807 631.759 437.185 636.79 439.903 640.275C442.622 643.762 447.652 644.384 451.138 641.665C454.624 638.947 455.246 633.916 452.528 630.43C449.809 626.944 444.779 626.322 441.293 629.04Z" fill="url(#paint184_linear_2_3674)"/>
<path d="M407.756 645.025C404.873 647.273 404.359 651.432 406.607 654.315C408.855 657.198 413.014 657.712 415.897 655.464C418.78 653.215 419.294 649.056 417.046 646.173C414.798 643.29 410.638 642.776 407.756 645.025Z" fill="url(#paint185_linear_2_3674)"/>
<path d="M372.574 655.94C370.436 657.608 370.054 660.694 371.722 662.832C373.39 664.971 376.475 665.352 378.613 663.684C380.752 662.017 381.134 658.931 379.466 656.792C377.798 654.654 374.713 654.273 372.574 655.94Z" fill="url(#paint186_linear_2_3674)"/>
<path d="M336.599 661.593C335.37 662.551 335.151 664.323 336.11 665.552C337.068 666.781 338.841 667 340.069 666.042C341.298 665.084 341.517 663.311 340.559 662.082C339.601 660.853 337.828 660.634 336.599 661.593Z" fill="url(#paint187_linear_2_3674)"/>
<path d="M300.789 661.992C300.711 662.053 300.697 662.166 300.758 662.243C300.819 662.321 300.931 662.336 301.01 662.274C301.088 662.214 301.102 662.101 301.041 662.023C300.98 661.945 300.867 661.931 300.789 661.992Z" fill="url(#paint188_linear_2_3674)"/>
</g>
</g>
<defs>
<linearGradient id="paint0_linear_2_3674" x1="-20893.7" y1="16230" x2="-20893.7" y2="-19731.8" gradientUnits="userSpaceOnUse">
<stop offset="1" stop-color="white" stop-opacity="0"/>
<stop stop-color="#455FF6"/>
</linearGradient>
<linearGradient id="paint1_linear_2_3674" x1="339.961" y1="429.545" x2="339.961" y2="140.816" gradientUnits="userSpaceOnUse">
<stop offset="1" stop-color="white" stop-opacity="0"/>
<stop stop-color="#455FF6"/>
</linearGradient>
<linearGradient id="paint2_linear_2_3674" x1="217.781" y1="565.31" x2="217.781" y2="49.7154" gradientUnits="userSpaceOnUse">
<stop offset="1" stop-color="white" stop-opacity="0"/>
<stop stop-color="#455FF6"/>
</linearGradient>
<linearGradient id="paint3_linear_2_3674" x1="114.505" y1="684.272" x2="114.505" y2="-16.9664" gradientUnits="userSpaceOnUse">
<stop offset="1" stop-color="white" stop-opacity="0"/>
<stop stop-color="#455FF6"/>
</linearGradient>
<linearGradient id="paint4_linear_2_3674" x1="25.9299" y1="788.58" x2="25.9299" y2="-63.8739" gradientUnits="userSpaceOnUse">
<stop offset="1" stop-color="white" stop-opacity="0"/>
<stop stop-color="#455FF6"/>
</linearGradient>
<linearGradient id="paint5_linear_2_3674" x1="-50.8972" y1="879.587" x2="-50.8972" y2="-94.6574" gradientUnits="userSpaceOnUse">
<stop offset="1" stop-color="white" stop-opacity="0"/>
<stop stop-color="#455FF6"/>
</linearGradient>
<linearGradient id="paint6_linear_2_3674" x1="-116.539" y1="956.978" x2="-116.539" y2="-110.818" gradientUnits="userSpaceOnUse">
<stop offset="1" stop-color="white" stop-opacity="0"/>
<stop stop-color="#455FF6"/>
</linearGradient>
<linearGradient id="paint7_linear_2_3674" x1="-172.697" y1="1021.4" x2="-172.697" y2="-115.017" gradientUnits="userSpaceOnUse">
<stop offset="1" stop-color="white" stop-opacity="0"/>
<stop stop-color="#455FF6"/>
</linearGradient>
<linearGradient id="paint8_linear_2_3674" x1="-219.929" y1="1072.68" x2="-219.929" y2="-108.841" gradientUnits="userSpaceOnUse">
<stop offset="1" stop-color="white" stop-opacity="0"/>
<stop stop-color="#455FF6"/>
</linearGradient>
<linearGradient id="paint9_linear_2_3674" x1="-258.646" y1="1110.77" x2="-258.646" y2="-93.8684" gradientUnits="userSpaceOnUse">
<stop offset="1" stop-color="white" stop-opacity="0"/>
<stop stop-color="#455FF6"/>
</linearGradient>
<linearGradient id="paint10_linear_2_3674" x1="-288.025" y1="1134.81" x2="-288.025" y2="-70.4816" gradientUnits="userSpaceOnUse">
<stop offset="1" stop-color="white" stop-opacity="0"/>
<stop stop-color="#455FF6"/>
</linearGradient>
<linearGradient id="paint11_linear_2_3674" x1="-308.094" y1="1144.91" x2="-308.094" y2="-39.8784" gradientUnits="userSpaceOnUse">
<stop offset="1" stop-color="white" stop-opacity="0"/>
<stop stop-color="#455FF6"/>
</linearGradient>
<linearGradient id="paint12_linear_2_3674" x1="-317.439" y1="1140.07" x2="-317.439" y2="-1.8217" gradientUnits="userSpaceOnUse">
<stop offset="1" stop-color="white" stop-opacity="0"/>
<stop stop-color="#455FF6"/>
</linearGradient>
<linearGradient id="paint13_linear_2_3674" x1="-314.423" y1="1119.3" x2="-314.423" y2="44.0822" gradientUnits="userSpaceOnUse">
<stop offset="1" stop-color="white" stop-opacity="0"/>
<stop stop-color="#455FF6"/>
</linearGradient>
<linearGradient id="paint14_linear_2_3674" x1="-297.408" y1="1081.74" x2="-297.408" y2="98.4327" gradientUnits="userSpaceOnUse">
<stop offset="1" stop-color="white" stop-opacity="0"/>
<stop stop-color="#455FF6"/>
</linearGradient>
<linearGradient id="paint15_linear_2_3674" x1="-263.987" y1="1026.26" x2="-263.987" y2="162.613" gradientUnits="userSpaceOnUse">
<stop offset="1" stop-color="white" stop-opacity="0"/>
<stop stop-color="#455FF6"/>
</linearGradient>
<linearGradient id="paint16_linear_2_3674" x1="-212.12" y1="952.02" x2="-212.12" y2="237.842" gradientUnits="userSpaceOnUse">
<stop offset="1" stop-color="white" stop-opacity="0"/>
<stop stop-color="#455FF6"/>
</linearGradient>
<linearGradient id="paint17_linear_2_3674" x1="-137.966" y1="856.953" x2="-137.966" y2="327.171" gradientUnits="userSpaceOnUse">
<stop offset="1" stop-color="white" stop-opacity="0"/>
<stop stop-color="#455FF6"/>
</linearGradient>
<linearGradient id="paint18_linear_2_3674" x1="-37.1416" y1="738.667" x2="-37.1416" y2="434.259" gradientUnits="userSpaceOnUse">
<stop offset="1" stop-color="white" stop-opacity="0"/>
<stop stop-color="#455FF6"/>
</linearGradient>
<linearGradient id="paint19_linear_2_3674" x1="102.225" y1="589.297" x2="102.225" y2="569.94" gradientUnits="userSpaceOnUse">
<stop offset="1" stop-color="white" stop-opacity="0"/>
<stop stop-color="#455FF6"/>
</linearGradient>
<linearGradient id="paint20_linear_2_3674" x1="179.022" y1="676.417" x2="179.022" y2="160.764" gradientUnits="userSpaceOnUse">
<stop offset="1" stop-color="white" stop-opacity="0"/>
<stop stop-color="#455FF6"/>
</linearGradient>
<linearGradient id="paint21_linear_2_3674" x1="52.7851" y1="792.176" x2="52.7851" y2="90.8726" gradientUnits="userSpaceOnUse">
<stop offset="1" stop-color="white" stop-opacity="0"/>
<stop stop-color="#455FF6"/>
</linearGradient>
<linearGradient id="paint22_linear_2_3674" x1="-57.9957" y1="889.848" x2="-57.9957" y2="37.3219" gradientUnits="userSpaceOnUse">
<stop offset="1" stop-color="white" stop-opacity="0"/>
<stop stop-color="#455FF6"/>
</linearGradient>
<linearGradient id="paint23_linear_2_3674" x1="-155.756" y1="970.963" x2="-155.756" y2="-3.3685" gradientUnits="userSpaceOnUse">
<stop offset="1" stop-color="white" stop-opacity="0"/>
<stop stop-color="#455FF6"/>
</linearGradient>
<linearGradient id="paint24_linear_2_3674" x1="-240.614" y1="1035.44" x2="-240.614" y2="-32.4693" gradientUnits="userSpaceOnUse">
<stop offset="1" stop-color="white" stop-opacity="0"/>
<stop stop-color="#455FF6"/>
</linearGradient>
<linearGradient id="paint25_linear_2_3674" x1="-313.838" y1="1084.19" x2="-313.838" y2="-52.3157" gradientUnits="userSpaceOnUse">
<stop offset="1" stop-color="white" stop-opacity="0"/>
<stop stop-color="#455FF6"/>
</linearGradient>
<linearGradient id="paint26_linear_2_3674" x1="-375.581" y1="1117.43" x2="-375.581" y2="-64.2194" gradientUnits="userSpaceOnUse">
<stop offset="1" stop-color="white" stop-opacity="0"/>
<stop stop-color="#455FF6"/>
</linearGradient>
<linearGradient id="paint27_linear_2_3674" x1="-425.889" y1="1135.45" x2="-425.889" y2="-69.2739" gradientUnits="userSpaceOnUse">
<stop offset="1" stop-color="white" stop-opacity="0"/>
<stop stop-color="#455FF6"/>
</linearGradient>
<linearGradient id="paint28_linear_2_3674" x1="-463.705" y1="1137.94" x2="-463.705" y2="-67.4799" gradientUnits="userSpaceOnUse">
<stop offset="1" stop-color="white" stop-opacity="0"/>
<stop stop-color="#455FF6"/>
</linearGradient>
<linearGradient id="paint29_linear_2_3674" x1="-488.883" y1="1125.45" x2="-488.883" y2="-59.4578" gradientUnits="userSpaceOnUse">
<stop offset="1" stop-color="white" stop-opacity="0"/>
<stop stop-color="#455FF6"/>
</linearGradient>
<linearGradient id="paint30_linear_2_3674" x1="-499.89" y1="1097.51" x2="-499.89" y2="-44.4969" gradientUnits="userSpaceOnUse">
<stop offset="1" stop-color="white" stop-opacity="0"/>
<stop stop-color="#455FF6"/>
</linearGradient>
<linearGradient id="paint31_linear_2_3674" x1="-495.024" y1="1053.63" x2="-495.024" y2="-21.6671" gradientUnits="userSpaceOnUse">
<stop offset="1" stop-color="white" stop-opacity="0"/>
<stop stop-color="#455FF6"/>
</linearGradient>
<linearGradient id="paint32_linear_2_3674" x1="-472.682" y1="993.532" x2="-472.682" y2="10.155" gradientUnits="userSpaceOnUse">
<stop offset="1" stop-color="white" stop-opacity="0"/>
<stop stop-color="#455FF6"/>
</linearGradient>
<linearGradient id="paint33_linear_2_3674" x1="-430.591" y1="916.564" x2="-430.591" y2="52.8572" gradientUnits="userSpaceOnUse">
<stop offset="1" stop-color="white" stop-opacity="0"/>
<stop stop-color="#455FF6"/>
</linearGradient>
<linearGradient id="paint34_linear_2_3674" x1="-366.937" y1="822.388" x2="-366.937" y2="108.15" gradientUnits="userSpaceOnUse">
<stop offset="1" stop-color="white" stop-opacity="0"/>
<stop stop-color="#455FF6"/>
</linearGradient>
<linearGradient id="paint35_linear_2_3674" x1="-278.141" y1="709.371" x2="-278.141" y2="179.536" gradientUnits="userSpaceOnUse">
<stop offset="1" stop-color="white" stop-opacity="0"/>
<stop stop-color="#455FF6"/>
</linearGradient>
<linearGradient id="paint36_linear_2_3674" x1="-160.101" y1="575.536" x2="-160.101" y2="271.101" gradientUnits="userSpaceOnUse">
<stop offset="1" stop-color="white" stop-opacity="0"/>
<stop stop-color="#455FF6"/>
</linearGradient>
<linearGradient id="paint37_linear_2_3674" x1="-1.40092" y1="413.389" x2="-1.40092" y2="394.05" gradientUnits="userSpaceOnUse">
<stop offset="1" stop-color="white" stop-opacity="0"/>
<stop stop-color="#455FF6"/>
</linearGradient>
<linearGradient id="paint38_linear_2_3674" x1="246.62" y1="620.803" x2="246.62" y2="331.995" gradientUnits="userSpaceOnUse">
<stop offset="1" stop-color="white" stop-opacity="0"/>
<stop stop-color="#455FF6"/>
</linearGradient>
<linearGradient id="paint39_linear_2_3674" x1="82.3419" y1="743.55" x2="82.3419" y2="227.809" gradientUnits="userSpaceOnUse">
<stop offset="1" stop-color="white" stop-opacity="0"/>
<stop stop-color="#455FF6"/>
</linearGradient>
<linearGradient id="paint40_linear_2_3674" x1="-60.5885" y1="843.243" x2="-60.5885" y2="141.831" gradientUnits="userSpaceOnUse">
<stop offset="1" stop-color="white" stop-opacity="0"/>
<stop stop-color="#455FF6"/>
</linearGradient>
<linearGradient id="paint41_linear_2_3674" x1="-185.427" y1="922.518" x2="-185.427" y2="69.848" gradientUnits="userSpaceOnUse">
<stop offset="1" stop-color="white" stop-opacity="0"/>
<stop stop-color="#455FF6"/>
</linearGradient>
<linearGradient id="paint42_linear_2_3674" x1="-294.334" y1="983.329" x2="-294.334" y2="8.82495" gradientUnits="userSpaceOnUse">
<stop offset="1" stop-color="white" stop-opacity="0"/>
<stop stop-color="#455FF6"/>
</linearGradient>
<linearGradient id="paint43_linear_2_3674" x1="-387.156" y1="1026.06" x2="-387.156" y2="-42.0323" gradientUnits="userSpaceOnUse">
<stop offset="1" stop-color="white" stop-opacity="0"/>
<stop stop-color="#455FF6"/>
</linearGradient>
<linearGradient id="paint44_linear_2_3674" x1="-464.986" y1="1052.11" x2="-464.986" y2="-84.5908" gradientUnits="userSpaceOnUse">
<stop offset="1" stop-color="white" stop-opacity="0"/>
<stop stop-color="#455FF6"/>
</linearGradient>
<linearGradient id="paint45_linear_2_3674" x1="-527.844" y1="1062.22" x2="-527.844" y2="-119.624" gradientUnits="userSpaceOnUse">
<stop offset="1" stop-color="white" stop-opacity="0"/>
<stop stop-color="#455FF6"/>
</linearGradient>
<linearGradient id="paint46_linear_2_3674" x1="-575.753" y1="1057.22" x2="-575.753" y2="-147.721" gradientUnits="userSpaceOnUse">
<stop offset="1" stop-color="white" stop-opacity="0"/>
<stop stop-color="#455FF6"/>
</linearGradient>
<linearGradient id="paint47_linear_2_3674" x1="-607.711" y1="1037.3" x2="-607.711" y2="-168.328" gradientUnits="userSpaceOnUse">
<stop offset="1" stop-color="white" stop-opacity="0"/>
<stop stop-color="#455FF6"/>
</linearGradient>
<linearGradient id="paint48_linear_2_3674" x1="-623.74" y1="1003.52" x2="-623.74" y2="-181.587" gradientUnits="userSpaceOnUse">
<stop offset="1" stop-color="white" stop-opacity="0"/>
<stop stop-color="#455FF6"/>
</linearGradient>
<linearGradient id="paint49_linear_2_3674" x1="-622.516" y1="955.908" x2="-622.516" y2="-186.295" gradientUnits="userSpaceOnUse">
<stop offset="1" stop-color="white" stop-opacity="0"/>
<stop stop-color="#455FF6"/>
</linearGradient>
<linearGradient id="paint50_linear_2_3674" x1="-602.581" y1="894.438" x2="-602.581" y2="-181.049" gradientUnits="userSpaceOnUse">
<stop offset="1" stop-color="white" stop-opacity="0"/>
<stop stop-color="#455FF6"/>
</linearGradient>
<linearGradient id="paint51_linear_2_3674" x1="-562.666" y1="819.238" x2="-562.666" y2="-164.337" gradientUnits="userSpaceOnUse">
<stop offset="1" stop-color="white" stop-opacity="0"/>
<stop stop-color="#455FF6"/>
</linearGradient>
<linearGradient id="paint52_linear_2_3674" x1="-500.933" y1="729.966" x2="-500.933" y2="-133.898" gradientUnits="userSpaceOnUse">
<stop offset="1" stop-color="white" stop-opacity="0"/>
<stop stop-color="#455FF6"/>
</linearGradient>
<linearGradient id="paint53_linear_2_3674" x1="-416.017" y1="626.56" x2="-416.017" y2="-87.775" gradientUnits="userSpaceOnUse">
<stop offset="1" stop-color="white" stop-opacity="0"/>
<stop stop-color="#455FF6"/>
</linearGradient>
<linearGradient id="paint54_linear_2_3674" x1="-304.802" y1="507.625" x2="-304.802" y2="-22.2958" gradientUnits="userSpaceOnUse">
<stop offset="1" stop-color="white" stop-opacity="0"/>
<stop stop-color="#455FF6"/>
</linearGradient>
<linearGradient id="paint55_linear_2_3674" x1="-163.718" y1="371.296" x2="-163.718" y2="66.8169" gradientUnits="userSpaceOnUse">
<stop offset="1" stop-color="white" stop-opacity="0"/>
<stop stop-color="#455FF6"/>
</linearGradient>
<linearGradient id="paint56_linear_2_3674" x1="18.1508" y1="210.171" x2="18.1508" y2="190.831" gradientUnits="userSpaceOnUse">
<stop offset="1" stop-color="white" stop-opacity="0"/>
<stop stop-color="#455FF6"/>
</linearGradient>
<linearGradient id="paint57_linear_2_3674" x1="136.451" y1="640.212" x2="136.451" y2="351.405" gradientUnits="userSpaceOnUse">
<stop offset="1" stop-color="white" stop-opacity="0"/>
<stop stop-color="#455FF6"/>
</linearGradient>
<linearGradient id="paint58_linear_2_3674" x1="-35.2787" y1="741.027" x2="-35.2787" y2="225.297" gradientUnits="userSpaceOnUse">
<stop offset="1" stop-color="white" stop-opacity="0"/>
<stop stop-color="#455FF6"/>
</linearGradient>
<linearGradient id="paint59_linear_2_3674" x1="-182.246" y1="817.923" x2="-182.246" y2="116.501" gradientUnits="userSpaceOnUse">
<stop offset="1" stop-color="white" stop-opacity="0"/>
<stop stop-color="#455FF6"/>
</linearGradient>
<linearGradient id="paint60_linear_2_3674" x1="-307.618" y1="874.034" x2="-307.618" y2="21.3776" gradientUnits="userSpaceOnUse">
<stop offset="1" stop-color="white" stop-opacity="0"/>
<stop stop-color="#455FF6"/>
</linearGradient>
<linearGradient id="paint61_linear_2_3674" x1="-413.579" y1="911.87" x2="-413.579" y2="-62.6138" gradientUnits="userSpaceOnUse">
<stop offset="1" stop-color="white" stop-opacity="0"/>
<stop stop-color="#455FF6"/>
</linearGradient>
<linearGradient id="paint62_linear_2_3674" x1="-500.045" y1="932.33" x2="-500.045" y2="-135.747" gradientUnits="userSpaceOnUse">
<stop offset="1" stop-color="white" stop-opacity="0"/>
<stop stop-color="#455FF6"/>
</linearGradient>
<linearGradient id="paint63_linear_2_3674" x1="-568.253" y1="937.309" x2="-568.253" y2="-199.361" gradientUnits="userSpaceOnUse">
<stop offset="1" stop-color="white" stop-opacity="0"/>
<stop stop-color="#455FF6"/>
</linearGradient>
<linearGradient id="paint64_linear_2_3674" x1="-618.418" y1="928.06" x2="-618.418" y2="-253.782" gradientUnits="userSpaceOnUse">
<stop offset="1" stop-color="white" stop-opacity="0"/>
<stop stop-color="#455FF6"/>
</linearGradient>
<linearGradient id="paint65_linear_2_3674" x1="-650.846" y1="905.821" x2="-650.846" y2="-299.095" gradientUnits="userSpaceOnUse">
<stop offset="1" stop-color="white" stop-opacity="0"/>
<stop stop-color="#455FF6"/>
</linearGradient>
<linearGradient id="paint66_linear_2_3674" x1="-664.893" y1="871.222" x2="-664.893" y2="-334.384" gradientUnits="userSpaceOnUse">
<stop offset="1" stop-color="white" stop-opacity="0"/>
<stop stop-color="#455FF6"/>
</linearGradient>
<linearGradient id="paint67_linear_2_3674" x1="-661.021" y1="825.599" x2="-661.021" y2="-359.481" gradientUnits="userSpaceOnUse">
<stop offset="1" stop-color="white" stop-opacity="0"/>
<stop stop-color="#455FF6"/>
</linearGradient>
<linearGradient id="paint68_linear_2_3674" x1="-638.344" y1="769.258" x2="-638.344" y2="-372.92" gradientUnits="userSpaceOnUse">
<stop offset="1" stop-color="white" stop-opacity="0"/>
<stop stop-color="#455FF6"/>
</linearGradient>
<linearGradient id="paint69_linear_2_3674" x1="-595.883" y1="702.412" x2="-595.883" y2="-373.05" gradientUnits="userSpaceOnUse">
<stop offset="1" stop-color="white" stop-opacity="0"/>
<stop stop-color="#455FF6"/>
</linearGradient>
<linearGradient id="paint70_linear_2_3674" x1="-532.879" y1="625.316" x2="-532.879" y2="-358.24" gradientUnits="userSpaceOnUse">
<stop offset="1" stop-color="white" stop-opacity="0"/>
<stop stop-color="#455FF6"/>
</linearGradient>
<linearGradient id="paint71_linear_2_3674" x1="-448.047" y1="537.647" x2="-448.047" y2="-326.204" gradientUnits="userSpaceOnUse">
<stop offset="1" stop-color="white" stop-opacity="0"/>
<stop stop-color="#455FF6"/>
</linearGradient>
<linearGradient id="paint72_linear_2_3674" x1="-340.52" y1="439.3" x2="-340.52" y2="-275.048" gradientUnits="userSpaceOnUse">
<stop offset="1" stop-color="white" stop-opacity="0"/>
<stop stop-color="#455FF6"/>
</linearGradient>
<linearGradient id="paint73_linear_2_3674" x1="-207.723" y1="328.736" x2="-207.723" y2="-201.182" gradientUnits="userSpaceOnUse">
<stop offset="1" stop-color="white" stop-opacity="0"/>
<stop stop-color="#455FF6"/>
</linearGradient>
<linearGradient id="paint74_linear_2_3674" x1="-46.5499" y1="203.941" x2="-46.5499" y2="-100.537" gradientUnits="userSpaceOnUse">
<stop offset="1" stop-color="white" stop-opacity="0"/>
<stop stop-color="#455FF6"/>
</linearGradient>
<linearGradient id="paint75_linear_2_3674" x1="153.417" y1="57.2565" x2="153.417" y2="37.9172" gradientUnits="userSpaceOnUse">
<stop offset="1" stop-color="white" stop-opacity="0"/>
<stop stop-color="#455FF6"/>
</linearGradient>
<linearGradient id="paint76_linear_2_3674" x1="35.9609" y1="591.135" x2="35.9609" y2="302.391" gradientUnits="userSpaceOnUse">
<stop offset="1" stop-color="white" stop-opacity="0"/>
<stop stop-color="#455FF6"/>
</linearGradient>
<linearGradient id="paint77_linear_2_3674" x1="-128.88" y1="669.815" x2="-128.88" y2="154.178" gradientUnits="userSpaceOnUse">
<stop offset="1" stop-color="white" stop-opacity="0"/>
<stop stop-color="#455FF6"/>
</linearGradient>
<linearGradient id="paint78_linear_2_3674" x1="-377.88" y1="762.906" x2="-377.88" y2="-89.5644" gradientUnits="userSpaceOnUse">
<stop offset="1" stop-color="white" stop-opacity="0"/>
<stop stop-color="#455FF6"/>
</linearGradient>
<linearGradient id="paint79_linear_2_3674" x1="-467.936" y1="783.877" x2="-467.936" y2="-190.397" gradientUnits="userSpaceOnUse">
<stop offset="1" stop-color="white" stop-opacity="0"/>
<stop stop-color="#455FF6"/>
</linearGradient>
<linearGradient id="paint80_linear_2_3674" x1="-536.161" y1="790.039" x2="-536.161" y2="-277.799" gradientUnits="userSpaceOnUse">
<stop offset="1" stop-color="white" stop-opacity="0"/>
<stop stop-color="#455FF6"/>
</linearGradient>
<linearGradient id="paint81_linear_2_3674" x1="-584.184" y1="783.64" x2="-584.184" y2="-352.809" gradientUnits="userSpaceOnUse">
<stop offset="1" stop-color="white" stop-opacity="0"/>
<stop stop-color="#455FF6"/>
</linearGradient>
<linearGradient id="paint82_linear_2_3674" x1="-612.698" y1="766.158" x2="-612.698" y2="-415.418" gradientUnits="userSpaceOnUse">
<stop offset="1" stop-color="white" stop-opacity="0"/>
<stop stop-color="#455FF6"/>
</linearGradient>
<linearGradient id="paint83_linear_2_3674" x1="-622.471" y1="739.092" x2="-622.471" y2="-465.57" gradientUnits="userSpaceOnUse">
<stop offset="1" stop-color="white" stop-opacity="0"/>
<stop stop-color="#455FF6"/>
</linearGradient>
<linearGradient id="paint84_linear_2_3674" x1="-613.392" y1="703.146" x2="-613.392" y2="-502.212" gradientUnits="userSpaceOnUse">
<stop offset="1" stop-color="white" stop-opacity="0"/>
<stop stop-color="#455FF6"/>
</linearGradient>
<linearGradient id="paint85_linear_2_3674" x1="-586.469" y1="659.643" x2="-586.469" y2="-525.195" gradientUnits="userSpaceOnUse">
<stop offset="1" stop-color="white" stop-opacity="0"/>
<stop stop-color="#455FF6"/>
</linearGradient>
<linearGradient id="paint86_linear_2_3674" x1="-541.303" y1="608.851" x2="-541.303" y2="-533.088" gradientUnits="userSpaceOnUse">
<stop offset="1" stop-color="white" stop-opacity="0"/>
<stop stop-color="#455FF6"/>
</linearGradient>
<linearGradient id="paint87_linear_2_3674" x1="-477.463" y1="550.908" x2="-477.463" y2="-524.338" gradientUnits="userSpaceOnUse">
<stop offset="1" stop-color="white" stop-opacity="0"/>
<stop stop-color="#455FF6"/>
</linearGradient>
<linearGradient id="paint88_linear_2_3674" x1="-394.687" y1="485.842" x2="-394.687" y2="-497.497" gradientUnits="userSpaceOnUse">
<stop offset="1" stop-color="white" stop-opacity="0"/>
<stop stop-color="#455FF6"/>
</linearGradient>
<linearGradient id="paint89_linear_2_3674" x1="-292.118" y1="413.063" x2="-292.118" y2="-450.603" gradientUnits="userSpaceOnUse">
<stop offset="1" stop-color="white" stop-opacity="0"/>
<stop stop-color="#455FF6"/>
</linearGradient>
<linearGradient id="paint90_linear_2_3674" x1="-169.287" y1="332.099" x2="-169.287" y2="-382.096" gradientUnits="userSpaceOnUse">
<stop offset="1" stop-color="white" stop-opacity="0"/>
<stop stop-color="#455FF6"/>
</linearGradient>
<linearGradient id="paint91_linear_2_3674" x1="-23.969" y1="241.025" x2="-23.969" y2="-288.785" gradientUnits="userSpaceOnUse">
<stop offset="1" stop-color="white" stop-opacity="0"/>
<stop stop-color="#455FF6"/>
</linearGradient>
<linearGradient id="paint92_linear_2_3674" x1="146.648" y1="137.385" x2="146.648" y2="-167.028" gradientUnits="userSpaceOnUse">
<stop offset="1" stop-color="white" stop-opacity="0"/>
<stop stop-color="#455FF6"/>
</linearGradient>
<linearGradient id="paint93_linear_2_3674" x1="352.727" y1="13.0529" x2="352.727" y2="-6.28353" gradientUnits="userSpaceOnUse">
<stop offset="1" stop-color="white" stop-opacity="0"/>
<stop stop-color="#455FF6"/>
</linearGradient>
<linearGradient id="paint94_linear_2_3674" x1="-16.5415" y1="492.358" x2="-16.5415" y2="203.623" gradientUnits="userSpaceOnUse">
<stop offset="1" stop-color="white" stop-opacity="0"/>
<stop stop-color="#455FF6"/>
</linearGradient>
<linearGradient id="paint95_linear_2_3674" x1="-162.815" y1="557.164" x2="-162.815" y2="41.5578" gradientUnits="userSpaceOnUse">
<stop offset="1" stop-color="white" stop-opacity="0"/>
<stop stop-color="#455FF6"/>
</linearGradient>
<linearGradient id="paint96_linear_2_3674" x1="-279.181" y1="602.316" x2="-279.181" y2="-98.9103" gradientUnits="userSpaceOnUse">
<stop offset="1" stop-color="white" stop-opacity="0"/>
<stop stop-color="#455FF6"/>
</linearGradient>
<linearGradient id="paint97_linear_2_3674" x1="-369.523" y1="631.692" x2="-369.523" y2="-220.741" gradientUnits="userSpaceOnUse">
<stop offset="1" stop-color="white" stop-opacity="0"/>
<stop stop-color="#455FF6"/>
</linearGradient>
<linearGradient id="paint98_linear_2_3674" x1="-436.813" y1="648.364" x2="-436.813" y2="-325.873" gradientUnits="userSpaceOnUse">
<stop offset="1" stop-color="white" stop-opacity="0"/>
<stop stop-color="#455FF6"/>
</linearGradient>
<linearGradient id="paint99_linear_2_3674" x1="-481.894" y1="653.69" x2="-481.894" y2="-414.119" gradientUnits="userSpaceOnUse">
<stop offset="1" stop-color="white" stop-opacity="0"/>
<stop stop-color="#455FF6"/>
</linearGradient>
<linearGradient id="paint100_linear_2_3674" x1="-506.916" y1="649.927" x2="-506.916" y2="-486.48" gradientUnits="userSpaceOnUse">
<stop offset="1" stop-color="white" stop-opacity="0"/>
<stop stop-color="#455FF6"/>
</linearGradient>
<linearGradient id="paint101_linear_2_3674" x1="-513.068" y1="638.529" x2="-513.068" y2="-543.005" gradientUnits="userSpaceOnUse">
<stop offset="1" stop-color="white" stop-opacity="0"/>
<stop stop-color="#455FF6"/>
</linearGradient>
<linearGradient id="paint102_linear_2_3674" x1="-501.681" y1="620.864" x2="-501.681" y2="-583.752" gradientUnits="userSpaceOnUse">
<stop offset="1" stop-color="white" stop-opacity="0"/>
<stop stop-color="#455FF6"/>
</linearGradient>
<linearGradient id="paint103_linear_2_3674" x1="-473.097" y1="597.415" x2="-473.097" y2="-607.893" gradientUnits="userSpaceOnUse">
<stop offset="1" stop-color="white" stop-opacity="0"/>
<stop stop-color="#455FF6"/>
</linearGradient>
<linearGradient id="paint104_linear_2_3674" x1="-428.761" y1="569.185" x2="-428.761" y2="-615.611" gradientUnits="userSpaceOnUse">
<stop offset="1" stop-color="white" stop-opacity="0"/>
<stop stop-color="#455FF6"/>
</linearGradient>
<linearGradient id="paint105_linear_2_3674" x1="-368.672" y1="536.101" x2="-368.672" y2="-605.801" gradientUnits="userSpaceOnUse">
<stop offset="1" stop-color="white" stop-opacity="0"/>
<stop stop-color="#455FF6"/>
</linearGradient>
<linearGradient id="paint106_linear_2_3674" x1="-292.744" y1="497.918" x2="-292.744" y2="-577.282" gradientUnits="userSpaceOnUse">
<stop offset="1" stop-color="white" stop-opacity="0"/>
<stop stop-color="#455FF6"/>
</linearGradient>
<linearGradient id="paint107_linear_2_3674" x1="-201.046" y1="454.215" x2="-201.046" y2="-529.072" gradientUnits="userSpaceOnUse">
<stop offset="1" stop-color="white" stop-opacity="0"/>
<stop stop-color="#455FF6"/>
</linearGradient>
<linearGradient id="paint108_linear_2_3674" x1="-92.8613" y1="403.916" x2="-92.8613" y2="-459.724" gradientUnits="userSpaceOnUse">
<stop offset="1" stop-color="white" stop-opacity="0"/>
<stop stop-color="#455FF6"/>
</linearGradient>
<linearGradient id="paint109_linear_2_3674" x1="32.159" y1="346.009" x2="32.159" y2="-368.158" gradientUnits="userSpaceOnUse">
<stop offset="1" stop-color="white" stop-opacity="0"/>
<stop stop-color="#455FF6"/>
</linearGradient>
<linearGradient id="paint110_linear_2_3674" x1="176.174" y1="278.062" x2="176.174" y2="-251.728" gradientUnits="userSpaceOnUse">
<stop offset="1" stop-color="white" stop-opacity="0"/>
<stop stop-color="#455FF6"/>
</linearGradient>
<linearGradient id="paint111_linear_2_3674" x1="342.017" y1="197.088" x2="342.017" y2="-107.306" gradientUnits="userSpaceOnUse">
<stop offset="1" stop-color="white" stop-opacity="0"/>
<stop stop-color="#455FF6"/>
</linearGradient>
<linearGradient id="paint112_linear_2_3674" x1="539.955" y1="94.4435" x2="539.955" y2="75.1142" gradientUnits="userSpaceOnUse">
<stop offset="1" stop-color="white" stop-opacity="0"/>
<stop stop-color="#455FF6"/>
</linearGradient>
<linearGradient id="paint113_linear_2_3674" x1="-0.96793" y1="381.598" x2="-0.96793" y2="92.8435" gradientUnits="userSpaceOnUse">
<stop offset="1" stop-color="white" stop-opacity="0"/>
<stop stop-color="#455FF6"/>
</linearGradient>
<linearGradient id="paint114_linear_2_3674" x1="-124.105" y1="446.103" x2="-124.105" y2="-69.5485" gradientUnits="userSpaceOnUse">
<stop offset="1" stop-color="white" stop-opacity="0"/>
<stop stop-color="#455FF6"/>
</linearGradient>
<linearGradient id="paint115_linear_2_3674" x1="-217.544" y1="494.477" x2="-217.544" y2="-206.831" gradientUnits="userSpaceOnUse">
<stop offset="1" stop-color="white" stop-opacity="0"/>
<stop stop-color="#455FF6"/>
</linearGradient>
<linearGradient id="paint116_linear_2_3674" x1="-285.696" y1="530.495" x2="-285.696" y2="-322.028" gradientUnits="userSpaceOnUse">
<stop offset="1" stop-color="white" stop-opacity="0"/>
<stop stop-color="#455FF6"/>
</linearGradient>
<linearGradient id="paint117_linear_2_3674" x1="-332.062" y1="557.065" x2="-332.062" y2="-417.259" gradientUnits="userSpaceOnUse">
<stop offset="1" stop-color="white" stop-opacity="0"/>
<stop stop-color="#455FF6"/>
</linearGradient>
<linearGradient id="paint118_linear_2_3674" x1="-357.922" y1="575.319" x2="-357.922" y2="-492.585" gradientUnits="userSpaceOnUse">
<stop offset="1" stop-color="white" stop-opacity="0"/>
<stop stop-color="#455FF6"/>
</linearGradient>
<linearGradient id="paint119_linear_2_3674" x1="-365.881" y1="587.223" x2="-365.881" y2="-549.29" gradientUnits="userSpaceOnUse">
<stop offset="1" stop-color="white" stop-opacity="0"/>
<stop stop-color="#455FF6"/>
</linearGradient>
<linearGradient id="paint120_linear_2_3674" x1="-357.54" y1="593.884" x2="-357.54" y2="-587.759" gradientUnits="userSpaceOnUse">
<stop offset="1" stop-color="white" stop-opacity="0"/>
<stop stop-color="#455FF6"/>
</linearGradient>
<linearGradient id="paint121_linear_2_3674" x1="-334.554" y1="596.268" x2="-334.554" y2="-608.46" gradientUnits="userSpaceOnUse">
<stop offset="1" stop-color="white" stop-opacity="0"/>
<stop stop-color="#455FF6"/>
</linearGradient>
<linearGradient id="paint122_linear_2_3674" x1="-297.551" y1="594.393" x2="-297.551" y2="-611.032" gradientUnits="userSpaceOnUse">
<stop offset="1" stop-color="white" stop-opacity="0"/>
<stop stop-color="#455FF6"/>
</linearGradient>
<linearGradient id="paint123_linear_2_3674" x1="-248.096" y1="588.745" x2="-248.096" y2="-596.152" gradientUnits="userSpaceOnUse">
<stop offset="1" stop-color="white" stop-opacity="0"/>
<stop stop-color="#455FF6"/>
</linearGradient>
<linearGradient id="paint124_linear_2_3674" x1="-186.331" y1="578.759" x2="-186.331" y2="-563.239" gradientUnits="userSpaceOnUse">
<stop offset="1" stop-color="white" stop-opacity="0"/>
<stop stop-color="#455FF6"/>
</linearGradient>
<linearGradient id="paint125_linear_2_3674" x1="-112.266" y1="563.661" x2="-112.266" y2="-511.634" gradientUnits="userSpaceOnUse">
<stop offset="1" stop-color="white" stop-opacity="0"/>
<stop stop-color="#455FF6"/>
</linearGradient>
<linearGradient id="paint126_linear_2_3674" x1="-25.8783" y1="542.503" x2="-25.8783" y2="-440.89" gradientUnits="userSpaceOnUse">
<stop offset="1" stop-color="white" stop-opacity="0"/>
<stop stop-color="#455FF6"/>
</linearGradient>
<linearGradient id="paint127_linear_2_3674" x1="73.6552" y1="513.669" x2="73.6552" y2="-350.045" gradientUnits="userSpaceOnUse">
<stop offset="1" stop-color="white" stop-opacity="0"/>
<stop stop-color="#455FF6"/>
</linearGradient>
<linearGradient id="paint128_linear_2_3674" x1="186.891" y1="475.693" x2="186.891" y2="-238.532" gradientUnits="userSpaceOnUse">
<stop offset="1" stop-color="white" stop-opacity="0"/>
<stop stop-color="#455FF6"/>
</linearGradient>
<linearGradient id="paint129_linear_2_3674" x1="316.282" y1="425.687" x2="316.282" y2="-104.147" gradientUnits="userSpaceOnUse">
<stop offset="1" stop-color="white" stop-opacity="0"/>
<stop stop-color="#455FF6"/>
</linearGradient>
<linearGradient id="paint130_linear_2_3674" x1="464.95" y1="360.248" x2="464.95" y2="55.8169" gradientUnits="userSpaceOnUse">
<stop offset="1" stop-color="white" stop-opacity="0"/>
<stop stop-color="#455FF6"/>
</linearGradient>
<linearGradient id="paint131_linear_2_3674" x1="643.597" y1="270.347" x2="643.597" y2="251.009" gradientUnits="userSpaceOnUse">
<stop offset="1" stop-color="white" stop-opacity="0"/>
<stop stop-color="#455FF6"/>
</linearGradient>
<linearGradient id="paint132_linear_2_3674" x1="76.7207" y1="301.168" x2="76.7207" y2="12.3572" gradientUnits="userSpaceOnUse">
<stop offset="1" stop-color="white" stop-opacity="0"/>
<stop stop-color="#455FF6"/>
</linearGradient>
<linearGradient id="paint133_linear_2_3674" x1="-27.5192" y1="379.046" x2="-27.5192" y2="-136.692" gradientUnits="userSpaceOnUse">
<stop offset="1" stop-color="white" stop-opacity="0"/>
<stop stop-color="#455FF6"/>
</linearGradient>
<linearGradient id="paint134_linear_2_3674" x1="-104.311" y1="443.512" x2="-104.311" y2="-257.918" gradientUnits="userSpaceOnUse">
<stop offset="1" stop-color="white" stop-opacity="0"/>
<stop stop-color="#455FF6"/>
</linearGradient>
<linearGradient id="paint135_linear_2_3674" x1="-158.429" y1="497.951" x2="-158.429" y2="-354.712" gradientUnits="userSpaceOnUse">
<stop offset="1" stop-color="white" stop-opacity="0"/>
<stop stop-color="#455FF6"/>
</linearGradient>
<linearGradient id="paint136_linear_2_3674" x1="-193.686" y1="544.852" x2="-193.686" y2="-429.647" gradientUnits="userSpaceOnUse">
<stop offset="1" stop-color="white" stop-opacity="0"/>
<stop stop-color="#455FF6"/>
</linearGradient>
<linearGradient id="paint137_linear_2_3674" x1="-211.601" y1="584.861" x2="-211.601" y2="-483.224" gradientUnits="userSpaceOnUse">
<stop offset="1" stop-color="white" stop-opacity="0"/>
<stop stop-color="#455FF6"/>
</linearGradient>
<linearGradient id="paint138_linear_2_3674" x1="-214.975" y1="619.468" x2="-214.975" y2="-517.233" gradientUnits="userSpaceOnUse">
<stop offset="1" stop-color="white" stop-opacity="0"/>
<stop stop-color="#455FF6"/>
</linearGradient>
<linearGradient id="paint139_linear_2_3674" x1="-205.521" y1="649.27" x2="-205.521" y2="-532.58" gradientUnits="userSpaceOnUse">
<stop offset="1" stop-color="white" stop-opacity="0"/>
<stop stop-color="#455FF6"/>
</linearGradient>
<linearGradient id="paint140_linear_2_3674" x1="-184.947" y1="674.691" x2="-184.947" y2="-530.247" gradientUnits="userSpaceOnUse">
<stop offset="1" stop-color="white" stop-opacity="0"/>
<stop stop-color="#455FF6"/>
</linearGradient>
<linearGradient id="paint141_linear_2_3674" x1="-153.805" y1="695.215" x2="-153.805" y2="-510.406" gradientUnits="userSpaceOnUse">
<stop offset="1" stop-color="white" stop-opacity="0"/>
<stop stop-color="#455FF6"/>
</linearGradient>
<linearGradient id="paint142_linear_2_3674" x1="-113.48" y1="710.851" x2="-113.48" y2="-474.251" gradientUnits="userSpaceOnUse">
<stop offset="1" stop-color="white" stop-opacity="0"/>
<stop stop-color="#455FF6"/>
</linearGradient>
<linearGradient id="paint143_linear_2_3674" x1="-63.9421" y1="720.536" x2="-63.9421" y2="-421.667" gradientUnits="userSpaceOnUse">
<stop offset="1" stop-color="white" stop-opacity="0"/>
<stop stop-color="#455FF6"/>
</linearGradient>
<linearGradient id="paint144_linear_2_3674" x1="-4.92615" y1="723.021" x2="-4.92615" y2="-352.46" gradientUnits="userSpaceOnUse">
<stop offset="1" stop-color="white" stop-opacity="0"/>
<stop stop-color="#455FF6"/>
</linearGradient>
<linearGradient id="paint145_linear_2_3674" x1="63.9194" y1="716.962" x2="63.9194" y2="-266.605" gradientUnits="userSpaceOnUse">
<stop offset="1" stop-color="white" stop-opacity="0"/>
<stop stop-color="#455FF6"/>
</linearGradient>
<linearGradient id="paint146_linear_2_3674" x1="143.833" y1="700.4" x2="143.833" y2="-163.459" gradientUnits="userSpaceOnUse">
<stop offset="1" stop-color="white" stop-opacity="0"/>
<stop stop-color="#455FF6"/>
</linearGradient>
<linearGradient id="paint147_linear_2_3674" x1="235.817" y1="671.617" x2="235.817" y2="-42.7299" gradientUnits="userSpaceOnUse">
<stop offset="1" stop-color="white" stop-opacity="0"/>
<stop stop-color="#455FF6"/>
</linearGradient>
<linearGradient id="paint148_linear_2_3674" x1="342.829" y1="627.516" x2="342.829" y2="97.5795" gradientUnits="userSpaceOnUse">
<stop offset="1" stop-color="white" stop-opacity="0"/>
<stop stop-color="#455FF6"/>
</linearGradient>
<linearGradient id="paint149_linear_2_3674" x1="468.507" y1="564.529" x2="468.507" y2="260.046" gradientUnits="userSpaceOnUse">
<stop offset="1" stop-color="white" stop-opacity="0"/>
<stop stop-color="#455FF6"/>
</linearGradient>
<linearGradient id="paint150_linear_2_3674" x1="624.042" y1="473.57" x2="624.042" y2="454.221" gradientUnits="userSpaceOnUse">
<stop offset="1" stop-color="white" stop-opacity="0"/>
<stop stop-color="#455FF6"/>
</linearGradient>
<linearGradient id="paint151_linear_2_3674" x1="186.884" y1="281.753" x2="186.884" y2="-7.04534" gradientUnits="userSpaceOnUse">
<stop offset="1" stop-color="white" stop-opacity="0"/>
<stop stop-color="#455FF6"/>
</linearGradient>
<linearGradient id="paint152_linear_2_3674" x1="90.0932" y1="381.569" x2="90.0932" y2="-134.177" gradientUnits="userSpaceOnUse">
<stop offset="1" stop-color="white" stop-opacity="0"/>
<stop stop-color="#455FF6"/>
</linearGradient>
<linearGradient id="paint153_linear_2_3674" x1="17.3467" y1="468.826" x2="17.3467" y2="-232.581" gradientUnits="userSpaceOnUse">
<stop offset="1" stop-color="white" stop-opacity="0"/>
<stop stop-color="#455FF6"/>
</linearGradient>
<linearGradient id="paint154_linear_2_3674" x1="-36.2217" y1="546.429" x2="-36.2217" y2="-306.234" gradientUnits="userSpaceOnUse">
<stop offset="1" stop-color="white" stop-opacity="0"/>
<stop stop-color="#455FF6"/>
</linearGradient>
<linearGradient id="paint155_linear_2_3674" x1="-74.421" y1="616.297" x2="-74.421" y2="-358.189" gradientUnits="userSpaceOnUse">
<stop offset="1" stop-color="white" stop-opacity="0"/>
<stop stop-color="#455FF6"/>
</linearGradient>
<linearGradient id="paint156_linear_2_3674" x1="-98.6871" y1="678.578" x2="-98.6871" y2="-389.494" gradientUnits="userSpaceOnUse">
<stop offset="1" stop-color="white" stop-opacity="0"/>
<stop stop-color="#455FF6"/>
</linearGradient>
<linearGradient id="paint157_linear_2_3674" x1="-111.685" y1="734.254" x2="-111.685" y2="-402.441" gradientUnits="userSpaceOnUse">
<stop offset="1" stop-color="white" stop-opacity="0"/>
<stop stop-color="#455FF6"/>
</linearGradient>
<linearGradient id="paint158_linear_2_3674" x1="-114.924" y1="783.423" x2="-114.924" y2="-398.407" gradientUnits="userSpaceOnUse">
<stop offset="1" stop-color="white" stop-opacity="0"/>
<stop stop-color="#455FF6"/>
</linearGradient>
<linearGradient id="paint159_linear_2_3674" x1="-109.829" y1="826.072" x2="-109.829" y2="-378.857" gradientUnits="userSpaceOnUse">
<stop offset="1" stop-color="white" stop-opacity="0"/>
<stop stop-color="#455FF6"/>
</linearGradient>
<linearGradient id="paint160_linear_2_3674" x1="-96.593" y1="861.275" x2="-96.593" y2="-344.33" gradientUnits="userSpaceOnUse">
<stop offset="1" stop-color="white" stop-opacity="0"/>
<stop stop-color="#455FF6"/>
</linearGradient>
<linearGradient id="paint161_linear_2_3674" x1="-76.1845" y1="888.755" x2="-76.1845" y2="-296.332" gradientUnits="userSpaceOnUse">
<stop offset="1" stop-color="white" stop-opacity="0"/>
<stop stop-color="#455FF6"/>
</linearGradient>
<linearGradient id="paint162_linear_2_3674" x1="-48.0969" y1="907.166" x2="-48.0969" y2="-235.018" gradientUnits="userSpaceOnUse">
<stop offset="1" stop-color="white" stop-opacity="0"/>
<stop stop-color="#455FF6"/>
</linearGradient>
<linearGradient id="paint163_linear_2_3674" x1="-11.6023" y1="915.033" x2="-11.6023" y2="-160.442" gradientUnits="userSpaceOnUse">
<stop offset="1" stop-color="white" stop-opacity="0"/>
<stop stop-color="#455FF6"/>
</linearGradient>
<linearGradient id="paint164_linear_2_3674" x1="34.1415" y1="910.871" x2="34.1415" y2="-72.6861" gradientUnits="userSpaceOnUse">
<stop offset="1" stop-color="white" stop-opacity="0"/>
<stop stop-color="#455FF6"/>
</linearGradient>
<linearGradient id="paint165_linear_2_3674" x1="90.9533" y1="892.71" x2="90.9533" y2="28.8584" gradientUnits="userSpaceOnUse">
<stop offset="1" stop-color="white" stop-opacity="0"/>
<stop stop-color="#455FF6"/>
</linearGradient>
<linearGradient id="paint166_linear_2_3674" x1="160.337" y1="858.88" x2="160.337" y2="144.54" gradientUnits="userSpaceOnUse">
<stop offset="1" stop-color="white" stop-opacity="0"/>
<stop stop-color="#455FF6"/>
</linearGradient>
<linearGradient id="paint167_linear_2_3674" x1="245.764" y1="806.393" x2="245.764" y2="276.481" gradientUnits="userSpaceOnUse">
<stop offset="1" stop-color="white" stop-opacity="0"/>
<stop stop-color="#455FF6"/>
</linearGradient>
<linearGradient id="paint168_linear_2_3674" x1="351.353" y1="731.879" x2="351.353" y2="427.409" gradientUnits="userSpaceOnUse">
<stop offset="1" stop-color="white" stop-opacity="0"/>
<stop stop-color="#455FF6"/>
</linearGradient>
<linearGradient id="paint169_linear_2_3674" x1="488.773" y1="626.484" x2="488.773" y2="607.136" gradientUnits="userSpaceOnUse">
<stop offset="1" stop-color="white" stop-opacity="0"/>
<stop stop-color="#455FF6"/>
</linearGradient>
<linearGradient id="paint170_linear_2_3674" x1="287.457" y1="330.778" x2="287.457" y2="42.0341" gradientUnits="userSpaceOnUse">
<stop offset="1" stop-color="white" stop-opacity="0"/>
<stop stop-color="#455FF6"/>
</linearGradient>
<linearGradient id="paint171_linear_2_3674" x1="183.828" y1="452.685" x2="183.828" y2="-62.9384" gradientUnits="userSpaceOnUse">
<stop offset="1" stop-color="white" stop-opacity="0"/>
<stop stop-color="#455FF6"/>
</linearGradient>
<linearGradient id="paint172_linear_2_3674" x1="100.976" y1="560.752" x2="100.976" y2="-140.5" gradientUnits="userSpaceOnUse">
<stop offset="1" stop-color="white" stop-opacity="0"/>
<stop stop-color="#455FF6"/>
</linearGradient>
<linearGradient id="paint173_linear_2_3674" x1="34.2451" y1="657.388" x2="34.2451" y2="-195.079" gradientUnits="userSpaceOnUse">
<stop offset="1" stop-color="white" stop-opacity="0"/>
<stop stop-color="#455FF6"/>
</linearGradient>
<linearGradient id="paint174_linear_2_3674" x1="-19.822" y1="744.104" x2="-19.822" y2="-230.17" gradientUnits="userSpaceOnUse">
<stop offset="1" stop-color="white" stop-opacity="0"/>
<stop stop-color="#455FF6"/>
</linearGradient>
<linearGradient id="paint175_linear_2_3674" x1="-62.3097" y1="820.663" x2="-62.3097" y2="-247.183" gradientUnits="userSpaceOnUse">
<stop offset="1" stop-color="white" stop-opacity="0"/>
<stop stop-color="#455FF6"/>
</linearGradient>
<linearGradient id="paint176_linear_2_3674" x1="-95.4682" y1="887.719" x2="-95.4682" y2="-248.734" gradientUnits="userSpaceOnUse">
<stop offset="1" stop-color="white" stop-opacity="0"/>
<stop stop-color="#455FF6"/>
</linearGradient>
<linearGradient id="paint177_linear_2_3674" x1="-120.351" y1="945.101" x2="-120.351" y2="-236.488" gradientUnits="userSpaceOnUse">
<stop offset="1" stop-color="white" stop-opacity="0"/>
<stop stop-color="#455FF6"/>
</linearGradient>
<linearGradient id="paint178_linear_2_3674" x1="-137.903" y1="992.573" x2="-137.903" y2="-212.093" gradientUnits="userSpaceOnUse">
<stop offset="1" stop-color="white" stop-opacity="0"/>
<stop stop-color="#455FF6"/>
</linearGradient>
<linearGradient id="paint179_linear_2_3674" x1="-147.795" y1="1029.13" x2="-147.795" y2="-176.225" gradientUnits="userSpaceOnUse">
<stop offset="1" stop-color="white" stop-opacity="0"/>
<stop stop-color="#455FF6"/>
</linearGradient>
<linearGradient id="paint180_linear_2_3674" x1="-150.448" y1="1054.5" x2="-150.448" y2="-130.347" gradientUnits="userSpaceOnUse">
<stop offset="1" stop-color="white" stop-opacity="0"/>
<stop stop-color="#455FF6"/>
</linearGradient>
<linearGradient id="paint181_linear_2_3674" x1="-144.838" y1="1067.36" x2="-144.838" y2="-74.5801" gradientUnits="userSpaceOnUse">
<stop offset="1" stop-color="white" stop-opacity="0"/>
<stop stop-color="#455FF6"/>
</linearGradient>
<linearGradient id="paint182_linear_2_3674" x1="-129.749" y1="1066.34" x2="-129.749" y2="-8.90974" gradientUnits="userSpaceOnUse">
<stop offset="1" stop-color="white" stop-opacity="0"/>
<stop stop-color="#455FF6"/>
</linearGradient>
<linearGradient id="paint183_linear_2_3674" x1="-103.803" y1="1050.15" x2="-103.803" y2="66.8117" gradientUnits="userSpaceOnUse">
<stop offset="1" stop-color="white" stop-opacity="0"/>
<stop stop-color="#455FF6"/>
</linearGradient>
<linearGradient id="paint184_linear_2_3674" x1="-64.7581" y1="1017.13" x2="-64.7581" y2="153.46" gradientUnits="userSpaceOnUse">
<stop offset="1" stop-color="white" stop-opacity="0"/>
<stop stop-color="#455FF6"/>
</linearGradient>
<linearGradient id="paint185_linear_2_3674" x1="-10.7057" y1="965.953" x2="-10.7057" y2="251.749" gradientUnits="userSpaceOnUse">
<stop offset="1" stop-color="white" stop-opacity="0"/>
<stop stop-color="#455FF6"/>
</linearGradient>
<linearGradient id="paint186_linear_2_3674" x1="62.143" y1="894.006" x2="62.143" y2="364.207" gradientUnits="userSpaceOnUse">
<stop offset="1" stop-color="white" stop-opacity="0"/>
<stop stop-color="#455FF6"/>
</linearGradient>
<linearGradient id="paint187_linear_2_3674" x1="158.237" y1="798.381" x2="158.237" y2="493.968" gradientUnits="userSpaceOnUse">
<stop offset="1" stop-color="white" stop-opacity="0"/>
<stop stop-color="#455FF6"/>
</linearGradient>
<linearGradient id="paint188_linear_2_3674" x1="289.455" y1="670.682" x2="289.455" y2="651.343" gradientUnits="userSpaceOnUse">
<stop offset="1" stop-color="white" stop-opacity="0"/>
<stop stop-color="#455FF6"/>
</linearGradient>
</defs>
</svg>
