<svg viewBox="0 0 1129 1240" fill="none" xmlns="http://www.w3.org/2000/svg">
<g opacity="0.277998">
<mask id="mask0_2_3685" style="mask-type:alpha" maskUnits="userSpaceOnUse" x="0" y="0" width="1129" height="1240">
<rect width="1128.9" height="1239.86" fill="url(#paint0_linear_2_3685)"/>
</mask>
<g mask="url(#mask0_2_3685)">
<path d="M1045.87 315.417C980.544 291.75 908.385 325.558 884.728 390.887L829.461 543.523L829.278 543.083L782.501 674.389L806.045 486.076L691.024 203.86C670.173 152.729 618.504 121.095 563.415 126.023C508.405 130.886 463.007 171.045 451.457 225.047L392.553 486.076L408.787 686.892L378.147 567.907L378.107 568.085L247.627 94.1808C230.127 26.9342 161.502 -13.3831 94.1906 4.0673C26.9341 21.5523 -13.4079 90.247 4.07709 157.503L268.27 1145.7C282.715 1201.26 332.848 1239.86 390.017 1239.86C390.937 1239.86 391.871 1239.85 392.8 1239.84C451.106 1238.55 500.893 1197.39 513.09 1140.35L581.364 821.005L581.394 820.867L612.138 677.082L612.297 677.473L642.764 536.095L632.08 726.013L719.865 941.418C739.525 989.613 786.312 1020.32 838.885 1019.73C890.935 1018.69 936.965 985.719 954.702 936.763L1121.34 476.563C1145 411.234 1111.22 339.075 1045.87 315.417Z" fill="url(#paint1_linear_2_3685)"/>
</g>
</g>
<defs>
<linearGradient id="paint0_linear_2_3685" x1="282.224" y1="309.966" x2="282.224" y2="309.966" gradientUnits="userSpaceOnUse">
<stop offset="1" stop-color="white"/>
<stop stop-color="#455FF6"/>
</linearGradient>
<linearGradient id="paint1_linear_2_3685" x1="282.222" y1="309.966" x2="282.222" y2="309.966" gradientUnits="userSpaceOnUse">
<stop offset="1" stop-color="white"/>
<stop stop-color="#455FF6"/>
</linearGradient>
</defs>
</svg>
